%TF.GenerationSoftware,KiCad,Pcbnew,8.0.2*%
%TF.CreationDate,2024-08-20T17:24:06+07:00*%
%TF.ProjectId,Arduino_xtension_IDC30,41726475-696e-46f5-9f78-74656e73696f,rev?*%
%TF.SameCoordinates,Original*%
%TF.FileFunction,Legend,Top*%
%TF.FilePolarity,Positive*%
%FSLAX46Y46*%
G04 Gerber Fmt 4.6, Leading zero omitted, Abs format (unit mm)*
G04 Created by KiCad (PCBNEW 8.0.2) date 2024-08-20 17:24:06*
%MOMM*%
%LPD*%
G01*
G04 APERTURE LIST*
%ADD10C,0.150000*%
%ADD11C,0.127000*%
%ADD12C,0.120000*%
G04 APERTURE END LIST*
D10*
X141479819Y-56146904D02*
X142289342Y-56146904D01*
X142289342Y-56146904D02*
X142384580Y-56099285D01*
X142384580Y-56099285D02*
X142432200Y-56051666D01*
X142432200Y-56051666D02*
X142479819Y-55956428D01*
X142479819Y-55956428D02*
X142479819Y-55765952D01*
X142479819Y-55765952D02*
X142432200Y-55670714D01*
X142432200Y-55670714D02*
X142384580Y-55623095D01*
X142384580Y-55623095D02*
X142289342Y-55575476D01*
X142289342Y-55575476D02*
X141479819Y-55575476D01*
X142479819Y-54575476D02*
X142479819Y-55146904D01*
X142479819Y-54861190D02*
X141479819Y-54861190D01*
X141479819Y-54861190D02*
X141622676Y-54956428D01*
X141622676Y-54956428D02*
X141717914Y-55051666D01*
X141717914Y-55051666D02*
X141765533Y-55146904D01*
X92549166Y-101734819D02*
X92549166Y-102449104D01*
X92549166Y-102449104D02*
X92501547Y-102591961D01*
X92501547Y-102591961D02*
X92406309Y-102687200D01*
X92406309Y-102687200D02*
X92263452Y-102734819D01*
X92263452Y-102734819D02*
X92168214Y-102734819D01*
X93549166Y-102734819D02*
X92977738Y-102734819D01*
X93263452Y-102734819D02*
X93263452Y-101734819D01*
X93263452Y-101734819D02*
X93168214Y-101877676D01*
X93168214Y-101877676D02*
X93072976Y-101972914D01*
X93072976Y-101972914D02*
X92977738Y-102020533D01*
D11*
%TO.C,U1*%
X103340000Y-105680000D02*
X141340000Y-105680000D01*
X141340000Y-51680000D02*
X141340000Y-105680000D01*
X103340000Y-51680000D02*
X141340000Y-51680000D01*
X103340000Y-51680000D02*
X103340000Y-105680000D01*
D12*
%TO.C,J1*%
X101447500Y-96680000D02*
X101447500Y-95680000D01*
X101447500Y-95680000D02*
X100447500Y-96180000D01*
X100447500Y-96180000D02*
X101447500Y-96680000D01*
X94827500Y-101390000D02*
X85707500Y-101390000D01*
X94827500Y-80450000D02*
X85707500Y-80450000D01*
X94827500Y-76350000D02*
X85707500Y-76350000D01*
X94827500Y-55410000D02*
X94827500Y-101390000D01*
X85707500Y-101390000D02*
X85707500Y-55410000D01*
X85707500Y-55410000D02*
X94827500Y-55410000D01*
%TD*%
M02*
