%TF.GenerationSoftware,KiCad,Pcbnew,8.0.2*%
%TF.CreationDate,2024-08-20T17:24:06+07:00*%
%TF.ProjectId,Arduino_xtension_IDC30,41726475-696e-46f5-9f78-74656e73696f,rev?*%
%TF.SameCoordinates,Original*%
%TF.FileFunction,Soldermask,Bot*%
%TF.FilePolarity,Negative*%
%FSLAX46Y46*%
G04 Gerber Fmt 4.6, Leading zero omitted, Abs format (unit mm)*
G04 Created by KiCad (PCBNEW 8.0.2) date 2024-08-20 17:24:06*
%MOMM*%
%LPD*%
G01*
G04 APERTURE LIST*
G04 Aperture macros list*
%AMRoundRect*
0 Rectangle with rounded corners*
0 $1 Rounding radius*
0 $2 $3 $4 $5 $6 $7 $8 $9 X,Y pos of 4 corners*
0 Add a 4 corners polygon primitive as box body*
4,1,4,$2,$3,$4,$5,$6,$7,$8,$9,$2,$3,0*
0 Add four circle primitives for the rounded corners*
1,1,$1+$1,$2,$3*
1,1,$1+$1,$4,$5*
1,1,$1+$1,$6,$7*
1,1,$1+$1,$8,$9*
0 Add four rect primitives between the rounded corners*
20,1,$1+$1,$2,$3,$4,$5,0*
20,1,$1+$1,$4,$5,$6,$7,0*
20,1,$1+$1,$6,$7,$8,$9,0*
20,1,$1+$1,$8,$9,$2,$3,0*%
G04 Aperture macros list end*
%ADD10C,3.200000*%
%ADD11C,1.880400*%
%ADD12RoundRect,0.250000X0.600000X0.600000X-0.600000X0.600000X-0.600000X-0.600000X0.600000X-0.600000X0*%
%ADD13C,1.700000*%
G04 APERTURE END LIST*
D10*
%TO.C,REF\u002A\u002A*%
X143900000Y-108100000D03*
%TD*%
%TO.C,REF\u002A\u002A*%
X88900000Y-108200000D03*
%TD*%
%TO.C,REF\u002A\u002A*%
X88900000Y-49200000D03*
%TD*%
%TO.C,REF\u002A\u002A*%
X143900000Y-49100000D03*
%TD*%
D11*
%TO.C,U1*%
X107100000Y-53480000D03*
X104560000Y-53480000D03*
X107100000Y-56020000D03*
X104560000Y-56020000D03*
X104560000Y-58560000D03*
X107100000Y-58560000D03*
X107100000Y-61100000D03*
X104560000Y-61100000D03*
X104560000Y-63640000D03*
X107100000Y-63640000D03*
X107100000Y-66180000D03*
X104560000Y-66180000D03*
X104560000Y-68720000D03*
X104560000Y-71260000D03*
X104560000Y-73800000D03*
X104560000Y-76340000D03*
X104560000Y-78880000D03*
X104560000Y-81420000D03*
X104560000Y-83960000D03*
X104560000Y-86500000D03*
X104560000Y-89040000D03*
X104560000Y-91580000D03*
X107100000Y-68720000D03*
X107100000Y-71260000D03*
X107100000Y-73800000D03*
X107100000Y-76340000D03*
X107100000Y-78880000D03*
X107100000Y-81420000D03*
X107100000Y-83960000D03*
X107100000Y-86500000D03*
X107100000Y-89040000D03*
X107100000Y-91580000D03*
X104560000Y-94120000D03*
X104560000Y-96660000D03*
X104560000Y-99200000D03*
X104560000Y-101740000D03*
X104560000Y-104280000D03*
X107100000Y-104280000D03*
X107100000Y-101740000D03*
X107100000Y-99200000D03*
X107100000Y-96660000D03*
X107100000Y-94120000D03*
X137580000Y-66180000D03*
X140120000Y-66180000D03*
X140120000Y-68720000D03*
X137580000Y-68720000D03*
X137580000Y-71260000D03*
X140120000Y-71260000D03*
X140120000Y-73800000D03*
X137580000Y-73800000D03*
X140120000Y-76340000D03*
X137580000Y-76340000D03*
X140120000Y-78880000D03*
X137580000Y-78880000D03*
X140120000Y-81420000D03*
X137580000Y-81420000D03*
X140120000Y-83960000D03*
X137580000Y-83960000D03*
X140120000Y-86500000D03*
X137580000Y-86500000D03*
X140120000Y-89040000D03*
X137580000Y-89040000D03*
X140120000Y-91580000D03*
X137580000Y-91580000D03*
X140120000Y-94120000D03*
X137580000Y-94120000D03*
X140120000Y-96660000D03*
X137580000Y-96660000D03*
X140120000Y-99200000D03*
X137580000Y-99200000D03*
X140120000Y-101740000D03*
X137580000Y-101740000D03*
X140120000Y-104280000D03*
X137580000Y-104280000D03*
X135040000Y-104280000D03*
X135040000Y-101740000D03*
X132500000Y-101740000D03*
X132500000Y-104280000D03*
X129960000Y-104280000D03*
X129960000Y-101740000D03*
X117260000Y-101740000D03*
X117260000Y-104280000D03*
X119800000Y-101740000D03*
X122340000Y-101740000D03*
X122340000Y-104280000D03*
X119800000Y-104280000D03*
%TD*%
D12*
%TO.C,J1*%
X99097500Y-96180000D03*
D13*
X96557500Y-96180000D03*
X99097500Y-93640000D03*
X96557500Y-93640000D03*
X99097500Y-91100000D03*
X96557500Y-91100000D03*
X99097500Y-88560000D03*
X96557500Y-88560000D03*
X99097500Y-86020000D03*
X96557500Y-86020000D03*
X99097500Y-83480000D03*
X96557500Y-83480000D03*
X99097500Y-80940000D03*
X96557500Y-80940000D03*
X99097500Y-78400000D03*
X96557500Y-78400000D03*
X99097500Y-75860000D03*
X96557500Y-75860000D03*
X99097500Y-73320000D03*
X96557500Y-73320000D03*
X99097500Y-70780000D03*
X96557500Y-70780000D03*
X99097500Y-68240000D03*
X96557500Y-68240000D03*
X99097500Y-65700000D03*
X96557500Y-65700000D03*
X99097500Y-63160000D03*
X96557500Y-63160000D03*
X99097500Y-60620000D03*
X96557500Y-60620000D03*
%TD*%
M02*
