%TF.GenerationSoftware,KiCad,Pcbnew,8.0.2*%
%TF.CreationDate,2024-08-20T17:24:06+07:00*%
%TF.ProjectId,Arduino_xtension_IDC30,41726475-696e-46f5-9f78-74656e73696f,rev?*%
%TF.SameCoordinates,Original*%
%TF.FileFunction,Copper,L1,Top*%
%TF.FilePolarity,Positive*%
%FSLAX46Y46*%
G04 Gerber Fmt 4.6, Leading zero omitted, Abs format (unit mm)*
G04 Created by KiCad (PCBNEW 8.0.2) date 2024-08-20 17:24:06*
%MOMM*%
%LPD*%
G01*
G04 APERTURE LIST*
G04 Aperture macros list*
%AMRoundRect*
0 Rectangle with rounded corners*
0 $1 Rounding radius*
0 $2 $3 $4 $5 $6 $7 $8 $9 X,Y pos of 4 corners*
0 Add a 4 corners polygon primitive as box body*
4,1,4,$2,$3,$4,$5,$6,$7,$8,$9,$2,$3,0*
0 Add four circle primitives for the rounded corners*
1,1,$1+$1,$2,$3*
1,1,$1+$1,$4,$5*
1,1,$1+$1,$6,$7*
1,1,$1+$1,$8,$9*
0 Add four rect primitives between the rounded corners*
20,1,$1+$1,$2,$3,$4,$5,0*
20,1,$1+$1,$4,$5,$6,$7,0*
20,1,$1+$1,$6,$7,$8,$9,0*
20,1,$1+$1,$8,$9,$2,$3,0*%
G04 Aperture macros list end*
%TA.AperFunction,ComponentPad*%
%ADD10C,1.676400*%
%TD*%
%TA.AperFunction,ComponentPad*%
%ADD11RoundRect,0.250000X0.600000X0.600000X-0.600000X0.600000X-0.600000X-0.600000X0.600000X-0.600000X0*%
%TD*%
%TA.AperFunction,ComponentPad*%
%ADD12C,1.700000*%
%TD*%
%TA.AperFunction,ViaPad*%
%ADD13C,0.600000*%
%TD*%
%TA.AperFunction,Conductor*%
%ADD14C,0.300000*%
%TD*%
G04 APERTURE END LIST*
D10*
%TO.P,U1,VIN_2,VIN*%
%TO.N,VIN*%
X107100000Y-53480000D03*
%TO.P,U1,VIN_1,VIN*%
X104560000Y-53480000D03*
%TO.P,U1,GND_2,GND*%
%TO.N,GND*%
X107100000Y-56020000D03*
%TO.P,U1,GND_1,GND*%
X104560000Y-56020000D03*
%TO.P,U1,5V_1,5V*%
%TO.N,5V*%
X104560000Y-58560000D03*
%TO.P,U1,5V_2,5V*%
X107100000Y-58560000D03*
%TO.P,U1,3V3_2,3V3*%
%TO.N,3.3V*%
X107100000Y-61100000D03*
%TO.P,U1,3V3_1,3V3*%
X104560000Y-61100000D03*
%TO.P,U1,RST,RST*%
%TO.N,~{RESET}*%
X104560000Y-63640000D03*
%TO.P,U1,AREF,AREF*%
%TO.N,unconnected-(U1-PadAREF)*%
X107100000Y-63640000D03*
%TO.P,U1,RX,RX*%
%TO.N,unconnected-(U1-PadRX)*%
X107100000Y-66180000D03*
%TO.P,U1,TX,TX*%
%TO.N,unconnected-(U1-PadTX)*%
X104560000Y-66180000D03*
%TO.P,U1,D3,D3*%
%TO.N,INT5*%
X104560000Y-68720000D03*
%TO.P,U1,D5,D5*%
%TO.N,unconnected-(U1-PadD5)*%
X104560000Y-71260000D03*
%TO.P,U1,D7,D7*%
%TO.N,PWM2*%
X104560000Y-73800000D03*
%TO.P,U1,D9,D9*%
%TO.N,CE*%
X104560000Y-76340000D03*
%TO.P,U1,D11,D11*%
%TO.N,PWM3*%
X104560000Y-78880000D03*
%TO.P,U1,D13,D13*%
%TO.N,unconnected-(U1-PadD13)*%
X104560000Y-81420000D03*
%TO.P,U1,D15,D15*%
%TO.N,RX3*%
X104560000Y-83960000D03*
%TO.P,U1,D17,D17*%
%TO.N,RX2*%
X104560000Y-86500000D03*
%TO.P,U1,D19,D19*%
%TO.N,RX1*%
X104560000Y-89040000D03*
%TO.P,U1,D21,D21*%
%TO.N,SCL*%
X104560000Y-91580000D03*
%TO.P,U1,D2,D2*%
%TO.N,INT4*%
X107100000Y-68720000D03*
%TO.P,U1,D4,D4*%
%TO.N,unconnected-(U1-PadD4)*%
X107100000Y-71260000D03*
%TO.P,U1,D6,D6*%
%TO.N,PWM1*%
X107100000Y-73800000D03*
%TO.P,U1,D8,D8*%
%TO.N,LED4*%
X107100000Y-76340000D03*
%TO.P,U1,D10,D10*%
%TO.N,unconnected-(U1-PadD10)*%
X107100000Y-78880000D03*
%TO.P,U1,D12,D12*%
%TO.N,PWM4*%
X107100000Y-81420000D03*
%TO.P,U1,D14,D14*%
%TO.N,TX3*%
X107100000Y-83960000D03*
%TO.P,U1,D16,D16*%
%TO.N,TX2*%
X107100000Y-86500000D03*
%TO.P,U1,D18,D18*%
%TO.N,TX1*%
X107100000Y-89040000D03*
%TO.P,U1,D20,D20*%
%TO.N,SDA*%
X107100000Y-91580000D03*
%TO.P,U1,D23,D23*%
%TO.N,unconnected-(U1-PadD23)*%
X104560000Y-94120000D03*
%TO.P,U1,D25,D25*%
%TO.N,unconnected-(U1-PadD25)*%
X104560000Y-96660000D03*
%TO.P,U1,D27,D27*%
%TO.N,unconnected-(U1-PadD27)*%
X104560000Y-99200000D03*
%TO.P,U1,D29,D29*%
%TO.N,LED3*%
X104560000Y-101740000D03*
%TO.P,U1,D31,D31*%
%TO.N,LED1*%
X104560000Y-104280000D03*
%TO.P,U1,D30,D30*%
%TO.N,LED2*%
X107100000Y-104280000D03*
%TO.P,U1,D28,D28*%
%TO.N,unconnected-(U1-PadD28)*%
X107100000Y-101740000D03*
%TO.P,U1,D26,D26*%
%TO.N,unconnected-(U1-PadD26)*%
X107100000Y-99200000D03*
%TO.P,U1,D24,D24*%
%TO.N,unconnected-(U1-PadD24)*%
X107100000Y-96660000D03*
%TO.P,U1,D22,D22*%
%TO.N,unconnected-(U1-PadD22)*%
X107100000Y-94120000D03*
%TO.P,U1,A1,A1*%
%TO.N,unconnected-(U1-PadA1)*%
X137580000Y-66180000D03*
%TO.P,U1,A0,A0*%
%TO.N,unconnected-(U1-PadA0)*%
X140120000Y-66180000D03*
%TO.P,U1,A2,A2*%
%TO.N,unconnected-(U1-PadA2)*%
X140120000Y-68720000D03*
%TO.P,U1,A3,A3*%
%TO.N,unconnected-(U1-PadA3)*%
X137580000Y-68720000D03*
%TO.P,U1,A5,A5*%
%TO.N,unconnected-(U1-PadA5)*%
X137580000Y-71260000D03*
%TO.P,U1,A4,A4*%
%TO.N,unconnected-(U1-PadA4)*%
X140120000Y-71260000D03*
%TO.P,U1,A6,A6*%
%TO.N,unconnected-(U1-PadA6)*%
X140120000Y-73800000D03*
%TO.P,U1,A7,A7*%
%TO.N,unconnected-(U1-PadA7)*%
X137580000Y-73800000D03*
%TO.P,U1,A8,A8*%
%TO.N,unconnected-(U1-PadA8)*%
X140120000Y-76340000D03*
%TO.P,U1,A9,A9*%
%TO.N,unconnected-(U1-PadA9)*%
X137580000Y-76340000D03*
%TO.P,U1,A10,A10*%
%TO.N,unconnected-(U1-PadA10)*%
X140120000Y-78880000D03*
%TO.P,U1,A11,A11*%
%TO.N,unconnected-(U1-PadA11)*%
X137580000Y-78880000D03*
%TO.P,U1,A12,A12*%
%TO.N,unconnected-(U1-PadA12)*%
X140120000Y-81420000D03*
%TO.P,U1,A13,A13*%
%TO.N,unconnected-(U1-PadA13)*%
X137580000Y-81420000D03*
%TO.P,U1,A14,A14*%
%TO.N,unconnected-(U1-PadA14)*%
X140120000Y-83960000D03*
%TO.P,U1,A15,A15*%
%TO.N,unconnected-(U1-PadA15)*%
X137580000Y-83960000D03*
%TO.P,U1,D32,D32*%
%TO.N,unconnected-(U1-PadD32)*%
X140120000Y-86500000D03*
%TO.P,U1,D33,D33*%
%TO.N,unconnected-(U1-PadD33)*%
X137580000Y-86500000D03*
%TO.P,U1,D34,D34*%
%TO.N,unconnected-(U1-PadD34)*%
X140120000Y-89040000D03*
%TO.P,U1,D35,D35*%
%TO.N,unconnected-(U1-PadD35)*%
X137580000Y-89040000D03*
%TO.P,U1,D36,D36*%
%TO.N,unconnected-(U1-PadD36)*%
X140120000Y-91580000D03*
%TO.P,U1,D37,D37*%
%TO.N,unconnected-(U1-PadD37)*%
X137580000Y-91580000D03*
%TO.P,U1,D38,D38*%
%TO.N,unconnected-(U1-PadD38)*%
X140120000Y-94120000D03*
%TO.P,U1,D39,D39*%
%TO.N,unconnected-(U1-PadD39)*%
X137580000Y-94120000D03*
%TO.P,U1,D40,D40*%
%TO.N,unconnected-(U1-PadD40)*%
X140120000Y-96660000D03*
%TO.P,U1,D41,D41*%
%TO.N,unconnected-(U1-PadD41)*%
X137580000Y-96660000D03*
%TO.P,U1,D42,D42*%
%TO.N,unconnected-(U1-PadD42)*%
X140120000Y-99200000D03*
%TO.P,U1,D43,D43*%
%TO.N,unconnected-(U1-PadD43)*%
X137580000Y-99200000D03*
%TO.P,U1,D44,D44*%
%TO.N,unconnected-(U1-PadD44)*%
X140120000Y-101740000D03*
%TO.P,U1,D45,D45*%
%TO.N,unconnected-(U1-PadD45)*%
X137580000Y-101740000D03*
%TO.P,U1,D46,D46*%
%TO.N,unconnected-(U1-PadD46)*%
X140120000Y-104280000D03*
%TO.P,U1,D47,D47*%
%TO.N,unconnected-(U1-PadD47)*%
X137580000Y-104280000D03*
%TO.P,U1,D48,D48*%
%TO.N,unconnected-(U1-PadD48)*%
X135040000Y-104280000D03*
%TO.P,U1,D49,D49*%
%TO.N,unconnected-(U1-PadD49)*%
X135040000Y-101740000D03*
%TO.P,U1,D51,D51*%
%TO.N,MOSI*%
X132500000Y-101740000D03*
%TO.P,U1,D50,D50*%
%TO.N,MISO*%
X132500000Y-104280000D03*
%TO.P,U1,D52,D52*%
%TO.N,CLK*%
X129960000Y-104280000D03*
%TO.P,U1,D53,D53*%
%TO.N,CSE*%
X129960000Y-101740000D03*
%TO.P,U1,RESET,RESET*%
%TO.N,unconnected-(U1-PadRESET)*%
X117260000Y-101740000D03*
%TO.P,U1,GND_3,GND*%
%TO.N,GND*%
X117260000Y-104280000D03*
%TO.P,U1,SCK,SCK*%
%TO.N,unconnected-(U1-PadSCK)*%
X119800000Y-101740000D03*
%TO.P,U1,MISO,MISO*%
%TO.N,unconnected-(U1-PadMISO)*%
X122340000Y-101740000D03*
%TO.P,U1,5V_3,5V*%
%TO.N,5V*%
X122340000Y-104280000D03*
%TO.P,U1,MOSI,MOSI*%
%TO.N,unconnected-(U1-PadMOSI)*%
X119800000Y-104280000D03*
%TD*%
D11*
%TO.P,J1,1,29*%
%TO.N,unconnected-(J1-29-Pad1)*%
X99097500Y-96180000D03*
D12*
%TO.P,J1,2,30*%
%TO.N,unconnected-(J1-30-Pad2)*%
X96557500Y-96180000D03*
%TO.P,J1,3,27*%
%TO.N,INT4*%
X99097500Y-93640000D03*
%TO.P,J1,4,28*%
%TO.N,INT5*%
X96557500Y-93640000D03*
%TO.P,J1,5,25*%
%TO.N,CE*%
X99097500Y-91100000D03*
%TO.P,J1,6,26*%
%TO.N,CSE*%
X96557500Y-91100000D03*
%TO.P,J1,7,23*%
%TO.N,MISO*%
X99097500Y-88560000D03*
%TO.P,J1,8,24*%
%TO.N,CLK*%
X96557500Y-88560000D03*
%TO.P,J1,9,21*%
%TO.N,SCL*%
X99097500Y-86020000D03*
%TO.P,J1,10,22*%
%TO.N,MOSI*%
X96557500Y-86020000D03*
%TO.P,J1,11,19*%
%TO.N,RX3*%
X99097500Y-83480000D03*
%TO.P,J1,12,20*%
%TO.N,SDA*%
X96557500Y-83480000D03*
%TO.P,J1,13,17*%
%TO.N,RX2*%
X99097500Y-80940000D03*
%TO.P,J1,14,18*%
%TO.N,TX3*%
X96557500Y-80940000D03*
%TO.P,J1,15,15*%
%TO.N,RX1*%
X99097500Y-78400000D03*
%TO.P,J1,16,16*%
%TO.N,TX2*%
X96557500Y-78400000D03*
%TO.P,J1,17,13*%
%TO.N,PWM4*%
X99097500Y-75860000D03*
%TO.P,J1,18,14*%
%TO.N,TX1*%
X96557500Y-75860000D03*
%TO.P,J1,19,11*%
%TO.N,PWM2*%
X99097500Y-73320000D03*
%TO.P,J1,20,12*%
%TO.N,PWM3*%
X96557500Y-73320000D03*
%TO.P,J1,21,9*%
%TO.N,LED4*%
X99097500Y-70780000D03*
%TO.P,J1,22,10*%
%TO.N,PWM1*%
X96557500Y-70780000D03*
%TO.P,J1,23,7*%
%TO.N,LED2*%
X99097500Y-68240000D03*
%TO.P,J1,24,8*%
%TO.N,LED3*%
X96557500Y-68240000D03*
%TO.P,J1,25,5*%
%TO.N,~{RESET}*%
X99097500Y-65700000D03*
%TO.P,J1,26,6*%
%TO.N,LED1*%
X96557500Y-65700000D03*
%TO.P,J1,27,3*%
%TO.N,5V*%
X99097500Y-63160000D03*
%TO.P,J1,28,4*%
%TO.N,3.3V*%
X96557500Y-63160000D03*
%TO.P,J1,29,1*%
%TO.N,GND*%
X99097500Y-60620000D03*
%TO.P,J1,30,2*%
%TO.N,VIN*%
X96557500Y-60620000D03*
%TD*%
D13*
%TO.N,5V*%
X123300000Y-95100000D03*
X110900000Y-58560000D03*
%TO.N,TX2*%
X109000000Y-90500000D03*
X112800000Y-86900000D03*
%TO.N,TX1*%
X92500000Y-75800000D03*
%TO.N,RX1*%
X101300000Y-86700000D03*
%TO.N,RX2*%
X100471603Y-84728395D03*
%TO.N,LED4*%
X101100000Y-74200000D03*
%TO.N,CLK*%
X94900000Y-99600000D03*
%TO.N,CSE*%
X117200000Y-98000000D03*
X99500000Y-98000000D03*
%TO.N,CE*%
X110100000Y-95471800D03*
%TO.N,MOSI*%
X101400000Y-96400000D03*
%TO.N,INT4*%
X102050000Y-70071800D03*
%TD*%
D14*
%TO.N,5V*%
X123820000Y-104280000D02*
X122340000Y-104280000D01*
X124500000Y-103600000D02*
X123820000Y-104280000D01*
X123500000Y-99700000D02*
X124500000Y-100700000D01*
X115500000Y-99700000D02*
X123500000Y-99700000D01*
X114500000Y-98700000D02*
X115500000Y-99700000D01*
X114500000Y-96300000D02*
X114500000Y-98700000D01*
X115700000Y-95100000D02*
X114500000Y-96300000D01*
X123300000Y-95100000D02*
X115700000Y-95100000D01*
X124500000Y-100700000D02*
X124500000Y-103600000D01*
X110900000Y-58560000D02*
X107100000Y-58560000D01*
%TO.N,MOSI*%
X131311800Y-102928200D02*
X132500000Y-101740000D01*
X129583969Y-106500000D02*
X131311800Y-104772169D01*
X101400000Y-104100000D02*
X103800000Y-106500000D01*
X103800000Y-106500000D02*
X129583969Y-106500000D01*
X131311800Y-104772169D02*
X131311800Y-102928200D01*
X101400000Y-96400000D02*
X101400000Y-104100000D01*
%TO.N,TX2*%
X109000000Y-90500000D02*
X109000000Y-88400000D01*
X109000000Y-88400000D02*
X107100000Y-86500000D01*
X112800000Y-86900000D02*
X112800000Y-86700000D01*
%TO.N,CE*%
X108200000Y-77600000D02*
X110100000Y-79500000D01*
X105820000Y-77600000D02*
X108200000Y-77600000D01*
X110100000Y-79500000D02*
X110100000Y-95471800D01*
X104560000Y-76340000D02*
X105820000Y-77600000D01*
%TO.N,TX2*%
X112800000Y-57499631D02*
X112800000Y-86900000D01*
X106500369Y-51200000D02*
X112800000Y-57499631D01*
X99300000Y-51200000D02*
X106500369Y-51200000D01*
X91800000Y-58700000D02*
X99300000Y-51200000D01*
X91800000Y-76019239D02*
X91800000Y-58700000D01*
X94180761Y-78400000D02*
X91800000Y-76019239D01*
X96557500Y-78400000D02*
X94180761Y-78400000D01*
%TO.N,TX1*%
X92500000Y-75800000D02*
X92560000Y-75860000D01*
X92560000Y-75860000D02*
X96557500Y-75860000D01*
%TO.N,RX1*%
X100500000Y-78400000D02*
X101300000Y-79200000D01*
X101300000Y-79200000D02*
X101300000Y-86700000D01*
X99097500Y-78400000D02*
X100500000Y-78400000D01*
X101300000Y-86700000D02*
X101400000Y-86600000D01*
%TO.N,INT4*%
X102200000Y-92600000D02*
X101160000Y-93640000D01*
X101160000Y-93640000D02*
X99097500Y-93640000D01*
X102200000Y-70221800D02*
X102200000Y-92600000D01*
X102050000Y-70071800D02*
X102200000Y-70221800D01*
%TO.N,RX2*%
X100471603Y-82314103D02*
X99097500Y-80940000D01*
X100471603Y-84728395D02*
X100471603Y-82314103D01*
%TO.N,LED4*%
X101100000Y-72782500D02*
X99097500Y-70780000D01*
X101100000Y-74200000D02*
X101100000Y-72782500D01*
%TO.N,CLK*%
X94900000Y-90217500D02*
X96557500Y-88560000D01*
X94900000Y-99600000D02*
X94900000Y-90217500D01*
%TO.N,CSE*%
X126220000Y-98000000D02*
X129960000Y-101740000D01*
X117200000Y-98000000D02*
X126220000Y-98000000D01*
X97897500Y-97097500D02*
X97897500Y-92440000D01*
X97897500Y-92440000D02*
X96557500Y-91100000D01*
X98800000Y-98000000D02*
X97897500Y-97097500D01*
X99500000Y-98000000D02*
X98800000Y-98000000D01*
%TO.N,LED2*%
X103800000Y-103000000D02*
X105820000Y-103000000D01*
X102700000Y-69299999D02*
X102700000Y-101900000D01*
X102700000Y-101900000D02*
X103800000Y-103000000D01*
X101640001Y-68240000D02*
X102700000Y-69299999D01*
X99097500Y-68240000D02*
X101640001Y-68240000D01*
X105820000Y-103000000D02*
X107100000Y-104280000D01*
%TO.N,LED3*%
X97797500Y-67000000D02*
X96557500Y-68240000D01*
X103200000Y-69092893D02*
X101107107Y-67000000D01*
X103200000Y-100380000D02*
X103200000Y-69092893D01*
X101107107Y-67000000D02*
X97797500Y-67000000D01*
X104560000Y-101740000D02*
X103200000Y-100380000D01*
%TD*%
%TA.AperFunction,Conductor*%
%TO.N,GND*%
G36*
X118366453Y-105032900D02*
G01*
X118426447Y-104947221D01*
X118427819Y-104948181D01*
X118472885Y-104905208D01*
X118541491Y-104891982D01*
X118606357Y-104917947D01*
X118632385Y-104947984D01*
X118633118Y-104947472D01*
X118636222Y-104951905D01*
X118636223Y-104951907D01*
X118770579Y-105143787D01*
X118936213Y-105309421D01*
X119128093Y-105443777D01*
X119340389Y-105542772D01*
X119340395Y-105542773D01*
X119340396Y-105542774D01*
X119571878Y-105604799D01*
X119571590Y-105605873D01*
X119629171Y-105634410D01*
X119665062Y-105694356D01*
X119662846Y-105764191D01*
X119623227Y-105821741D01*
X119558783Y-105848736D01*
X119545037Y-105849500D01*
X117512074Y-105849500D01*
X117445035Y-105829815D01*
X117399280Y-105777011D01*
X117389336Y-105707853D01*
X117418361Y-105644297D01*
X117477139Y-105606523D01*
X117490544Y-105603383D01*
X117493269Y-105602902D01*
X117719432Y-105542302D01*
X117719441Y-105542298D01*
X117931655Y-105443342D01*
X118012900Y-105386453D01*
X117306448Y-104680000D01*
X117312661Y-104680000D01*
X117414394Y-104652741D01*
X117505606Y-104600080D01*
X117580080Y-104525606D01*
X117632741Y-104434394D01*
X117660000Y-104332661D01*
X117660000Y-104326447D01*
X118366453Y-105032900D01*
G37*
%TD.AperFunction*%
%TA.AperFunction,Conductor*%
G36*
X118606645Y-102378447D02*
G01*
X118632294Y-102408048D01*
X118633118Y-102407472D01*
X118636222Y-102411905D01*
X118636223Y-102411907D01*
X118770579Y-102603787D01*
X118936213Y-102769421D01*
X119128093Y-102903777D01*
X119128094Y-102903777D01*
X119132528Y-102906882D01*
X119131521Y-102908319D01*
X119174297Y-102953190D01*
X119187513Y-103021798D01*
X119161540Y-103086660D01*
X119131953Y-103112297D01*
X119132528Y-103113118D01*
X119128094Y-103116222D01*
X119128093Y-103116223D01*
X118936213Y-103250579D01*
X118936211Y-103250580D01*
X118936208Y-103250583D01*
X118770583Y-103416208D01*
X118770580Y-103416211D01*
X118770579Y-103416213D01*
X118657864Y-103577187D01*
X118633118Y-103612528D01*
X118631819Y-103611618D01*
X118586505Y-103654807D01*
X118517895Y-103668015D01*
X118453036Y-103642033D01*
X118427224Y-103612234D01*
X118426447Y-103612779D01*
X118366453Y-103527099D01*
X118366453Y-103527098D01*
X117660000Y-104233551D01*
X117660000Y-104227339D01*
X117632741Y-104125606D01*
X117580080Y-104034394D01*
X117505606Y-103959920D01*
X117414394Y-103907259D01*
X117312661Y-103880000D01*
X117306447Y-103880000D01*
X118012900Y-103173546D01*
X118012899Y-103173545D01*
X117927221Y-103113553D01*
X117928181Y-103112181D01*
X117885207Y-103067115D01*
X117871981Y-102998509D01*
X117897946Y-102933643D01*
X117927985Y-102907615D01*
X117927472Y-102906882D01*
X117931905Y-102903777D01*
X117931907Y-102903777D01*
X118123787Y-102769421D01*
X118289421Y-102603787D01*
X118423777Y-102411907D01*
X118423777Y-102411905D01*
X118426882Y-102407472D01*
X118428323Y-102408481D01*
X118473172Y-102365712D01*
X118541778Y-102352484D01*
X118606645Y-102378447D01*
G37*
%TD.AperFunction*%
%TA.AperFunction,Conductor*%
G36*
X106246600Y-51870185D02*
G01*
X106267242Y-51886819D01*
X106486020Y-52105597D01*
X106519505Y-52166920D01*
X106514521Y-52236612D01*
X106472649Y-52292545D01*
X106450747Y-52305659D01*
X106428092Y-52316223D01*
X106316048Y-52394677D01*
X106236213Y-52450579D01*
X106236211Y-52450580D01*
X106236208Y-52450583D01*
X106070583Y-52616208D01*
X105933118Y-52812528D01*
X105931680Y-52811521D01*
X105886810Y-52854297D01*
X105818202Y-52867513D01*
X105753340Y-52841540D01*
X105727702Y-52811953D01*
X105726882Y-52812528D01*
X105723777Y-52808093D01*
X105589421Y-52616213D01*
X105423787Y-52450579D01*
X105231907Y-52316223D01*
X105019611Y-52217228D01*
X105019607Y-52217227D01*
X105019603Y-52217225D01*
X104793356Y-52156603D01*
X104793346Y-52156601D01*
X104560001Y-52136186D01*
X104559999Y-52136186D01*
X104326653Y-52156601D01*
X104326643Y-52156603D01*
X104100396Y-52217225D01*
X104100389Y-52217227D01*
X104100389Y-52217228D01*
X103888093Y-52316223D01*
X103696213Y-52450579D01*
X103696211Y-52450580D01*
X103696208Y-52450583D01*
X103530583Y-52616208D01*
X103396223Y-52808093D01*
X103297229Y-53020387D01*
X103297225Y-53020396D01*
X103236603Y-53246643D01*
X103236601Y-53246653D01*
X103216186Y-53479999D01*
X103216186Y-53480000D01*
X103236601Y-53713346D01*
X103236603Y-53713356D01*
X103297225Y-53939603D01*
X103297227Y-53939607D01*
X103297228Y-53939611D01*
X103396223Y-54151907D01*
X103530579Y-54343787D01*
X103696213Y-54509421D01*
X103888093Y-54643777D01*
X103888094Y-54643777D01*
X103892528Y-54646882D01*
X103891613Y-54648187D01*
X103934787Y-54693456D01*
X103948018Y-54762061D01*
X103922058Y-54826929D01*
X103892236Y-54852779D01*
X103892778Y-54853553D01*
X103807099Y-54913544D01*
X103807098Y-54913545D01*
X104513554Y-55620000D01*
X104507339Y-55620000D01*
X104405606Y-55647259D01*
X104314394Y-55699920D01*
X104239920Y-55774394D01*
X104187259Y-55865606D01*
X104160000Y-55967339D01*
X104160000Y-55973553D01*
X103453545Y-55267098D01*
X103453544Y-55267099D01*
X103396659Y-55348341D01*
X103297701Y-55560558D01*
X103297697Y-55560567D01*
X103237097Y-55786731D01*
X103237095Y-55786741D01*
X103216688Y-56019998D01*
X103216688Y-56020001D01*
X103237095Y-56253258D01*
X103237097Y-56253268D01*
X103297697Y-56479432D01*
X103297701Y-56479441D01*
X103396657Y-56691654D01*
X103396658Y-56691656D01*
X103453545Y-56772899D01*
X103453546Y-56772900D01*
X104160000Y-56066446D01*
X104160000Y-56072661D01*
X104187259Y-56174394D01*
X104239920Y-56265606D01*
X104314394Y-56340080D01*
X104405606Y-56392741D01*
X104507339Y-56420000D01*
X104513553Y-56420000D01*
X103807098Y-57126453D01*
X103892779Y-57186447D01*
X103891817Y-57187820D01*
X103934786Y-57232872D01*
X103948019Y-57301477D01*
X103922061Y-57366346D01*
X103892017Y-57392388D01*
X103892528Y-57393118D01*
X103888094Y-57396222D01*
X103888093Y-57396223D01*
X103696213Y-57530579D01*
X103696211Y-57530580D01*
X103696208Y-57530583D01*
X103530583Y-57696208D01*
X103530580Y-57696211D01*
X103530579Y-57696213D01*
X103475669Y-57774633D01*
X103396223Y-57888093D01*
X103297229Y-58100387D01*
X103297225Y-58100396D01*
X103236603Y-58326643D01*
X103236602Y-58326650D01*
X103216186Y-58559999D01*
X103216186Y-58560000D01*
X103236601Y-58793346D01*
X103236603Y-58793356D01*
X103297225Y-59019603D01*
X103297227Y-59019607D01*
X103297228Y-59019611D01*
X103396223Y-59231907D01*
X103530579Y-59423787D01*
X103696213Y-59589421D01*
X103888093Y-59723777D01*
X103888094Y-59723777D01*
X103892528Y-59726882D01*
X103891521Y-59728319D01*
X103934297Y-59773190D01*
X103947513Y-59841798D01*
X103921540Y-59906660D01*
X103891953Y-59932297D01*
X103892528Y-59933118D01*
X103888094Y-59936222D01*
X103888093Y-59936223D01*
X103696213Y-60070579D01*
X103696211Y-60070580D01*
X103696208Y-60070583D01*
X103530583Y-60236208D01*
X103530580Y-60236211D01*
X103530579Y-60236213D01*
X103396223Y-60428093D01*
X103306737Y-60619998D01*
X103297229Y-60640387D01*
X103297225Y-60640396D01*
X103236603Y-60866643D01*
X103236601Y-60866653D01*
X103216186Y-61099999D01*
X103216186Y-61100000D01*
X103236601Y-61333346D01*
X103236603Y-61333356D01*
X103297225Y-61559603D01*
X103297227Y-61559607D01*
X103297228Y-61559611D01*
X103396223Y-61771907D01*
X103530579Y-61963787D01*
X103696213Y-62129421D01*
X103888093Y-62263777D01*
X103888094Y-62263777D01*
X103892528Y-62266882D01*
X103891521Y-62268319D01*
X103934297Y-62313190D01*
X103947513Y-62381798D01*
X103921540Y-62446660D01*
X103891953Y-62472297D01*
X103892528Y-62473118D01*
X103888094Y-62476222D01*
X103888093Y-62476223D01*
X103696213Y-62610579D01*
X103696211Y-62610580D01*
X103696208Y-62610583D01*
X103530583Y-62776208D01*
X103396223Y-62968093D01*
X103297229Y-63180387D01*
X103297225Y-63180396D01*
X103236603Y-63406643D01*
X103236601Y-63406653D01*
X103216186Y-63639999D01*
X103216186Y-63640000D01*
X103236601Y-63873346D01*
X103236603Y-63873356D01*
X103297225Y-64099603D01*
X103297227Y-64099607D01*
X103297228Y-64099611D01*
X103396223Y-64311907D01*
X103530579Y-64503787D01*
X103696213Y-64669421D01*
X103888093Y-64803777D01*
X103888094Y-64803777D01*
X103892528Y-64806882D01*
X103891521Y-64808319D01*
X103934297Y-64853190D01*
X103947513Y-64921798D01*
X103921540Y-64986660D01*
X103891953Y-65012297D01*
X103892528Y-65013118D01*
X103888094Y-65016222D01*
X103888093Y-65016223D01*
X103696213Y-65150579D01*
X103696211Y-65150580D01*
X103696208Y-65150583D01*
X103530583Y-65316208D01*
X103396223Y-65508093D01*
X103297229Y-65720387D01*
X103297225Y-65720396D01*
X103236603Y-65946643D01*
X103236601Y-65946653D01*
X103216186Y-66179999D01*
X103216186Y-66180000D01*
X103236601Y-66413346D01*
X103236603Y-66413356D01*
X103297225Y-66639603D01*
X103297227Y-66639607D01*
X103297228Y-66639611D01*
X103396223Y-66851907D01*
X103530579Y-67043787D01*
X103696213Y-67209421D01*
X103888093Y-67343777D01*
X103888094Y-67343777D01*
X103892528Y-67346882D01*
X103891521Y-67348319D01*
X103934297Y-67393190D01*
X103947513Y-67461798D01*
X103921540Y-67526660D01*
X103891953Y-67552297D01*
X103892528Y-67553118D01*
X103888094Y-67556222D01*
X103888093Y-67556223D01*
X103696213Y-67690579D01*
X103696211Y-67690580D01*
X103696208Y-67690583D01*
X103530583Y-67856208D01*
X103396222Y-68048093D01*
X103368957Y-68106565D01*
X103322784Y-68159004D01*
X103255591Y-68178156D01*
X103188710Y-68157940D01*
X103168894Y-68141841D01*
X101521781Y-66494727D01*
X101521780Y-66494726D01*
X101521776Y-66494723D01*
X101415234Y-66423535D01*
X101296851Y-66374499D01*
X101296845Y-66374497D01*
X101171178Y-66349500D01*
X101171176Y-66349500D01*
X100479387Y-66349500D01*
X100412348Y-66329815D01*
X100366593Y-66277011D01*
X100356649Y-66207853D01*
X100367004Y-66173098D01*
X100371400Y-66163670D01*
X100371400Y-66163668D01*
X100371403Y-66163663D01*
X100432563Y-65935408D01*
X100453159Y-65700000D01*
X100432563Y-65464592D01*
X100371403Y-65236337D01*
X100271535Y-65022171D01*
X100267371Y-65016223D01*
X100135994Y-64828597D01*
X99968902Y-64661506D01*
X99968896Y-64661501D01*
X99783342Y-64531575D01*
X99739717Y-64476998D01*
X99732523Y-64407500D01*
X99764046Y-64345145D01*
X99783342Y-64328425D01*
X99872905Y-64265712D01*
X99968901Y-64198495D01*
X100135995Y-64031401D01*
X100271535Y-63837830D01*
X100371403Y-63623663D01*
X100432563Y-63395408D01*
X100453159Y-63160000D01*
X100432563Y-62924592D01*
X100371403Y-62696337D01*
X100271535Y-62482171D01*
X100267371Y-62476223D01*
X100135994Y-62288597D01*
X99968902Y-62121506D01*
X99968901Y-62121505D01*
X99782905Y-61991269D01*
X99739281Y-61936692D01*
X99732088Y-61867193D01*
X99763610Y-61804839D01*
X99782905Y-61788119D01*
X99858873Y-61734925D01*
X99226909Y-61102962D01*
X99290493Y-61085925D01*
X99404507Y-61020099D01*
X99497599Y-60927007D01*
X99563425Y-60812993D01*
X99580462Y-60749410D01*
X100212425Y-61381373D01*
X100212426Y-61381373D01*
X100271098Y-61297582D01*
X100271100Y-61297578D01*
X100370929Y-61083492D01*
X100370933Y-61083483D01*
X100432067Y-60855326D01*
X100432069Y-60855315D01*
X100452657Y-60620001D01*
X100452657Y-60619998D01*
X100432069Y-60384684D01*
X100432067Y-60384673D01*
X100370933Y-60156516D01*
X100370929Y-60156507D01*
X100271100Y-59942423D01*
X100271099Y-59942421D01*
X100212425Y-59858626D01*
X100212425Y-59858625D01*
X99580462Y-60490589D01*
X99563425Y-60427007D01*
X99497599Y-60312993D01*
X99404507Y-60219901D01*
X99290493Y-60154075D01*
X99226910Y-60137037D01*
X99858873Y-59505073D01*
X99858873Y-59505072D01*
X99775083Y-59446402D01*
X99775079Y-59446400D01*
X99560992Y-59346570D01*
X99560983Y-59346566D01*
X99332826Y-59285432D01*
X99332815Y-59285430D01*
X99097502Y-59264843D01*
X99097498Y-59264843D01*
X98862184Y-59285430D01*
X98862173Y-59285432D01*
X98634016Y-59346566D01*
X98634007Y-59346570D01*
X98419919Y-59446401D01*
X98336125Y-59505072D01*
X98968090Y-60137037D01*
X98904507Y-60154075D01*
X98790493Y-60219901D01*
X98697401Y-60312993D01*
X98631575Y-60427007D01*
X98614537Y-60490590D01*
X97982573Y-59858626D01*
X97929381Y-59934594D01*
X97874804Y-59978219D01*
X97805306Y-59985413D01*
X97742951Y-59953891D01*
X97726230Y-59934594D01*
X97595994Y-59748597D01*
X97428902Y-59581506D01*
X97428895Y-59581501D01*
X97235334Y-59445967D01*
X97235330Y-59445965D01*
X97187769Y-59423787D01*
X97021163Y-59346097D01*
X97021159Y-59346096D01*
X97021155Y-59346094D01*
X96792913Y-59284938D01*
X96792903Y-59284936D01*
X96557501Y-59264341D01*
X96557499Y-59264341D01*
X96322096Y-59284936D01*
X96322086Y-59284938D01*
X96093844Y-59346094D01*
X96093835Y-59346098D01*
X95879671Y-59445964D01*
X95879669Y-59445965D01*
X95686097Y-59581505D01*
X95519005Y-59748597D01*
X95383465Y-59942169D01*
X95383464Y-59942171D01*
X95283598Y-60156335D01*
X95283594Y-60156344D01*
X95222438Y-60384586D01*
X95222436Y-60384596D01*
X95201841Y-60619999D01*
X95201841Y-60620000D01*
X95222436Y-60855403D01*
X95222438Y-60855413D01*
X95283594Y-61083655D01*
X95283596Y-61083659D01*
X95283597Y-61083663D01*
X95363300Y-61254586D01*
X95383465Y-61297830D01*
X95383467Y-61297834D01*
X95441962Y-61381373D01*
X95519001Y-61491396D01*
X95519006Y-61491402D01*
X95686097Y-61658493D01*
X95686103Y-61658498D01*
X95871658Y-61788425D01*
X95915283Y-61843002D01*
X95922477Y-61912500D01*
X95890954Y-61974855D01*
X95871658Y-61991575D01*
X95686097Y-62121505D01*
X95519005Y-62288597D01*
X95383465Y-62482169D01*
X95383464Y-62482171D01*
X95283598Y-62696335D01*
X95283594Y-62696344D01*
X95222438Y-62924586D01*
X95222436Y-62924596D01*
X95201841Y-63159999D01*
X95201841Y-63160000D01*
X95222436Y-63395403D01*
X95222438Y-63395413D01*
X95283594Y-63623655D01*
X95283596Y-63623659D01*
X95283597Y-63623663D01*
X95363504Y-63795023D01*
X95383465Y-63837830D01*
X95383467Y-63837834D01*
X95491781Y-63992521D01*
X95519001Y-64031396D01*
X95519006Y-64031402D01*
X95686097Y-64198493D01*
X95686103Y-64198498D01*
X95871658Y-64328425D01*
X95915283Y-64383002D01*
X95922477Y-64452500D01*
X95890954Y-64514855D01*
X95871658Y-64531575D01*
X95686097Y-64661505D01*
X95519005Y-64828597D01*
X95383465Y-65022169D01*
X95383464Y-65022171D01*
X95283598Y-65236335D01*
X95283594Y-65236344D01*
X95222438Y-65464586D01*
X95222436Y-65464596D01*
X95201841Y-65699999D01*
X95201841Y-65700000D01*
X95222436Y-65935403D01*
X95222438Y-65935413D01*
X95283594Y-66163655D01*
X95283596Y-66163659D01*
X95283597Y-66163663D01*
X95381911Y-66374497D01*
X95383465Y-66377830D01*
X95383467Y-66377834D01*
X95519001Y-66571395D01*
X95519006Y-66571402D01*
X95686097Y-66738493D01*
X95686103Y-66738498D01*
X95871658Y-66868425D01*
X95915283Y-66923002D01*
X95922477Y-66992500D01*
X95890954Y-67054855D01*
X95871658Y-67071575D01*
X95686097Y-67201505D01*
X95519005Y-67368597D01*
X95383465Y-67562169D01*
X95383464Y-67562171D01*
X95283598Y-67776335D01*
X95283594Y-67776344D01*
X95222438Y-68004586D01*
X95222436Y-68004596D01*
X95201841Y-68239999D01*
X95201841Y-68240000D01*
X95222436Y-68475403D01*
X95222438Y-68475413D01*
X95283594Y-68703655D01*
X95283596Y-68703659D01*
X95283597Y-68703663D01*
X95363504Y-68875023D01*
X95383465Y-68917830D01*
X95383467Y-68917834D01*
X95491781Y-69072521D01*
X95519001Y-69111396D01*
X95519006Y-69111402D01*
X95686097Y-69278493D01*
X95686103Y-69278498D01*
X95871658Y-69408425D01*
X95915283Y-69463002D01*
X95922477Y-69532500D01*
X95890954Y-69594855D01*
X95871658Y-69611575D01*
X95686097Y-69741505D01*
X95519005Y-69908597D01*
X95383465Y-70102169D01*
X95383464Y-70102171D01*
X95283598Y-70316335D01*
X95283594Y-70316344D01*
X95222438Y-70544586D01*
X95222436Y-70544596D01*
X95201841Y-70779999D01*
X95201841Y-70780000D01*
X95222436Y-71015403D01*
X95222438Y-71015413D01*
X95283594Y-71243655D01*
X95283596Y-71243659D01*
X95283597Y-71243663D01*
X95363504Y-71415023D01*
X95383465Y-71457830D01*
X95383467Y-71457834D01*
X95491781Y-71612521D01*
X95519001Y-71651396D01*
X95519006Y-71651402D01*
X95686097Y-71818493D01*
X95686103Y-71818498D01*
X95871658Y-71948425D01*
X95915283Y-72003002D01*
X95922477Y-72072500D01*
X95890954Y-72134855D01*
X95871658Y-72151575D01*
X95686097Y-72281505D01*
X95519005Y-72448597D01*
X95383465Y-72642169D01*
X95383464Y-72642171D01*
X95283598Y-72856335D01*
X95283594Y-72856344D01*
X95222438Y-73084586D01*
X95222436Y-73084596D01*
X95201841Y-73319999D01*
X95201841Y-73320000D01*
X95222436Y-73555403D01*
X95222438Y-73555413D01*
X95283594Y-73783655D01*
X95283596Y-73783659D01*
X95283597Y-73783663D01*
X95363504Y-73955023D01*
X95383465Y-73997830D01*
X95383467Y-73997834D01*
X95491781Y-74152521D01*
X95519001Y-74191396D01*
X95519006Y-74191402D01*
X95686097Y-74358493D01*
X95686103Y-74358498D01*
X95871658Y-74488425D01*
X95915283Y-74543002D01*
X95922477Y-74612500D01*
X95890954Y-74674855D01*
X95871658Y-74691575D01*
X95686097Y-74821505D01*
X95519006Y-74988596D01*
X95401354Y-75156623D01*
X95346777Y-75200248D01*
X95299779Y-75209500D01*
X93092940Y-75209500D01*
X93025901Y-75189815D01*
X93005259Y-75173181D01*
X93002262Y-75170184D01*
X92849523Y-75074211D01*
X92679254Y-75014631D01*
X92679250Y-75014630D01*
X92560616Y-75001264D01*
X92496202Y-74974197D01*
X92456647Y-74916603D01*
X92450500Y-74878044D01*
X92450500Y-59020808D01*
X92470185Y-58953769D01*
X92486819Y-58933127D01*
X99533127Y-51886819D01*
X99594450Y-51853334D01*
X99620808Y-51850500D01*
X106179561Y-51850500D01*
X106246600Y-51870185D01*
G37*
%TD.AperFunction*%
%TA.AperFunction,Conductor*%
G36*
X98631575Y-60812993D02*
G01*
X98697401Y-60927007D01*
X98790493Y-61020099D01*
X98904507Y-61085925D01*
X98968090Y-61102962D01*
X98336125Y-61734925D01*
X98412094Y-61788119D01*
X98455719Y-61842696D01*
X98462913Y-61912194D01*
X98431390Y-61974549D01*
X98412095Y-61991269D01*
X98226094Y-62121508D01*
X98059005Y-62288597D01*
X97929075Y-62474158D01*
X97874498Y-62517783D01*
X97805000Y-62524977D01*
X97742645Y-62493454D01*
X97725925Y-62474158D01*
X97595994Y-62288597D01*
X97428902Y-62121506D01*
X97428896Y-62121501D01*
X97243342Y-61991575D01*
X97199717Y-61936998D01*
X97192523Y-61867500D01*
X97224046Y-61805145D01*
X97243342Y-61788425D01*
X97332905Y-61725712D01*
X97428901Y-61658495D01*
X97595995Y-61491401D01*
X97726232Y-61305403D01*
X97780807Y-61261780D01*
X97850305Y-61254586D01*
X97912660Y-61286109D01*
X97929380Y-61305405D01*
X97982573Y-61381373D01*
X98614537Y-60749409D01*
X98631575Y-60812993D01*
G37*
%TD.AperFunction*%
%TA.AperFunction,Conductor*%
G36*
X106700000Y-56072661D02*
G01*
X106727259Y-56174394D01*
X106779920Y-56265606D01*
X106854394Y-56340080D01*
X106945606Y-56392741D01*
X107047339Y-56420000D01*
X107053553Y-56420000D01*
X106347098Y-57126453D01*
X106432779Y-57186447D01*
X106431817Y-57187820D01*
X106474786Y-57232872D01*
X106488019Y-57301477D01*
X106462061Y-57366346D01*
X106432017Y-57392388D01*
X106432528Y-57393118D01*
X106428094Y-57396222D01*
X106428093Y-57396223D01*
X106236213Y-57530579D01*
X106236211Y-57530580D01*
X106236208Y-57530583D01*
X106070583Y-57696208D01*
X106070580Y-57696211D01*
X106070579Y-57696213D01*
X105973952Y-57834211D01*
X105933118Y-57892528D01*
X105931680Y-57891521D01*
X105886810Y-57934297D01*
X105818202Y-57947513D01*
X105753340Y-57921540D01*
X105727702Y-57891953D01*
X105726882Y-57892528D01*
X105686048Y-57834211D01*
X105589421Y-57696213D01*
X105423787Y-57530579D01*
X105231907Y-57396223D01*
X105231905Y-57396222D01*
X105227472Y-57393118D01*
X105228384Y-57391814D01*
X105185207Y-57346532D01*
X105171982Y-57277926D01*
X105197949Y-57213060D01*
X105227765Y-57187224D01*
X105227221Y-57186447D01*
X105312900Y-57126453D01*
X104606448Y-56420000D01*
X104612661Y-56420000D01*
X104714394Y-56392741D01*
X104805606Y-56340080D01*
X104880080Y-56265606D01*
X104932741Y-56174394D01*
X104960000Y-56072661D01*
X104960000Y-56066447D01*
X105666453Y-56772900D01*
X105726447Y-56687221D01*
X105727684Y-56688087D01*
X105773166Y-56644710D01*
X105841771Y-56631478D01*
X105906639Y-56657438D01*
X105932866Y-56687701D01*
X105933553Y-56687221D01*
X105993545Y-56772899D01*
X105993546Y-56772900D01*
X106700000Y-56066446D01*
X106700000Y-56072661D01*
G37*
%TD.AperFunction*%
%TA.AperFunction,Conductor*%
G36*
X105906645Y-54118447D02*
G01*
X105932294Y-54148048D01*
X105933118Y-54147472D01*
X105936222Y-54151905D01*
X105936223Y-54151907D01*
X106070579Y-54343787D01*
X106236213Y-54509421D01*
X106428093Y-54643777D01*
X106428094Y-54643777D01*
X106432528Y-54646882D01*
X106431613Y-54648187D01*
X106474787Y-54693456D01*
X106488018Y-54762061D01*
X106462058Y-54826929D01*
X106432236Y-54852779D01*
X106432778Y-54853553D01*
X106347099Y-54913544D01*
X106347098Y-54913545D01*
X107053554Y-55620000D01*
X107047339Y-55620000D01*
X106945606Y-55647259D01*
X106854394Y-55699920D01*
X106779920Y-55774394D01*
X106727259Y-55865606D01*
X106700000Y-55967339D01*
X106700000Y-55973553D01*
X105993545Y-55267098D01*
X105993544Y-55267099D01*
X105933553Y-55352778D01*
X105932321Y-55351915D01*
X105886805Y-55395304D01*
X105818197Y-55408518D01*
X105753335Y-55382542D01*
X105727134Y-55352297D01*
X105726447Y-55352779D01*
X105666453Y-55267099D01*
X105666453Y-55267098D01*
X104960000Y-55973551D01*
X104960000Y-55967339D01*
X104932741Y-55865606D01*
X104880080Y-55774394D01*
X104805606Y-55699920D01*
X104714394Y-55647259D01*
X104612661Y-55620000D01*
X104606447Y-55620000D01*
X105312900Y-54913546D01*
X105312899Y-54913545D01*
X105227221Y-54853553D01*
X105228181Y-54852181D01*
X105185207Y-54807115D01*
X105171981Y-54738509D01*
X105197946Y-54673643D01*
X105227985Y-54647615D01*
X105227472Y-54646882D01*
X105231905Y-54643777D01*
X105231907Y-54643777D01*
X105423787Y-54509421D01*
X105589421Y-54343787D01*
X105723777Y-54151907D01*
X105723777Y-54151905D01*
X105726882Y-54147472D01*
X105728323Y-54148481D01*
X105773172Y-54105712D01*
X105841778Y-54092484D01*
X105906645Y-54118447D01*
G37*
%TD.AperFunction*%
%TA.AperFunction,Conductor*%
G36*
X146647984Y-46114740D02*
G01*
X146693739Y-46167544D01*
X146704945Y-46219055D01*
X146704945Y-111075500D01*
X146685260Y-111142539D01*
X146632456Y-111188294D01*
X146580945Y-111199500D01*
X85902000Y-111199500D01*
X85834961Y-111179815D01*
X85789206Y-111127011D01*
X85778000Y-111075500D01*
X85778000Y-108078711D01*
X87049500Y-108078711D01*
X87049500Y-108321288D01*
X87081161Y-108561785D01*
X87143947Y-108796104D01*
X87236773Y-109020205D01*
X87236776Y-109020212D01*
X87358064Y-109230289D01*
X87358066Y-109230292D01*
X87358067Y-109230293D01*
X87505733Y-109422736D01*
X87505739Y-109422743D01*
X87677256Y-109594260D01*
X87677262Y-109594265D01*
X87869711Y-109741936D01*
X88079788Y-109863224D01*
X88303900Y-109956054D01*
X88538211Y-110018838D01*
X88718586Y-110042584D01*
X88778711Y-110050500D01*
X88778712Y-110050500D01*
X89021289Y-110050500D01*
X89069388Y-110044167D01*
X89261789Y-110018838D01*
X89496100Y-109956054D01*
X89720212Y-109863224D01*
X89930289Y-109741936D01*
X90122738Y-109594265D01*
X90294265Y-109422738D01*
X90441936Y-109230289D01*
X90563224Y-109020212D01*
X90656054Y-108796100D01*
X90718838Y-108561789D01*
X90750500Y-108321288D01*
X90750500Y-108078712D01*
X90737335Y-107978711D01*
X142049500Y-107978711D01*
X142049500Y-108221288D01*
X142081161Y-108461785D01*
X142143947Y-108696104D01*
X142185367Y-108796100D01*
X142236776Y-108920212D01*
X142358064Y-109130289D01*
X142358066Y-109130292D01*
X142358067Y-109130293D01*
X142505733Y-109322736D01*
X142505739Y-109322743D01*
X142677256Y-109494260D01*
X142677262Y-109494265D01*
X142869711Y-109641936D01*
X143079788Y-109763224D01*
X143303900Y-109856054D01*
X143538211Y-109918838D01*
X143718586Y-109942584D01*
X143778711Y-109950500D01*
X143778712Y-109950500D01*
X144021289Y-109950500D01*
X144069388Y-109944167D01*
X144261789Y-109918838D01*
X144496100Y-109856054D01*
X144720212Y-109763224D01*
X144930289Y-109641936D01*
X145122738Y-109494265D01*
X145294265Y-109322738D01*
X145441936Y-109130289D01*
X145563224Y-108920212D01*
X145656054Y-108696100D01*
X145718838Y-108461789D01*
X145750500Y-108221288D01*
X145750500Y-107978712D01*
X145718838Y-107738211D01*
X145656054Y-107503900D01*
X145563224Y-107279788D01*
X145441936Y-107069711D01*
X145294265Y-106877262D01*
X145294260Y-106877256D01*
X145122743Y-106705739D01*
X145122736Y-106705733D01*
X144930293Y-106558067D01*
X144930292Y-106558066D01*
X144930289Y-106558064D01*
X144720212Y-106436776D01*
X144720205Y-106436773D01*
X144496104Y-106343947D01*
X144261785Y-106281161D01*
X144021289Y-106249500D01*
X144021288Y-106249500D01*
X143778712Y-106249500D01*
X143778711Y-106249500D01*
X143538214Y-106281161D01*
X143303895Y-106343947D01*
X143079794Y-106436773D01*
X143079785Y-106436777D01*
X142869706Y-106558067D01*
X142677263Y-106705733D01*
X142677256Y-106705739D01*
X142505739Y-106877256D01*
X142505733Y-106877263D01*
X142358067Y-107069706D01*
X142236777Y-107279785D01*
X142236773Y-107279794D01*
X142143947Y-107503895D01*
X142081161Y-107738214D01*
X142049500Y-107978711D01*
X90737335Y-107978711D01*
X90718838Y-107838211D01*
X90656054Y-107603900D01*
X90563224Y-107379788D01*
X90441936Y-107169711D01*
X90370384Y-107076462D01*
X90294266Y-106977263D01*
X90294260Y-106977256D01*
X90122743Y-106805739D01*
X90122736Y-106805733D01*
X89930293Y-106658067D01*
X89930292Y-106658066D01*
X89930289Y-106658064D01*
X89720212Y-106536776D01*
X89720205Y-106536773D01*
X89496104Y-106443947D01*
X89261785Y-106381161D01*
X89021289Y-106349500D01*
X89021288Y-106349500D01*
X88778712Y-106349500D01*
X88778711Y-106349500D01*
X88538214Y-106381161D01*
X88303895Y-106443947D01*
X88079794Y-106536773D01*
X88079785Y-106536777D01*
X87869706Y-106658067D01*
X87677263Y-106805733D01*
X87677256Y-106805739D01*
X87505739Y-106977256D01*
X87505733Y-106977263D01*
X87358067Y-107169706D01*
X87236777Y-107379785D01*
X87236773Y-107379794D01*
X87143947Y-107603895D01*
X87081161Y-107838214D01*
X87049500Y-108078711D01*
X85778000Y-108078711D01*
X85778000Y-58635928D01*
X91149500Y-58635928D01*
X91149500Y-76083310D01*
X91166372Y-76168127D01*
X91166372Y-76168128D01*
X91174497Y-76208975D01*
X91174499Y-76208983D01*
X91223534Y-76327364D01*
X91294726Y-76433912D01*
X93766087Y-78905273D01*
X93766095Y-78905279D01*
X93860993Y-78968688D01*
X93860994Y-78968688D01*
X93863952Y-78970664D01*
X93872634Y-78976465D01*
X93991017Y-79025501D01*
X93991021Y-79025501D01*
X93991022Y-79025502D01*
X94116689Y-79050500D01*
X94116692Y-79050500D01*
X95299778Y-79050500D01*
X95366817Y-79070185D01*
X95401353Y-79103377D01*
X95519001Y-79271396D01*
X95519006Y-79271402D01*
X95686097Y-79438493D01*
X95686103Y-79438498D01*
X95871658Y-79568425D01*
X95915283Y-79623002D01*
X95922477Y-79692500D01*
X95890954Y-79754855D01*
X95871658Y-79771575D01*
X95686097Y-79901505D01*
X95519005Y-80068597D01*
X95383465Y-80262169D01*
X95383464Y-80262171D01*
X95283598Y-80476335D01*
X95283594Y-80476344D01*
X95222438Y-80704586D01*
X95222436Y-80704596D01*
X95201841Y-80939999D01*
X95201841Y-80940000D01*
X95222436Y-81175403D01*
X95222438Y-81175413D01*
X95283594Y-81403655D01*
X95283596Y-81403659D01*
X95283597Y-81403663D01*
X95362119Y-81572054D01*
X95383465Y-81617830D01*
X95383467Y-81617834D01*
X95491781Y-81772521D01*
X95519001Y-81811396D01*
X95519006Y-81811402D01*
X95686097Y-81978493D01*
X95686103Y-81978498D01*
X95871658Y-82108425D01*
X95915283Y-82163002D01*
X95922477Y-82232500D01*
X95890954Y-82294855D01*
X95871658Y-82311575D01*
X95686097Y-82441505D01*
X95519005Y-82608597D01*
X95383465Y-82802169D01*
X95383464Y-82802171D01*
X95283598Y-83016335D01*
X95283594Y-83016344D01*
X95222438Y-83244586D01*
X95222436Y-83244596D01*
X95201841Y-83479999D01*
X95201841Y-83480000D01*
X95222436Y-83715403D01*
X95222438Y-83715413D01*
X95283594Y-83943655D01*
X95283596Y-83943659D01*
X95283597Y-83943663D01*
X95363504Y-84115023D01*
X95383465Y-84157830D01*
X95383467Y-84157834D01*
X95491781Y-84312521D01*
X95519001Y-84351396D01*
X95519006Y-84351402D01*
X95686097Y-84518493D01*
X95686103Y-84518498D01*
X95871658Y-84648425D01*
X95915283Y-84703002D01*
X95922477Y-84772500D01*
X95890954Y-84834855D01*
X95871658Y-84851575D01*
X95686097Y-84981505D01*
X95519005Y-85148597D01*
X95383465Y-85342169D01*
X95383464Y-85342171D01*
X95283598Y-85556335D01*
X95283594Y-85556344D01*
X95222438Y-85784586D01*
X95222436Y-85784596D01*
X95201841Y-86019999D01*
X95201841Y-86020000D01*
X95222436Y-86255403D01*
X95222438Y-86255413D01*
X95283594Y-86483655D01*
X95283596Y-86483659D01*
X95283597Y-86483663D01*
X95314755Y-86550481D01*
X95383465Y-86697830D01*
X95383467Y-86697834D01*
X95453852Y-86798353D01*
X95519001Y-86891396D01*
X95519006Y-86891402D01*
X95686097Y-87058493D01*
X95686103Y-87058498D01*
X95871658Y-87188425D01*
X95915283Y-87243002D01*
X95922477Y-87312500D01*
X95890954Y-87374855D01*
X95871658Y-87391575D01*
X95686097Y-87521505D01*
X95519005Y-87688597D01*
X95383465Y-87882169D01*
X95383464Y-87882171D01*
X95283598Y-88096335D01*
X95283594Y-88096344D01*
X95222438Y-88324586D01*
X95222436Y-88324596D01*
X95201841Y-88559999D01*
X95201841Y-88560000D01*
X95222436Y-88795403D01*
X95222439Y-88795416D01*
X95241884Y-88867989D01*
X95240221Y-88937839D01*
X95209790Y-88987762D01*
X94394724Y-89802828D01*
X94327265Y-89903790D01*
X94323537Y-89909368D01*
X94323536Y-89909371D01*
X94274499Y-90027755D01*
X94274497Y-90027761D01*
X94249500Y-90153428D01*
X94249500Y-99094931D01*
X94230494Y-99160903D01*
X94174211Y-99250477D01*
X94174209Y-99250481D01*
X94114633Y-99420737D01*
X94114630Y-99420750D01*
X94094435Y-99599996D01*
X94094435Y-99600003D01*
X94114630Y-99779249D01*
X94114631Y-99779254D01*
X94174211Y-99949523D01*
X94246011Y-100063791D01*
X94270184Y-100102262D01*
X94397738Y-100229816D01*
X94471975Y-100276462D01*
X94550019Y-100325501D01*
X94550478Y-100325789D01*
X94720745Y-100385368D01*
X94720750Y-100385369D01*
X94899996Y-100405565D01*
X94900000Y-100405565D01*
X94900004Y-100405565D01*
X95079249Y-100385369D01*
X95079252Y-100385368D01*
X95079255Y-100385368D01*
X95249522Y-100325789D01*
X95402262Y-100229816D01*
X95529816Y-100102262D01*
X95625789Y-99949522D01*
X95685368Y-99779255D01*
X95685369Y-99779249D01*
X95705565Y-99600003D01*
X95705565Y-99599996D01*
X95685369Y-99420750D01*
X95685366Y-99420737D01*
X95625790Y-99250481D01*
X95625789Y-99250478D01*
X95590756Y-99194723D01*
X95569506Y-99160903D01*
X95550500Y-99094931D01*
X95550500Y-97361749D01*
X95570185Y-97294710D01*
X95622989Y-97248955D01*
X95692147Y-97239011D01*
X95745621Y-97260172D01*
X95879670Y-97354035D01*
X96093837Y-97453903D01*
X96322092Y-97515063D01*
X96510418Y-97531539D01*
X96557499Y-97535659D01*
X96557500Y-97535659D01*
X96557501Y-97535659D01*
X96596734Y-97532226D01*
X96792908Y-97515063D01*
X97021163Y-97453903D01*
X97177984Y-97380775D01*
X97247060Y-97370284D01*
X97310845Y-97398804D01*
X97333488Y-97424264D01*
X97380569Y-97494727D01*
X97392226Y-97512173D01*
X98385326Y-98505273D01*
X98385329Y-98505275D01*
X98385331Y-98505277D01*
X98491873Y-98576465D01*
X98610256Y-98625501D01*
X98610260Y-98625501D01*
X98610261Y-98625502D01*
X98735928Y-98650500D01*
X98735931Y-98650500D01*
X98994932Y-98650500D01*
X99060904Y-98669506D01*
X99150477Y-98725789D01*
X99150481Y-98725790D01*
X99320737Y-98785366D01*
X99320743Y-98785367D01*
X99320745Y-98785368D01*
X99320746Y-98785368D01*
X99320750Y-98785369D01*
X99499996Y-98805565D01*
X99500000Y-98805565D01*
X99500004Y-98805565D01*
X99679249Y-98785369D01*
X99679252Y-98785368D01*
X99679255Y-98785368D01*
X99849522Y-98725789D01*
X100002262Y-98629816D01*
X100129816Y-98502262D01*
X100225789Y-98349522D01*
X100285368Y-98179255D01*
X100305565Y-98000000D01*
X100299007Y-97941798D01*
X100285369Y-97820750D01*
X100285368Y-97820745D01*
X100277218Y-97797454D01*
X100225789Y-97650478D01*
X100148203Y-97527001D01*
X100129204Y-97459767D01*
X100149571Y-97392931D01*
X100165517Y-97373349D01*
X100166150Y-97372715D01*
X100166156Y-97372712D01*
X100290212Y-97248656D01*
X100382314Y-97099334D01*
X100437499Y-96932797D01*
X100448000Y-96830009D01*
X100447999Y-96819928D01*
X100467678Y-96752891D01*
X100520479Y-96707133D01*
X100589637Y-96697184D01*
X100653195Y-96726204D01*
X100676992Y-96753950D01*
X100730493Y-96839094D01*
X100749500Y-96905067D01*
X100749500Y-104164071D01*
X100772560Y-104279996D01*
X100774497Y-104289738D01*
X100774501Y-104289749D01*
X100823532Y-104408123D01*
X100823535Y-104408127D01*
X100893842Y-104513351D01*
X100894726Y-104514673D01*
X103385325Y-107005272D01*
X103385331Y-107005277D01*
X103491874Y-107076466D01*
X103561221Y-107105189D01*
X103610256Y-107125501D01*
X103610259Y-107125501D01*
X103610260Y-107125502D01*
X103735928Y-107150500D01*
X103735931Y-107150500D01*
X129648040Y-107150500D01*
X129732584Y-107133682D01*
X129773713Y-107125501D01*
X129892096Y-107076465D01*
X129900172Y-107071068D01*
X129902206Y-107069710D01*
X129950421Y-107037494D01*
X129998638Y-107005277D01*
X131596919Y-105406994D01*
X131658240Y-105373511D01*
X131727931Y-105378495D01*
X131755721Y-105393102D01*
X131828088Y-105443774D01*
X131828090Y-105443775D01*
X131828093Y-105443777D01*
X132040389Y-105542772D01*
X132040395Y-105542773D01*
X132040396Y-105542774D01*
X132076836Y-105552538D01*
X132266649Y-105603398D01*
X132453329Y-105619730D01*
X132499999Y-105623814D01*
X132500000Y-105623814D01*
X132500001Y-105623814D01*
X132546668Y-105619731D01*
X132733351Y-105603398D01*
X132959611Y-105542772D01*
X133171907Y-105443777D01*
X133363787Y-105309421D01*
X133529421Y-105143787D01*
X133663777Y-104951907D01*
X133663777Y-104951905D01*
X133666882Y-104947472D01*
X133668323Y-104948481D01*
X133713172Y-104905712D01*
X133781778Y-104892484D01*
X133846645Y-104918447D01*
X133872294Y-104948048D01*
X133873118Y-104947472D01*
X133876222Y-104951905D01*
X133876223Y-104951907D01*
X134010579Y-105143787D01*
X134176213Y-105309421D01*
X134368093Y-105443777D01*
X134580389Y-105542772D01*
X134580395Y-105542773D01*
X134580396Y-105542774D01*
X134616836Y-105552538D01*
X134806649Y-105603398D01*
X134993329Y-105619730D01*
X135039999Y-105623814D01*
X135040000Y-105623814D01*
X135040001Y-105623814D01*
X135086668Y-105619731D01*
X135273351Y-105603398D01*
X135499611Y-105542772D01*
X135711907Y-105443777D01*
X135903787Y-105309421D01*
X136069421Y-105143787D01*
X136203777Y-104951907D01*
X136203777Y-104951905D01*
X136206882Y-104947472D01*
X136208323Y-104948481D01*
X136253172Y-104905712D01*
X136321778Y-104892484D01*
X136386645Y-104918447D01*
X136412294Y-104948048D01*
X136413118Y-104947472D01*
X136416222Y-104951905D01*
X136416223Y-104951907D01*
X136550579Y-105143787D01*
X136716213Y-105309421D01*
X136908093Y-105443777D01*
X137120389Y-105542772D01*
X137120395Y-105542773D01*
X137120396Y-105542774D01*
X137156836Y-105552538D01*
X137346649Y-105603398D01*
X137533329Y-105619730D01*
X137579999Y-105623814D01*
X137580000Y-105623814D01*
X137580001Y-105623814D01*
X137626668Y-105619731D01*
X137813351Y-105603398D01*
X138039611Y-105542772D01*
X138251907Y-105443777D01*
X138443787Y-105309421D01*
X138609421Y-105143787D01*
X138743777Y-104951907D01*
X138743777Y-104951905D01*
X138746882Y-104947472D01*
X138748323Y-104948481D01*
X138793172Y-104905712D01*
X138861778Y-104892484D01*
X138926645Y-104918447D01*
X138952294Y-104948048D01*
X138953118Y-104947472D01*
X138956222Y-104951905D01*
X138956223Y-104951907D01*
X139090579Y-105143787D01*
X139256213Y-105309421D01*
X139448093Y-105443777D01*
X139660389Y-105542772D01*
X139660395Y-105542773D01*
X139660396Y-105542774D01*
X139696836Y-105552538D01*
X139886649Y-105603398D01*
X140073329Y-105619730D01*
X140119999Y-105623814D01*
X140120000Y-105623814D01*
X140120001Y-105623814D01*
X140166668Y-105619731D01*
X140353351Y-105603398D01*
X140579611Y-105542772D01*
X140791907Y-105443777D01*
X140983787Y-105309421D01*
X141149421Y-105143787D01*
X141283777Y-104951907D01*
X141382772Y-104739611D01*
X141443398Y-104513351D01*
X141463814Y-104280000D01*
X141443398Y-104046649D01*
X141382772Y-103820389D01*
X141283777Y-103608093D01*
X141149421Y-103416213D01*
X140983787Y-103250579D01*
X140791907Y-103116223D01*
X140791905Y-103116222D01*
X140787472Y-103113118D01*
X140788481Y-103111676D01*
X140745712Y-103066828D01*
X140732484Y-102998222D01*
X140758447Y-102933355D01*
X140788048Y-102907705D01*
X140787472Y-102906882D01*
X140791905Y-102903777D01*
X140791907Y-102903777D01*
X140983787Y-102769421D01*
X141149421Y-102603787D01*
X141283777Y-102411907D01*
X141382772Y-102199611D01*
X141443398Y-101973351D01*
X141463814Y-101740000D01*
X141443398Y-101506649D01*
X141382772Y-101280389D01*
X141283777Y-101068093D01*
X141149421Y-100876213D01*
X140983787Y-100710579D01*
X140791907Y-100576223D01*
X140791905Y-100576222D01*
X140787472Y-100573118D01*
X140788481Y-100571676D01*
X140745712Y-100526828D01*
X140732484Y-100458222D01*
X140758447Y-100393355D01*
X140788048Y-100367705D01*
X140787472Y-100366882D01*
X140791905Y-100363777D01*
X140791907Y-100363777D01*
X140983787Y-100229421D01*
X141149421Y-100063787D01*
X141283777Y-99871907D01*
X141382772Y-99659611D01*
X141443398Y-99433351D01*
X141463814Y-99200000D01*
X141443398Y-98966649D01*
X141382772Y-98740389D01*
X141283777Y-98528093D01*
X141149421Y-98336213D01*
X140983787Y-98170579D01*
X140791907Y-98036223D01*
X140791905Y-98036222D01*
X140787472Y-98033118D01*
X140788481Y-98031676D01*
X140745712Y-97986828D01*
X140732484Y-97918222D01*
X140758447Y-97853355D01*
X140788048Y-97827705D01*
X140787472Y-97826882D01*
X140791905Y-97823777D01*
X140791907Y-97823777D01*
X140983787Y-97689421D01*
X141149421Y-97523787D01*
X141283777Y-97331907D01*
X141382772Y-97119611D01*
X141443398Y-96893351D01*
X141463814Y-96660000D01*
X141443398Y-96426649D01*
X141382772Y-96200389D01*
X141283777Y-95988093D01*
X141149421Y-95796213D01*
X140983787Y-95630579D01*
X140791907Y-95496223D01*
X140791905Y-95496222D01*
X140787472Y-95493118D01*
X140788481Y-95491676D01*
X140745712Y-95446828D01*
X140732484Y-95378222D01*
X140758447Y-95313355D01*
X140788048Y-95287705D01*
X140787472Y-95286882D01*
X140791905Y-95283777D01*
X140791907Y-95283777D01*
X140983787Y-95149421D01*
X141149421Y-94983787D01*
X141283777Y-94791907D01*
X141382772Y-94579611D01*
X141443398Y-94353351D01*
X141463814Y-94120000D01*
X141443398Y-93886649D01*
X141382772Y-93660389D01*
X141283777Y-93448093D01*
X141149421Y-93256213D01*
X140983787Y-93090579D01*
X140791907Y-92956223D01*
X140791905Y-92956222D01*
X140787472Y-92953118D01*
X140788481Y-92951676D01*
X140745712Y-92906828D01*
X140732484Y-92838222D01*
X140758447Y-92773355D01*
X140788048Y-92747705D01*
X140787472Y-92746882D01*
X140791905Y-92743777D01*
X140791907Y-92743777D01*
X140983787Y-92609421D01*
X141149421Y-92443787D01*
X141283777Y-92251907D01*
X141382772Y-92039611D01*
X141443398Y-91813351D01*
X141463814Y-91580000D01*
X141443398Y-91346649D01*
X141382772Y-91120389D01*
X141283777Y-90908093D01*
X141149421Y-90716213D01*
X140983787Y-90550579D01*
X140791907Y-90416223D01*
X140791905Y-90416222D01*
X140787472Y-90413118D01*
X140788481Y-90411676D01*
X140745712Y-90366828D01*
X140732484Y-90298222D01*
X140758447Y-90233355D01*
X140788048Y-90207705D01*
X140787472Y-90206882D01*
X140791905Y-90203777D01*
X140791907Y-90203777D01*
X140983787Y-90069421D01*
X141149421Y-89903787D01*
X141283777Y-89711907D01*
X141382772Y-89499611D01*
X141443398Y-89273351D01*
X141463814Y-89040000D01*
X141443398Y-88806649D01*
X141382772Y-88580389D01*
X141283777Y-88368093D01*
X141149421Y-88176213D01*
X140983787Y-88010579D01*
X140791907Y-87876223D01*
X140791905Y-87876222D01*
X140787472Y-87873118D01*
X140788481Y-87871676D01*
X140745712Y-87826828D01*
X140732484Y-87758222D01*
X140758447Y-87693355D01*
X140788048Y-87667705D01*
X140787472Y-87666882D01*
X140791905Y-87663777D01*
X140791907Y-87663777D01*
X140983787Y-87529421D01*
X141149421Y-87363787D01*
X141283777Y-87171907D01*
X141382772Y-86959611D01*
X141443398Y-86733351D01*
X141463814Y-86500000D01*
X141443398Y-86266649D01*
X141382772Y-86040389D01*
X141283777Y-85828093D01*
X141149421Y-85636213D01*
X140983787Y-85470579D01*
X140791907Y-85336223D01*
X140791905Y-85336222D01*
X140787472Y-85333118D01*
X140788481Y-85331676D01*
X140745712Y-85286828D01*
X140732484Y-85218222D01*
X140758447Y-85153355D01*
X140788048Y-85127705D01*
X140787472Y-85126882D01*
X140791905Y-85123777D01*
X140791907Y-85123777D01*
X140983787Y-84989421D01*
X141149421Y-84823787D01*
X141283777Y-84631907D01*
X141382772Y-84419611D01*
X141443398Y-84193351D01*
X141463814Y-83960000D01*
X141443398Y-83726649D01*
X141382772Y-83500389D01*
X141283777Y-83288093D01*
X141149421Y-83096213D01*
X140983787Y-82930579D01*
X140791907Y-82796223D01*
X140791905Y-82796222D01*
X140787472Y-82793118D01*
X140788481Y-82791676D01*
X140745712Y-82746828D01*
X140732484Y-82678222D01*
X140758447Y-82613355D01*
X140788048Y-82587705D01*
X140787472Y-82586882D01*
X140791905Y-82583777D01*
X140791907Y-82583777D01*
X140983787Y-82449421D01*
X141149421Y-82283787D01*
X141283777Y-82091907D01*
X141382772Y-81879611D01*
X141443398Y-81653351D01*
X141463814Y-81420000D01*
X141443398Y-81186649D01*
X141382772Y-80960389D01*
X141283777Y-80748093D01*
X141149421Y-80556213D01*
X140983787Y-80390579D01*
X140791907Y-80256223D01*
X140791905Y-80256222D01*
X140787472Y-80253118D01*
X140788481Y-80251676D01*
X140745712Y-80206828D01*
X140732484Y-80138222D01*
X140758447Y-80073355D01*
X140788048Y-80047705D01*
X140787472Y-80046882D01*
X140791905Y-80043777D01*
X140791907Y-80043777D01*
X140983787Y-79909421D01*
X141149421Y-79743787D01*
X141283777Y-79551907D01*
X141382772Y-79339611D01*
X141443398Y-79113351D01*
X141463814Y-78880000D01*
X141443398Y-78646649D01*
X141382772Y-78420389D01*
X141283777Y-78208093D01*
X141149421Y-78016213D01*
X140983787Y-77850579D01*
X140791907Y-77716223D01*
X140791905Y-77716222D01*
X140787472Y-77713118D01*
X140788481Y-77711676D01*
X140745712Y-77666828D01*
X140732484Y-77598222D01*
X140758447Y-77533355D01*
X140788048Y-77507705D01*
X140787472Y-77506882D01*
X140791905Y-77503777D01*
X140791907Y-77503777D01*
X140983787Y-77369421D01*
X141149421Y-77203787D01*
X141283777Y-77011907D01*
X141382772Y-76799611D01*
X141443398Y-76573351D01*
X141463814Y-76340000D01*
X141462708Y-76327364D01*
X141452351Y-76208983D01*
X141443398Y-76106649D01*
X141382772Y-75880389D01*
X141283777Y-75668093D01*
X141149421Y-75476213D01*
X140983787Y-75310579D01*
X140791907Y-75176223D01*
X140791905Y-75176222D01*
X140787472Y-75173118D01*
X140788481Y-75171676D01*
X140745712Y-75126828D01*
X140732484Y-75058222D01*
X140758447Y-74993355D01*
X140788048Y-74967705D01*
X140787472Y-74966882D01*
X140791905Y-74963777D01*
X140791907Y-74963777D01*
X140983787Y-74829421D01*
X141149421Y-74663787D01*
X141283777Y-74471907D01*
X141382772Y-74259611D01*
X141443398Y-74033351D01*
X141463814Y-73800000D01*
X141443398Y-73566649D01*
X141382772Y-73340389D01*
X141283777Y-73128093D01*
X141149421Y-72936213D01*
X140983787Y-72770579D01*
X140791907Y-72636223D01*
X140791905Y-72636222D01*
X140787472Y-72633118D01*
X140788481Y-72631676D01*
X140745712Y-72586828D01*
X140732484Y-72518222D01*
X140758447Y-72453355D01*
X140788048Y-72427705D01*
X140787472Y-72426882D01*
X140791905Y-72423777D01*
X140791907Y-72423777D01*
X140983787Y-72289421D01*
X141149421Y-72123787D01*
X141283777Y-71931907D01*
X141382772Y-71719611D01*
X141443398Y-71493351D01*
X141463814Y-71260000D01*
X141443398Y-71026649D01*
X141382772Y-70800389D01*
X141283777Y-70588093D01*
X141149421Y-70396213D01*
X140983787Y-70230579D01*
X140791907Y-70096223D01*
X140791905Y-70096222D01*
X140787472Y-70093118D01*
X140788481Y-70091676D01*
X140745712Y-70046828D01*
X140732484Y-69978222D01*
X140758447Y-69913355D01*
X140788048Y-69887705D01*
X140787472Y-69886882D01*
X140791905Y-69883777D01*
X140791907Y-69883777D01*
X140983787Y-69749421D01*
X141149421Y-69583787D01*
X141283777Y-69391907D01*
X141382772Y-69179611D01*
X141443398Y-68953351D01*
X141463814Y-68720000D01*
X141443398Y-68486649D01*
X141382772Y-68260389D01*
X141283777Y-68048093D01*
X141149421Y-67856213D01*
X140983787Y-67690579D01*
X140791907Y-67556223D01*
X140791905Y-67556222D01*
X140787472Y-67553118D01*
X140788481Y-67551676D01*
X140745712Y-67506828D01*
X140732484Y-67438222D01*
X140758447Y-67373355D01*
X140788048Y-67347705D01*
X140787472Y-67346882D01*
X140791905Y-67343777D01*
X140791907Y-67343777D01*
X140983787Y-67209421D01*
X141149421Y-67043787D01*
X141283777Y-66851907D01*
X141382772Y-66639611D01*
X141443398Y-66413351D01*
X141463814Y-66180000D01*
X141443398Y-65946649D01*
X141382772Y-65720389D01*
X141283777Y-65508093D01*
X141149421Y-65316213D01*
X140983787Y-65150579D01*
X140791907Y-65016223D01*
X140579611Y-64917228D01*
X140579607Y-64917227D01*
X140579603Y-64917225D01*
X140353356Y-64856603D01*
X140353346Y-64856601D01*
X140120001Y-64836186D01*
X140119999Y-64836186D01*
X139886653Y-64856601D01*
X139886643Y-64856603D01*
X139660396Y-64917225D01*
X139660389Y-64917227D01*
X139660389Y-64917228D01*
X139448093Y-65016223D01*
X139256213Y-65150579D01*
X139256211Y-65150580D01*
X139256208Y-65150583D01*
X139090583Y-65316208D01*
X138953118Y-65512528D01*
X138951680Y-65511521D01*
X138906810Y-65554297D01*
X138838202Y-65567513D01*
X138773340Y-65541540D01*
X138747702Y-65511953D01*
X138746882Y-65512528D01*
X138743777Y-65508093D01*
X138609421Y-65316213D01*
X138443787Y-65150579D01*
X138251907Y-65016223D01*
X138039611Y-64917228D01*
X138039607Y-64917227D01*
X138039603Y-64917225D01*
X137813356Y-64856603D01*
X137813346Y-64856601D01*
X137580001Y-64836186D01*
X137579999Y-64836186D01*
X137346653Y-64856601D01*
X137346643Y-64856603D01*
X137120396Y-64917225D01*
X137120389Y-64917227D01*
X137120389Y-64917228D01*
X136908093Y-65016223D01*
X136716213Y-65150579D01*
X136716211Y-65150580D01*
X136716208Y-65150583D01*
X136550583Y-65316208D01*
X136416223Y-65508093D01*
X136317229Y-65720387D01*
X136317225Y-65720396D01*
X136256603Y-65946643D01*
X136256601Y-65946653D01*
X136236186Y-66179999D01*
X136236186Y-66180000D01*
X136256601Y-66413346D01*
X136256603Y-66413356D01*
X136317225Y-66639603D01*
X136317227Y-66639607D01*
X136317228Y-66639611D01*
X136416223Y-66851907D01*
X136550579Y-67043787D01*
X136716213Y-67209421D01*
X136908093Y-67343777D01*
X136908094Y-67343777D01*
X136912528Y-67346882D01*
X136911521Y-67348319D01*
X136954297Y-67393190D01*
X136967513Y-67461798D01*
X136941540Y-67526660D01*
X136911953Y-67552297D01*
X136912528Y-67553118D01*
X136908094Y-67556222D01*
X136908093Y-67556223D01*
X136716213Y-67690579D01*
X136716211Y-67690580D01*
X136716208Y-67690583D01*
X136550583Y-67856208D01*
X136550580Y-67856211D01*
X136550579Y-67856213D01*
X136416223Y-68048093D01*
X136364505Y-68159004D01*
X136317229Y-68260387D01*
X136317225Y-68260396D01*
X136256603Y-68486643D01*
X136256601Y-68486653D01*
X136236186Y-68719999D01*
X136236186Y-68720000D01*
X136256601Y-68953346D01*
X136256603Y-68953356D01*
X136317225Y-69179603D01*
X136317227Y-69179607D01*
X136317228Y-69179611D01*
X136416223Y-69391907D01*
X136550579Y-69583787D01*
X136716213Y-69749421D01*
X136908093Y-69883777D01*
X136908094Y-69883777D01*
X136912528Y-69886882D01*
X136911521Y-69888319D01*
X136954297Y-69933190D01*
X136967513Y-70001798D01*
X136941540Y-70066660D01*
X136911953Y-70092297D01*
X136912528Y-70093118D01*
X136908094Y-70096222D01*
X136908093Y-70096223D01*
X136716213Y-70230579D01*
X136716211Y-70230580D01*
X136716208Y-70230583D01*
X136550583Y-70396208D01*
X136550580Y-70396211D01*
X136550579Y-70396213D01*
X136416223Y-70588093D01*
X136363287Y-70701616D01*
X136317229Y-70800387D01*
X136317225Y-70800396D01*
X136256603Y-71026643D01*
X136256601Y-71026653D01*
X136236186Y-71259999D01*
X136236186Y-71260000D01*
X136256601Y-71493346D01*
X136256603Y-71493356D01*
X136317225Y-71719603D01*
X136317227Y-71719607D01*
X136317228Y-71719611D01*
X136416223Y-71931907D01*
X136550579Y-72123787D01*
X136716213Y-72289421D01*
X136908093Y-72423777D01*
X136908094Y-72423777D01*
X136912528Y-72426882D01*
X136911521Y-72428319D01*
X136954297Y-72473190D01*
X136967513Y-72541798D01*
X136941540Y-72606660D01*
X136911953Y-72632297D01*
X136912528Y-72633118D01*
X136908094Y-72636222D01*
X136908093Y-72636223D01*
X136716213Y-72770579D01*
X136716211Y-72770580D01*
X136716208Y-72770583D01*
X136550583Y-72936208D01*
X136550580Y-72936211D01*
X136550579Y-72936213D01*
X136469542Y-73051946D01*
X136416223Y-73128093D01*
X136317229Y-73340387D01*
X136317225Y-73340396D01*
X136256603Y-73566643D01*
X136256601Y-73566653D01*
X136236186Y-73799999D01*
X136236186Y-73800000D01*
X136256601Y-74033346D01*
X136256603Y-74033356D01*
X136317225Y-74259603D01*
X136317227Y-74259607D01*
X136317228Y-74259611D01*
X136416223Y-74471907D01*
X136550579Y-74663787D01*
X136716213Y-74829421D01*
X136908093Y-74963777D01*
X136908094Y-74963777D01*
X136912528Y-74966882D01*
X136911521Y-74968319D01*
X136954297Y-75013190D01*
X136967513Y-75081798D01*
X136941540Y-75146660D01*
X136911953Y-75172297D01*
X136912528Y-75173118D01*
X136908094Y-75176222D01*
X136908093Y-75176223D01*
X136716213Y-75310579D01*
X136716211Y-75310580D01*
X136716208Y-75310583D01*
X136550583Y-75476208D01*
X136416223Y-75668093D01*
X136317229Y-75880387D01*
X136317225Y-75880396D01*
X136256603Y-76106643D01*
X136256601Y-76106653D01*
X136236186Y-76339999D01*
X136236186Y-76340000D01*
X136256601Y-76573346D01*
X136256603Y-76573356D01*
X136317225Y-76799603D01*
X136317227Y-76799607D01*
X136317228Y-76799611D01*
X136416223Y-77011907D01*
X136550579Y-77203787D01*
X136716213Y-77369421D01*
X136908093Y-77503777D01*
X136908094Y-77503777D01*
X136912528Y-77506882D01*
X136911521Y-77508319D01*
X136954297Y-77553190D01*
X136967513Y-77621798D01*
X136941540Y-77686660D01*
X136911953Y-77712297D01*
X136912528Y-77713118D01*
X136908094Y-77716222D01*
X136908093Y-77716223D01*
X136716213Y-77850579D01*
X136716211Y-77850580D01*
X136716208Y-77850583D01*
X136550583Y-78016208D01*
X136416223Y-78208093D01*
X136317229Y-78420387D01*
X136317225Y-78420396D01*
X136256603Y-78646643D01*
X136256601Y-78646653D01*
X136236186Y-78879999D01*
X136236186Y-78880000D01*
X136256601Y-79113346D01*
X136256603Y-79113356D01*
X136317225Y-79339603D01*
X136317227Y-79339607D01*
X136317228Y-79339611D01*
X136416223Y-79551907D01*
X136550579Y-79743787D01*
X136716213Y-79909421D01*
X136908093Y-80043777D01*
X136908094Y-80043777D01*
X136912528Y-80046882D01*
X136911521Y-80048319D01*
X136954297Y-80093190D01*
X136967513Y-80161798D01*
X136941540Y-80226660D01*
X136911953Y-80252297D01*
X136912528Y-80253118D01*
X136908094Y-80256222D01*
X136908093Y-80256223D01*
X136716213Y-80390579D01*
X136716211Y-80390580D01*
X136716208Y-80390583D01*
X136550583Y-80556208D01*
X136550580Y-80556211D01*
X136550579Y-80556213D01*
X136473671Y-80666049D01*
X136416223Y-80748093D01*
X136317229Y-80960387D01*
X136317225Y-80960396D01*
X136256603Y-81186643D01*
X136256601Y-81186653D01*
X136236186Y-81419999D01*
X136236186Y-81420000D01*
X136256601Y-81653346D01*
X136256603Y-81653356D01*
X136317225Y-81879603D01*
X136317227Y-81879607D01*
X136317228Y-81879611D01*
X136416223Y-82091907D01*
X136550579Y-82283787D01*
X136716213Y-82449421D01*
X136908093Y-82583777D01*
X136908094Y-82583777D01*
X136912528Y-82586882D01*
X136911521Y-82588319D01*
X136954297Y-82633190D01*
X136967513Y-82701798D01*
X136941540Y-82766660D01*
X136911953Y-82792297D01*
X136912528Y-82793118D01*
X136908094Y-82796222D01*
X136908093Y-82796223D01*
X136716213Y-82930579D01*
X136716211Y-82930580D01*
X136716208Y-82930583D01*
X136550583Y-83096208D01*
X136416223Y-83288093D01*
X136317229Y-83500387D01*
X136317225Y-83500396D01*
X136256603Y-83726643D01*
X136256601Y-83726653D01*
X136236186Y-83959999D01*
X136236186Y-83960000D01*
X136256601Y-84193346D01*
X136256603Y-84193356D01*
X136317225Y-84419603D01*
X136317227Y-84419607D01*
X136317228Y-84419611D01*
X136416223Y-84631907D01*
X136550579Y-84823787D01*
X136716213Y-84989421D01*
X136908093Y-85123777D01*
X136908094Y-85123777D01*
X136912528Y-85126882D01*
X136911521Y-85128319D01*
X136954297Y-85173190D01*
X136967513Y-85241798D01*
X136941540Y-85306660D01*
X136911953Y-85332297D01*
X136912528Y-85333118D01*
X136908094Y-85336222D01*
X136908093Y-85336223D01*
X136716213Y-85470579D01*
X136716211Y-85470580D01*
X136716208Y-85470583D01*
X136550583Y-85636208D01*
X136416223Y-85828093D01*
X136317229Y-86040387D01*
X136317225Y-86040396D01*
X136256603Y-86266643D01*
X136256601Y-86266653D01*
X136236186Y-86499999D01*
X136236186Y-86500000D01*
X136256601Y-86733346D01*
X136256603Y-86733356D01*
X136317225Y-86959603D01*
X136317227Y-86959607D01*
X136317228Y-86959611D01*
X136416223Y-87171907D01*
X136550579Y-87363787D01*
X136716213Y-87529421D01*
X136908093Y-87663777D01*
X136908094Y-87663777D01*
X136912528Y-87666882D01*
X136911521Y-87668319D01*
X136954297Y-87713190D01*
X136967513Y-87781798D01*
X136941540Y-87846660D01*
X136911953Y-87872297D01*
X136912528Y-87873118D01*
X136908094Y-87876222D01*
X136908093Y-87876223D01*
X136716213Y-88010579D01*
X136716211Y-88010580D01*
X136716208Y-88010583D01*
X136550583Y-88176208D01*
X136416223Y-88368093D01*
X136317229Y-88580387D01*
X136317225Y-88580396D01*
X136256603Y-88806643D01*
X136256601Y-88806653D01*
X136236186Y-89039999D01*
X136236186Y-89040000D01*
X136256601Y-89273346D01*
X136256603Y-89273356D01*
X136317225Y-89499603D01*
X136317227Y-89499607D01*
X136317228Y-89499611D01*
X136416223Y-89711907D01*
X136550579Y-89903787D01*
X136716213Y-90069421D01*
X136908093Y-90203777D01*
X136908094Y-90203777D01*
X136912528Y-90206882D01*
X136911521Y-90208319D01*
X136954297Y-90253190D01*
X136967513Y-90321798D01*
X136941540Y-90386660D01*
X136911953Y-90412297D01*
X136912528Y-90413118D01*
X136908094Y-90416222D01*
X136908093Y-90416223D01*
X136716213Y-90550579D01*
X136716211Y-90550580D01*
X136716208Y-90550583D01*
X136550583Y-90716208D01*
X136416223Y-90908093D01*
X136317229Y-91120387D01*
X136317225Y-91120396D01*
X136256603Y-91346643D01*
X136256601Y-91346653D01*
X136236186Y-91579999D01*
X136236186Y-91580000D01*
X136256601Y-91813346D01*
X136256603Y-91813356D01*
X136317225Y-92039603D01*
X136317227Y-92039607D01*
X136317228Y-92039611D01*
X136416223Y-92251907D01*
X136550579Y-92443787D01*
X136716213Y-92609421D01*
X136908093Y-92743777D01*
X136908094Y-92743777D01*
X136912528Y-92746882D01*
X136911521Y-92748319D01*
X136954297Y-92793190D01*
X136967513Y-92861798D01*
X136941540Y-92926660D01*
X136911953Y-92952297D01*
X136912528Y-92953118D01*
X136908094Y-92956222D01*
X136908093Y-92956223D01*
X136716213Y-93090579D01*
X136716211Y-93090580D01*
X136716208Y-93090583D01*
X136550583Y-93256208D01*
X136416223Y-93448093D01*
X136317229Y-93660387D01*
X136317225Y-93660396D01*
X136256603Y-93886643D01*
X136256601Y-93886653D01*
X136236186Y-94119999D01*
X136236186Y-94120000D01*
X136256601Y-94353346D01*
X136256603Y-94353356D01*
X136317225Y-94579603D01*
X136317227Y-94579607D01*
X136317228Y-94579611D01*
X136416223Y-94791907D01*
X136550579Y-94983787D01*
X136716213Y-95149421D01*
X136908093Y-95283777D01*
X136908094Y-95283777D01*
X136912528Y-95286882D01*
X136911521Y-95288319D01*
X136954297Y-95333190D01*
X136967513Y-95401798D01*
X136941540Y-95466660D01*
X136911953Y-95492297D01*
X136912528Y-95493118D01*
X136908094Y-95496222D01*
X136908093Y-95496223D01*
X136716213Y-95630579D01*
X136716211Y-95630580D01*
X136716208Y-95630583D01*
X136550583Y-95796208D01*
X136550580Y-95796211D01*
X136550579Y-95796213D01*
X136416223Y-95988093D01*
X136363287Y-96101616D01*
X136317229Y-96200387D01*
X136317225Y-96200396D01*
X136256603Y-96426643D01*
X136256601Y-96426653D01*
X136236186Y-96659999D01*
X136236186Y-96660000D01*
X136256601Y-96893346D01*
X136256603Y-96893356D01*
X136317225Y-97119603D01*
X136317227Y-97119607D01*
X136317228Y-97119611D01*
X136416223Y-97331907D01*
X136550579Y-97523787D01*
X136716213Y-97689421D01*
X136908093Y-97823777D01*
X136908094Y-97823777D01*
X136912528Y-97826882D01*
X136911521Y-97828319D01*
X136954297Y-97873190D01*
X136967513Y-97941798D01*
X136941540Y-98006660D01*
X136911953Y-98032297D01*
X136912528Y-98033118D01*
X136908094Y-98036222D01*
X136908093Y-98036223D01*
X136716213Y-98170579D01*
X136716211Y-98170580D01*
X136716208Y-98170583D01*
X136550583Y-98336208D01*
X136550580Y-98336211D01*
X136550579Y-98336213D01*
X136416223Y-98528093D01*
X136370802Y-98625500D01*
X136317229Y-98740387D01*
X136317225Y-98740396D01*
X136256603Y-98966643D01*
X136256601Y-98966653D01*
X136236186Y-99199999D01*
X136236186Y-99200000D01*
X136256601Y-99433346D01*
X136256603Y-99433356D01*
X136317225Y-99659603D01*
X136317227Y-99659607D01*
X136317228Y-99659611D01*
X136416223Y-99871907D01*
X136550579Y-100063787D01*
X136716213Y-100229421D01*
X136908093Y-100363777D01*
X136908094Y-100363777D01*
X136912528Y-100366882D01*
X136911521Y-100368319D01*
X136954297Y-100413190D01*
X136967513Y-100481798D01*
X136941540Y-100546660D01*
X136911953Y-100572297D01*
X136912528Y-100573118D01*
X136908094Y-100576222D01*
X136908093Y-100576223D01*
X136716213Y-100710579D01*
X136716211Y-100710580D01*
X136716208Y-100710583D01*
X136550583Y-100876208D01*
X136550580Y-100876211D01*
X136550579Y-100876213D01*
X136416223Y-101068093D01*
X136413118Y-101072528D01*
X136411680Y-101071521D01*
X136366810Y-101114297D01*
X136298202Y-101127513D01*
X136233340Y-101101540D01*
X136207702Y-101071953D01*
X136206882Y-101072528D01*
X136203777Y-101068093D01*
X136069421Y-100876213D01*
X135903787Y-100710579D01*
X135711907Y-100576223D01*
X135499611Y-100477228D01*
X135499607Y-100477227D01*
X135499603Y-100477225D01*
X135273356Y-100416603D01*
X135273346Y-100416601D01*
X135040001Y-100396186D01*
X135039999Y-100396186D01*
X134806653Y-100416601D01*
X134806643Y-100416603D01*
X134580396Y-100477225D01*
X134580389Y-100477227D01*
X134580389Y-100477228D01*
X134368093Y-100576223D01*
X134176213Y-100710579D01*
X134176211Y-100710580D01*
X134176208Y-100710583D01*
X134010583Y-100876208D01*
X134010580Y-100876211D01*
X134010579Y-100876213D01*
X133876223Y-101068093D01*
X133873118Y-101072528D01*
X133871680Y-101071521D01*
X133826810Y-101114297D01*
X133758202Y-101127513D01*
X133693340Y-101101540D01*
X133667702Y-101071953D01*
X133666882Y-101072528D01*
X133663777Y-101068093D01*
X133529421Y-100876213D01*
X133363787Y-100710579D01*
X133171907Y-100576223D01*
X132959611Y-100477228D01*
X132959607Y-100477227D01*
X132959603Y-100477225D01*
X132733356Y-100416603D01*
X132733346Y-100416601D01*
X132500001Y-100396186D01*
X132499999Y-100396186D01*
X132266653Y-100416601D01*
X132266643Y-100416603D01*
X132040396Y-100477225D01*
X132040389Y-100477227D01*
X132040389Y-100477228D01*
X131828093Y-100576223D01*
X131636213Y-100710579D01*
X131636211Y-100710580D01*
X131636208Y-100710583D01*
X131470583Y-100876208D01*
X131470580Y-100876211D01*
X131470579Y-100876213D01*
X131336223Y-101068093D01*
X131333118Y-101072528D01*
X131331680Y-101071521D01*
X131286810Y-101114297D01*
X131218202Y-101127513D01*
X131153340Y-101101540D01*
X131127702Y-101071953D01*
X131126882Y-101072528D01*
X131123777Y-101068093D01*
X130989421Y-100876213D01*
X130823787Y-100710579D01*
X130631907Y-100576223D01*
X130419611Y-100477228D01*
X130419607Y-100477227D01*
X130419603Y-100477225D01*
X130193356Y-100416603D01*
X130193346Y-100416601D01*
X129960001Y-100396186D01*
X129959999Y-100396186D01*
X129726653Y-100416601D01*
X129726640Y-100416604D01*
X129661644Y-100434019D01*
X129591794Y-100432356D01*
X129541871Y-100401925D01*
X126634674Y-97494727D01*
X126634673Y-97494726D01*
X126634669Y-97494723D01*
X126528127Y-97423535D01*
X126484893Y-97405627D01*
X126409744Y-97374499D01*
X126409740Y-97374498D01*
X126403962Y-97373349D01*
X126400763Y-97372712D01*
X126400760Y-97372711D01*
X126400760Y-97372712D01*
X126284071Y-97349500D01*
X126284069Y-97349500D01*
X117705068Y-97349500D01*
X117639096Y-97330494D01*
X117549522Y-97274210D01*
X117549518Y-97274209D01*
X117379262Y-97214633D01*
X117379249Y-97214630D01*
X117200004Y-97194435D01*
X117199996Y-97194435D01*
X117020750Y-97214630D01*
X117020745Y-97214631D01*
X116850476Y-97274211D01*
X116697737Y-97370184D01*
X116570184Y-97497737D01*
X116474211Y-97650476D01*
X116414631Y-97820745D01*
X116414630Y-97820750D01*
X116394435Y-97999996D01*
X116394435Y-98000003D01*
X116414630Y-98179249D01*
X116414631Y-98179254D01*
X116474211Y-98349523D01*
X116570184Y-98502262D01*
X116697738Y-98629816D01*
X116850478Y-98725789D01*
X116959876Y-98764069D01*
X117020745Y-98785368D01*
X117020750Y-98785369D01*
X117170840Y-98802280D01*
X117197366Y-98813426D01*
X117208108Y-98806523D01*
X117229160Y-98802280D01*
X117379249Y-98785369D01*
X117379251Y-98785368D01*
X117379255Y-98785368D01*
X117379258Y-98785366D01*
X117379262Y-98785366D01*
X117469377Y-98753832D01*
X117549522Y-98725789D01*
X117639096Y-98669505D01*
X117705068Y-98650500D01*
X125899192Y-98650500D01*
X125966231Y-98670185D01*
X125986873Y-98686819D01*
X128621925Y-101321871D01*
X128655410Y-101383194D01*
X128654019Y-101441644D01*
X128636604Y-101506640D01*
X128636601Y-101506653D01*
X128616186Y-101739999D01*
X128616186Y-101740000D01*
X128636601Y-101973346D01*
X128636603Y-101973356D01*
X128697225Y-102199603D01*
X128697227Y-102199607D01*
X128697228Y-102199611D01*
X128796223Y-102411907D01*
X128930579Y-102603787D01*
X129096213Y-102769421D01*
X129288093Y-102903777D01*
X129288094Y-102903777D01*
X129292528Y-102906882D01*
X129291521Y-102908319D01*
X129334297Y-102953190D01*
X129347513Y-103021798D01*
X129321540Y-103086660D01*
X129291953Y-103112297D01*
X129292528Y-103113118D01*
X129288094Y-103116222D01*
X129288093Y-103116223D01*
X129096213Y-103250579D01*
X129096211Y-103250580D01*
X129096208Y-103250583D01*
X128930583Y-103416208D01*
X128930580Y-103416211D01*
X128930579Y-103416213D01*
X128817864Y-103577187D01*
X128796223Y-103608093D01*
X128697229Y-103820387D01*
X128697225Y-103820396D01*
X128636603Y-104046643D01*
X128636601Y-104046653D01*
X128616186Y-104279996D01*
X128636601Y-104513346D01*
X128636603Y-104513356D01*
X128697225Y-104739603D01*
X128697227Y-104739607D01*
X128697228Y-104739611D01*
X128796223Y-104951907D01*
X128930579Y-105143787D01*
X129096213Y-105309421D01*
X129288093Y-105443777D01*
X129422316Y-105506366D01*
X129474756Y-105552538D01*
X129493908Y-105619731D01*
X129473692Y-105686613D01*
X129457596Y-105706426D01*
X129350840Y-105813182D01*
X129289520Y-105846666D01*
X129263161Y-105849500D01*
X122594963Y-105849500D01*
X122527924Y-105829815D01*
X122482169Y-105777011D01*
X122472225Y-105707853D01*
X122501250Y-105644297D01*
X122560028Y-105606523D01*
X122573201Y-105603438D01*
X122573349Y-105603398D01*
X122573351Y-105603398D01*
X122799611Y-105542772D01*
X123011907Y-105443777D01*
X123203787Y-105309421D01*
X123369421Y-105143787D01*
X123481743Y-104983373D01*
X123536318Y-104939752D01*
X123583316Y-104930500D01*
X123884071Y-104930500D01*
X123968615Y-104913682D01*
X124009744Y-104905501D01*
X124128127Y-104856465D01*
X124158399Y-104836238D01*
X124234669Y-104785277D01*
X125005276Y-104014669D01*
X125076465Y-103908127D01*
X125125501Y-103789744D01*
X125128489Y-103774724D01*
X125150500Y-103664069D01*
X125150500Y-100635931D01*
X125150500Y-100635928D01*
X125125502Y-100510260D01*
X125125500Y-100510254D01*
X125105189Y-100461221D01*
X125105187Y-100461216D01*
X125076468Y-100391878D01*
X125076462Y-100391868D01*
X125005278Y-100285332D01*
X125005272Y-100285325D01*
X123914673Y-99194726D01*
X123818784Y-99130656D01*
X123808127Y-99123535D01*
X123786732Y-99114673D01*
X123689744Y-99074499D01*
X123689738Y-99074497D01*
X123564071Y-99049500D01*
X123564069Y-99049500D01*
X117243043Y-99049500D01*
X117200101Y-99036890D01*
X117178351Y-99047640D01*
X117156957Y-99049500D01*
X115820808Y-99049500D01*
X115753769Y-99029815D01*
X115733127Y-99013181D01*
X115186819Y-98466873D01*
X115153334Y-98405550D01*
X115150500Y-98379192D01*
X115150500Y-96620808D01*
X115170185Y-96553769D01*
X115186819Y-96533127D01*
X115933127Y-95786819D01*
X115994450Y-95753334D01*
X116020808Y-95750500D01*
X122794932Y-95750500D01*
X122860904Y-95769506D01*
X122950477Y-95825789D01*
X122950481Y-95825790D01*
X123120737Y-95885366D01*
X123120743Y-95885367D01*
X123120745Y-95885368D01*
X123120746Y-95885368D01*
X123120750Y-95885369D01*
X123299996Y-95905565D01*
X123300000Y-95905565D01*
X123300004Y-95905565D01*
X123479249Y-95885369D01*
X123479252Y-95885368D01*
X123479255Y-95885368D01*
X123649522Y-95825789D01*
X123802262Y-95729816D01*
X123929816Y-95602262D01*
X124025789Y-95449522D01*
X124085368Y-95279255D01*
X124085369Y-95279249D01*
X124105565Y-95100003D01*
X124105565Y-95099996D01*
X124085369Y-94920750D01*
X124085368Y-94920745D01*
X124076425Y-94895187D01*
X124025789Y-94750478D01*
X124022794Y-94745712D01*
X123929815Y-94597737D01*
X123802262Y-94470184D01*
X123649523Y-94374211D01*
X123479254Y-94314631D01*
X123479249Y-94314630D01*
X123300004Y-94294435D01*
X123299996Y-94294435D01*
X123120750Y-94314630D01*
X123120737Y-94314633D01*
X122950481Y-94374209D01*
X122950477Y-94374210D01*
X122860904Y-94430494D01*
X122794932Y-94449500D01*
X115635929Y-94449500D01*
X115510261Y-94474497D01*
X115510255Y-94474499D01*
X115391870Y-94523535D01*
X115285331Y-94594722D01*
X115285324Y-94594728D01*
X113994726Y-95885326D01*
X113941178Y-95965469D01*
X113923533Y-95991876D01*
X113874499Y-96110255D01*
X113874497Y-96110261D01*
X113849500Y-96235928D01*
X113849500Y-96235931D01*
X113849500Y-98764069D01*
X113859558Y-98814632D01*
X113874499Y-98889744D01*
X113923535Y-99008127D01*
X113967883Y-99074499D01*
X113994726Y-99114673D01*
X115085325Y-100205272D01*
X115085332Y-100205278D01*
X115191868Y-100276462D01*
X115191874Y-100276466D01*
X115261221Y-100305189D01*
X115310256Y-100325501D01*
X115310259Y-100325501D01*
X115310260Y-100325502D01*
X115435928Y-100350500D01*
X115435931Y-100350500D01*
X115564069Y-100350500D01*
X116517181Y-100350500D01*
X116584220Y-100370185D01*
X116629975Y-100422989D01*
X116639919Y-100492147D01*
X116610894Y-100555703D01*
X116588305Y-100576075D01*
X116588094Y-100576222D01*
X116588093Y-100576223D01*
X116396213Y-100710579D01*
X116396211Y-100710580D01*
X116396208Y-100710583D01*
X116230583Y-100876208D01*
X116230580Y-100876211D01*
X116230579Y-100876213D01*
X116129332Y-101020808D01*
X116096223Y-101068093D01*
X115997229Y-101280387D01*
X115997225Y-101280396D01*
X115936603Y-101506643D01*
X115936601Y-101506653D01*
X115916186Y-101739999D01*
X115916186Y-101740000D01*
X115936601Y-101973346D01*
X115936603Y-101973356D01*
X115997225Y-102199603D01*
X115997227Y-102199607D01*
X115997228Y-102199611D01*
X116096223Y-102411907D01*
X116230579Y-102603787D01*
X116396213Y-102769421D01*
X116588093Y-102903777D01*
X116588094Y-102903777D01*
X116592528Y-102906882D01*
X116591613Y-102908187D01*
X116634787Y-102953456D01*
X116648018Y-103022061D01*
X116622058Y-103086929D01*
X116592236Y-103112779D01*
X116592778Y-103113553D01*
X116507099Y-103173544D01*
X116507098Y-103173545D01*
X117213554Y-103880000D01*
X117207339Y-103880000D01*
X117105606Y-103907259D01*
X117014394Y-103959920D01*
X116939920Y-104034394D01*
X116887259Y-104125606D01*
X116860000Y-104227339D01*
X116860000Y-104233553D01*
X116153545Y-103527098D01*
X116153544Y-103527099D01*
X116096659Y-103608341D01*
X115997701Y-103820558D01*
X115997697Y-103820567D01*
X115937097Y-104046731D01*
X115937095Y-104046741D01*
X115916688Y-104279996D01*
X115916688Y-104280001D01*
X115937095Y-104513258D01*
X115937097Y-104513268D01*
X115997697Y-104739432D01*
X115997701Y-104739441D01*
X116096657Y-104951654D01*
X116096658Y-104951656D01*
X116153545Y-105032899D01*
X116153546Y-105032900D01*
X116860000Y-104326446D01*
X116860000Y-104332661D01*
X116887259Y-104434394D01*
X116939920Y-104525606D01*
X117014394Y-104600080D01*
X117105606Y-104652741D01*
X117207339Y-104680000D01*
X117213553Y-104680000D01*
X116507098Y-105386453D01*
X116588343Y-105443341D01*
X116588345Y-105443342D01*
X116800558Y-105542298D01*
X116800567Y-105542302D01*
X117026730Y-105602902D01*
X117029456Y-105603383D01*
X117030552Y-105603926D01*
X117031965Y-105604305D01*
X117031888Y-105604588D01*
X117092060Y-105634409D01*
X117127951Y-105694356D01*
X117125735Y-105764190D01*
X117086116Y-105821741D01*
X117021672Y-105848736D01*
X117007926Y-105849500D01*
X107354963Y-105849500D01*
X107287924Y-105829815D01*
X107242169Y-105777011D01*
X107232225Y-105707853D01*
X107261250Y-105644297D01*
X107320028Y-105606523D01*
X107333201Y-105603438D01*
X107333349Y-105603398D01*
X107333351Y-105603398D01*
X107559611Y-105542772D01*
X107771907Y-105443777D01*
X107963787Y-105309421D01*
X108129421Y-105143787D01*
X108263777Y-104951907D01*
X108362772Y-104739611D01*
X108423398Y-104513351D01*
X108443814Y-104280000D01*
X108423398Y-104046649D01*
X108362772Y-103820389D01*
X108263777Y-103608093D01*
X108129421Y-103416213D01*
X107963787Y-103250579D01*
X107771907Y-103116223D01*
X107771905Y-103116222D01*
X107767472Y-103113118D01*
X107768481Y-103111676D01*
X107725712Y-103066828D01*
X107712484Y-102998222D01*
X107738447Y-102933355D01*
X107768048Y-102907705D01*
X107767472Y-102906882D01*
X107771905Y-102903777D01*
X107771907Y-102903777D01*
X107963787Y-102769421D01*
X108129421Y-102603787D01*
X108263777Y-102411907D01*
X108362772Y-102199611D01*
X108423398Y-101973351D01*
X108443814Y-101740000D01*
X108423398Y-101506649D01*
X108362772Y-101280389D01*
X108263777Y-101068093D01*
X108129421Y-100876213D01*
X107963787Y-100710579D01*
X107771907Y-100576223D01*
X107771905Y-100576222D01*
X107767472Y-100573118D01*
X107768481Y-100571676D01*
X107725712Y-100526828D01*
X107712484Y-100458222D01*
X107738447Y-100393355D01*
X107768048Y-100367705D01*
X107767472Y-100366882D01*
X107771905Y-100363777D01*
X107771907Y-100363777D01*
X107963787Y-100229421D01*
X108129421Y-100063787D01*
X108263777Y-99871907D01*
X108362772Y-99659611D01*
X108423398Y-99433351D01*
X108443814Y-99200000D01*
X108423398Y-98966649D01*
X108362772Y-98740389D01*
X108263777Y-98528093D01*
X108129421Y-98336213D01*
X107963787Y-98170579D01*
X107771907Y-98036223D01*
X107771905Y-98036222D01*
X107767472Y-98033118D01*
X107768481Y-98031676D01*
X107725712Y-97986828D01*
X107712484Y-97918222D01*
X107738447Y-97853355D01*
X107768048Y-97827705D01*
X107767472Y-97826882D01*
X107771905Y-97823777D01*
X107771907Y-97823777D01*
X107963787Y-97689421D01*
X108129421Y-97523787D01*
X108263777Y-97331907D01*
X108362772Y-97119611D01*
X108423398Y-96893351D01*
X108443814Y-96660000D01*
X108423398Y-96426649D01*
X108362772Y-96200389D01*
X108263777Y-95988093D01*
X108129421Y-95796213D01*
X107963787Y-95630579D01*
X107771907Y-95496223D01*
X107771905Y-95496222D01*
X107767472Y-95493118D01*
X107768481Y-95491676D01*
X107725712Y-95446828D01*
X107712484Y-95378222D01*
X107738447Y-95313355D01*
X107768048Y-95287705D01*
X107767472Y-95286882D01*
X107771905Y-95283777D01*
X107771907Y-95283777D01*
X107963787Y-95149421D01*
X108129421Y-94983787D01*
X108263777Y-94791907D01*
X108362772Y-94579611D01*
X108423398Y-94353351D01*
X108443814Y-94120000D01*
X108423398Y-93886649D01*
X108362772Y-93660389D01*
X108263777Y-93448093D01*
X108129421Y-93256213D01*
X107963787Y-93090579D01*
X107771907Y-92956223D01*
X107771905Y-92956222D01*
X107767472Y-92953118D01*
X107768481Y-92951676D01*
X107725712Y-92906828D01*
X107712484Y-92838222D01*
X107738447Y-92773355D01*
X107768048Y-92747705D01*
X107767472Y-92746882D01*
X107771905Y-92743777D01*
X107771907Y-92743777D01*
X107963787Y-92609421D01*
X108129421Y-92443787D01*
X108263777Y-92251907D01*
X108362772Y-92039611D01*
X108423398Y-91813351D01*
X108443814Y-91580000D01*
X108423398Y-91346649D01*
X108420259Y-91334934D01*
X108421920Y-91265085D01*
X108461082Y-91207222D01*
X108525310Y-91179716D01*
X108594212Y-91191301D01*
X108606005Y-91197845D01*
X108650476Y-91225788D01*
X108650478Y-91225789D01*
X108715457Y-91248526D01*
X108820745Y-91285368D01*
X108820750Y-91285369D01*
X108999996Y-91305565D01*
X109000000Y-91305565D01*
X109000004Y-91305565D01*
X109179249Y-91285369D01*
X109179251Y-91285368D01*
X109179255Y-91285368D01*
X109179258Y-91285366D01*
X109179262Y-91285366D01*
X109284545Y-91248526D01*
X109354324Y-91244964D01*
X109414951Y-91279692D01*
X109447179Y-91341686D01*
X109449500Y-91365567D01*
X109449500Y-94966731D01*
X109430494Y-95032703D01*
X109374211Y-95122277D01*
X109374209Y-95122281D01*
X109314633Y-95292537D01*
X109314630Y-95292550D01*
X109294435Y-95471796D01*
X109294435Y-95471803D01*
X109314630Y-95651049D01*
X109314631Y-95651054D01*
X109374211Y-95821323D01*
X109414454Y-95885369D01*
X109470184Y-95974062D01*
X109597738Y-96101616D01*
X109750478Y-96197589D01*
X109835570Y-96227364D01*
X109920745Y-96257168D01*
X109920750Y-96257169D01*
X110099996Y-96277365D01*
X110100000Y-96277365D01*
X110100004Y-96277365D01*
X110279249Y-96257169D01*
X110279252Y-96257168D01*
X110279255Y-96257168D01*
X110449522Y-96197589D01*
X110602262Y-96101616D01*
X110729816Y-95974062D01*
X110825789Y-95821322D01*
X110885368Y-95651055D01*
X110890866Y-95602262D01*
X110905565Y-95471803D01*
X110905565Y-95471796D01*
X110885369Y-95292550D01*
X110885366Y-95292537D01*
X110825790Y-95122281D01*
X110825789Y-95122278D01*
X110804008Y-95087614D01*
X110769506Y-95032703D01*
X110750500Y-94966731D01*
X110750500Y-79435928D01*
X110725502Y-79310261D01*
X110725501Y-79310260D01*
X110725501Y-79310256D01*
X110676465Y-79191873D01*
X110639086Y-79135931D01*
X110639085Y-79135929D01*
X110639084Y-79135927D01*
X110616647Y-79102348D01*
X110605277Y-79085331D01*
X109728039Y-78208093D01*
X108614674Y-77094727D01*
X108614673Y-77094726D01*
X108515445Y-77028425D01*
X108508127Y-77023535D01*
X108508126Y-77023534D01*
X108508124Y-77023533D01*
X108418460Y-76986393D01*
X108364056Y-76942552D01*
X108341992Y-76876257D01*
X108353532Y-76819426D01*
X108362769Y-76799617D01*
X108362772Y-76799611D01*
X108423398Y-76573351D01*
X108443814Y-76340000D01*
X108442708Y-76327364D01*
X108432351Y-76208983D01*
X108423398Y-76106649D01*
X108362772Y-75880389D01*
X108263777Y-75668093D01*
X108129421Y-75476213D01*
X107963787Y-75310579D01*
X107771907Y-75176223D01*
X107771905Y-75176222D01*
X107767472Y-75173118D01*
X107768481Y-75171676D01*
X107725712Y-75126828D01*
X107712484Y-75058222D01*
X107738447Y-74993355D01*
X107768048Y-74967705D01*
X107767472Y-74966882D01*
X107771905Y-74963777D01*
X107771907Y-74963777D01*
X107963787Y-74829421D01*
X108129421Y-74663787D01*
X108263777Y-74471907D01*
X108362772Y-74259611D01*
X108423398Y-74033351D01*
X108443814Y-73800000D01*
X108423398Y-73566649D01*
X108362772Y-73340389D01*
X108263777Y-73128093D01*
X108129421Y-72936213D01*
X107963787Y-72770579D01*
X107771907Y-72636223D01*
X107771905Y-72636222D01*
X107767472Y-72633118D01*
X107768481Y-72631676D01*
X107725712Y-72586828D01*
X107712484Y-72518222D01*
X107738447Y-72453355D01*
X107768048Y-72427705D01*
X107767472Y-72426882D01*
X107771905Y-72423777D01*
X107771907Y-72423777D01*
X107963787Y-72289421D01*
X108129421Y-72123787D01*
X108263777Y-71931907D01*
X108362772Y-71719611D01*
X108423398Y-71493351D01*
X108443814Y-71260000D01*
X108423398Y-71026649D01*
X108362772Y-70800389D01*
X108263777Y-70588093D01*
X108129421Y-70396213D01*
X107963787Y-70230579D01*
X107771907Y-70096223D01*
X107771905Y-70096222D01*
X107767472Y-70093118D01*
X107768481Y-70091676D01*
X107725712Y-70046828D01*
X107712484Y-69978222D01*
X107738447Y-69913355D01*
X107768048Y-69887705D01*
X107767472Y-69886882D01*
X107771905Y-69883777D01*
X107771907Y-69883777D01*
X107963787Y-69749421D01*
X108129421Y-69583787D01*
X108263777Y-69391907D01*
X108362772Y-69179611D01*
X108423398Y-68953351D01*
X108443814Y-68720000D01*
X108423398Y-68486649D01*
X108362772Y-68260389D01*
X108263777Y-68048093D01*
X108129421Y-67856213D01*
X107963787Y-67690579D01*
X107771907Y-67556223D01*
X107771905Y-67556222D01*
X107767472Y-67553118D01*
X107768481Y-67551676D01*
X107725712Y-67506828D01*
X107712484Y-67438222D01*
X107738447Y-67373355D01*
X107768048Y-67347705D01*
X107767472Y-67346882D01*
X107771905Y-67343777D01*
X107771907Y-67343777D01*
X107963787Y-67209421D01*
X108129421Y-67043787D01*
X108263777Y-66851907D01*
X108362772Y-66639611D01*
X108423398Y-66413351D01*
X108443814Y-66180000D01*
X108423398Y-65946649D01*
X108362772Y-65720389D01*
X108263777Y-65508093D01*
X108129421Y-65316213D01*
X107963787Y-65150579D01*
X107771907Y-65016223D01*
X107771905Y-65016222D01*
X107767472Y-65013118D01*
X107768481Y-65011676D01*
X107725712Y-64966828D01*
X107712484Y-64898222D01*
X107738447Y-64833355D01*
X107768048Y-64807705D01*
X107767472Y-64806882D01*
X107771905Y-64803777D01*
X107771907Y-64803777D01*
X107963787Y-64669421D01*
X108129421Y-64503787D01*
X108263777Y-64311907D01*
X108362772Y-64099611D01*
X108423398Y-63873351D01*
X108443814Y-63640000D01*
X108423398Y-63406649D01*
X108362772Y-63180389D01*
X108263777Y-62968093D01*
X108129421Y-62776213D01*
X107963787Y-62610579D01*
X107771907Y-62476223D01*
X107771905Y-62476222D01*
X107767472Y-62473118D01*
X107768481Y-62471676D01*
X107725712Y-62426828D01*
X107712484Y-62358222D01*
X107738447Y-62293355D01*
X107768048Y-62267705D01*
X107767472Y-62266882D01*
X107771905Y-62263777D01*
X107771907Y-62263777D01*
X107963787Y-62129421D01*
X108129421Y-61963787D01*
X108263777Y-61771907D01*
X108362772Y-61559611D01*
X108423398Y-61333351D01*
X108443814Y-61100000D01*
X108423398Y-60866649D01*
X108362772Y-60640389D01*
X108263777Y-60428093D01*
X108129421Y-60236213D01*
X107963787Y-60070579D01*
X107771907Y-59936223D01*
X107771905Y-59936222D01*
X107767472Y-59933118D01*
X107768481Y-59931676D01*
X107725712Y-59886828D01*
X107712484Y-59818222D01*
X107738447Y-59753355D01*
X107768048Y-59727705D01*
X107767472Y-59726882D01*
X107771905Y-59723777D01*
X107771907Y-59723777D01*
X107963787Y-59589421D01*
X108129421Y-59423787D01*
X108241743Y-59263373D01*
X108296318Y-59219752D01*
X108343316Y-59210500D01*
X110394932Y-59210500D01*
X110460904Y-59229506D01*
X110550477Y-59285789D01*
X110550481Y-59285790D01*
X110720737Y-59345366D01*
X110720743Y-59345367D01*
X110720745Y-59345368D01*
X110720746Y-59345368D01*
X110720750Y-59345369D01*
X110899996Y-59365565D01*
X110900000Y-59365565D01*
X110900004Y-59365565D01*
X111079249Y-59345369D01*
X111079252Y-59345368D01*
X111079255Y-59345368D01*
X111249522Y-59285789D01*
X111402262Y-59189816D01*
X111529816Y-59062262D01*
X111625789Y-58909522D01*
X111685368Y-58739255D01*
X111705565Y-58560000D01*
X111699960Y-58510256D01*
X111685369Y-58380750D01*
X111685368Y-58380745D01*
X111625788Y-58210476D01*
X111529815Y-58057737D01*
X111402262Y-57930184D01*
X111249523Y-57834211D01*
X111079254Y-57774631D01*
X111079249Y-57774630D01*
X110900004Y-57754435D01*
X110899996Y-57754435D01*
X110720750Y-57774630D01*
X110720737Y-57774633D01*
X110550481Y-57834209D01*
X110550477Y-57834210D01*
X110460904Y-57890494D01*
X110394932Y-57909500D01*
X108343316Y-57909500D01*
X108276277Y-57889815D01*
X108241744Y-57856627D01*
X108129421Y-57696213D01*
X107963787Y-57530579D01*
X107771907Y-57396223D01*
X107771905Y-57396222D01*
X107767472Y-57393118D01*
X107768384Y-57391814D01*
X107725207Y-57346532D01*
X107711982Y-57277926D01*
X107737949Y-57213060D01*
X107767765Y-57187224D01*
X107767221Y-57186447D01*
X107852900Y-57126453D01*
X107146448Y-56420000D01*
X107152661Y-56420000D01*
X107254394Y-56392741D01*
X107345606Y-56340080D01*
X107420080Y-56265606D01*
X107472741Y-56174394D01*
X107500000Y-56072661D01*
X107500000Y-56066447D01*
X108206453Y-56772900D01*
X108263342Y-56691655D01*
X108362298Y-56479441D01*
X108362302Y-56479432D01*
X108422902Y-56253268D01*
X108422904Y-56253258D01*
X108443312Y-56020001D01*
X108443312Y-56019998D01*
X108422904Y-55786741D01*
X108422902Y-55786731D01*
X108362302Y-55560567D01*
X108362298Y-55560558D01*
X108263342Y-55348345D01*
X108263341Y-55348343D01*
X108206453Y-55267099D01*
X108206453Y-55267098D01*
X107500000Y-55973551D01*
X107500000Y-55967339D01*
X107472741Y-55865606D01*
X107420080Y-55774394D01*
X107345606Y-55699920D01*
X107254394Y-55647259D01*
X107152661Y-55620000D01*
X107146447Y-55620000D01*
X107852900Y-54913546D01*
X107852899Y-54913545D01*
X107767221Y-54853553D01*
X107768181Y-54852181D01*
X107725207Y-54807115D01*
X107711981Y-54738509D01*
X107737946Y-54673643D01*
X107767985Y-54647615D01*
X107767472Y-54646882D01*
X107771905Y-54643777D01*
X107771907Y-54643777D01*
X107963787Y-54509421D01*
X108129421Y-54343787D01*
X108263777Y-54151907D01*
X108274339Y-54129255D01*
X108320510Y-54076817D01*
X108387703Y-54057664D01*
X108454584Y-54077879D01*
X108474402Y-54093979D01*
X112113181Y-57732758D01*
X112146666Y-57794081D01*
X112149500Y-57820439D01*
X112149500Y-86394931D01*
X112130494Y-86460903D01*
X112074211Y-86550477D01*
X112074209Y-86550481D01*
X112014633Y-86720737D01*
X112014630Y-86720750D01*
X111994435Y-86899996D01*
X111994435Y-86900003D01*
X112014630Y-87079249D01*
X112014631Y-87079254D01*
X112074211Y-87249523D01*
X112146011Y-87363791D01*
X112170184Y-87402262D01*
X112297738Y-87529816D01*
X112388080Y-87586582D01*
X112435231Y-87616209D01*
X112450478Y-87625789D01*
X112567915Y-87666882D01*
X112620745Y-87685368D01*
X112620750Y-87685369D01*
X112799996Y-87705565D01*
X112800000Y-87705565D01*
X112800004Y-87705565D01*
X112979249Y-87685369D01*
X112979252Y-87685368D01*
X112979255Y-87685368D01*
X113149522Y-87625789D01*
X113302262Y-87529816D01*
X113429816Y-87402262D01*
X113525789Y-87249522D01*
X113585368Y-87079255D01*
X113587707Y-87058495D01*
X113605565Y-86900003D01*
X113605565Y-86899996D01*
X113585369Y-86720750D01*
X113585366Y-86720737D01*
X113525790Y-86550481D01*
X113525789Y-86550478D01*
X113483807Y-86483664D01*
X113469506Y-86460903D01*
X113450500Y-86394931D01*
X113450500Y-57435559D01*
X113425502Y-57309892D01*
X113425501Y-57309891D01*
X113425501Y-57309887D01*
X113422017Y-57301477D01*
X113386689Y-57216186D01*
X113376467Y-57191508D01*
X113376466Y-57191505D01*
X113373086Y-57186447D01*
X113305278Y-57084963D01*
X113305272Y-57084956D01*
X106915042Y-50694726D01*
X106836029Y-50641932D01*
X106808496Y-50623535D01*
X106690113Y-50574499D01*
X106690107Y-50574497D01*
X106564440Y-50549500D01*
X106564438Y-50549500D01*
X99235931Y-50549500D01*
X99235929Y-50549500D01*
X99110261Y-50574497D01*
X99110255Y-50574499D01*
X99062537Y-50594265D01*
X98991874Y-50623534D01*
X98885326Y-50694726D01*
X98885325Y-50694727D01*
X91294722Y-58285331D01*
X91294717Y-58285337D01*
X91267120Y-58326643D01*
X91267116Y-58326649D01*
X91249659Y-58352774D01*
X91223534Y-58391873D01*
X91174499Y-58510255D01*
X91174497Y-58510261D01*
X91149500Y-58635928D01*
X85778000Y-58635928D01*
X85778000Y-49078711D01*
X87049500Y-49078711D01*
X87049500Y-49321288D01*
X87081161Y-49561785D01*
X87143947Y-49796104D01*
X87236773Y-50020205D01*
X87236776Y-50020212D01*
X87358064Y-50230289D01*
X87358066Y-50230292D01*
X87358067Y-50230293D01*
X87505733Y-50422736D01*
X87505739Y-50422743D01*
X87677256Y-50594260D01*
X87677262Y-50594265D01*
X87869711Y-50741936D01*
X88079788Y-50863224D01*
X88303900Y-50956054D01*
X88538211Y-51018838D01*
X88718586Y-51042584D01*
X88778711Y-51050500D01*
X88778712Y-51050500D01*
X89021289Y-51050500D01*
X89069388Y-51044167D01*
X89261789Y-51018838D01*
X89496100Y-50956054D01*
X89720212Y-50863224D01*
X89930289Y-50741936D01*
X90122738Y-50594265D01*
X90294265Y-50422738D01*
X90441936Y-50230289D01*
X90563224Y-50020212D01*
X90656054Y-49796100D01*
X90718838Y-49561789D01*
X90750500Y-49321288D01*
X90750500Y-49078712D01*
X90737335Y-48978711D01*
X142049500Y-48978711D01*
X142049500Y-49221288D01*
X142081161Y-49461785D01*
X142143947Y-49696104D01*
X142185367Y-49796100D01*
X142236776Y-49920212D01*
X142358064Y-50130289D01*
X142358066Y-50130292D01*
X142358067Y-50130293D01*
X142505733Y-50322736D01*
X142505739Y-50322743D01*
X142677256Y-50494260D01*
X142677262Y-50494265D01*
X142869711Y-50641936D01*
X143079788Y-50763224D01*
X143303900Y-50856054D01*
X143538211Y-50918838D01*
X143718586Y-50942584D01*
X143778711Y-50950500D01*
X143778712Y-50950500D01*
X144021289Y-50950500D01*
X144069388Y-50944167D01*
X144261789Y-50918838D01*
X144496100Y-50856054D01*
X144720212Y-50763224D01*
X144930289Y-50641936D01*
X145122738Y-50494265D01*
X145294265Y-50322738D01*
X145441936Y-50130289D01*
X145563224Y-49920212D01*
X145656054Y-49696100D01*
X145718838Y-49461789D01*
X145750500Y-49221288D01*
X145750500Y-48978712D01*
X145718838Y-48738211D01*
X145656054Y-48503900D01*
X145563224Y-48279788D01*
X145441936Y-48069711D01*
X145294265Y-47877262D01*
X145294260Y-47877256D01*
X145122743Y-47705739D01*
X145122736Y-47705733D01*
X144930293Y-47558067D01*
X144930292Y-47558066D01*
X144930289Y-47558064D01*
X144720212Y-47436776D01*
X144720205Y-47436773D01*
X144496104Y-47343947D01*
X144261785Y-47281161D01*
X144021289Y-47249500D01*
X144021288Y-47249500D01*
X143778712Y-47249500D01*
X143778711Y-47249500D01*
X143538214Y-47281161D01*
X143303895Y-47343947D01*
X143079794Y-47436773D01*
X143079785Y-47436777D01*
X142869706Y-47558067D01*
X142677263Y-47705733D01*
X142677256Y-47705739D01*
X142505739Y-47877256D01*
X142505733Y-47877263D01*
X142358067Y-48069706D01*
X142236777Y-48279785D01*
X142236773Y-48279794D01*
X142143947Y-48503895D01*
X142081161Y-48738214D01*
X142049500Y-48978711D01*
X90737335Y-48978711D01*
X90718838Y-48838211D01*
X90656054Y-48603900D01*
X90563224Y-48379788D01*
X90441936Y-48169711D01*
X90381018Y-48090321D01*
X90294266Y-47977263D01*
X90294260Y-47977256D01*
X90122743Y-47805739D01*
X90122736Y-47805733D01*
X89930293Y-47658067D01*
X89930292Y-47658066D01*
X89930289Y-47658064D01*
X89720212Y-47536776D01*
X89720205Y-47536773D01*
X89496104Y-47443947D01*
X89261785Y-47381161D01*
X89021289Y-47349500D01*
X89021288Y-47349500D01*
X88778712Y-47349500D01*
X88778711Y-47349500D01*
X88538214Y-47381161D01*
X88303895Y-47443947D01*
X88079794Y-47536773D01*
X88079785Y-47536777D01*
X87869706Y-47658067D01*
X87677263Y-47805733D01*
X87677256Y-47805739D01*
X87505739Y-47977256D01*
X87505733Y-47977263D01*
X87358067Y-48169706D01*
X87236777Y-48379785D01*
X87236773Y-48379794D01*
X87143947Y-48603895D01*
X87081161Y-48838214D01*
X87049500Y-49078711D01*
X85778000Y-49078711D01*
X85778000Y-46219055D01*
X85797685Y-46152016D01*
X85850489Y-46106261D01*
X85902000Y-46095055D01*
X146580945Y-46095055D01*
X146647984Y-46114740D01*
G37*
%TD.AperFunction*%
%TD*%
M02*
