%TF.GenerationSoftware,KiCad,Pcbnew,8.0.2*%
%TF.CreationDate,2024-08-20T17:24:06+07:00*%
%TF.ProjectId,Arduino_xtension_IDC30,41726475-696e-46f5-9f78-74656e73696f,rev?*%
%TF.SameCoordinates,Original*%
%TF.FileFunction,Copper,L2,Bot*%
%TF.FilePolarity,Positive*%
%FSLAX46Y46*%
G04 Gerber Fmt 4.6, Leading zero omitted, Abs format (unit mm)*
G04 Created by KiCad (PCBNEW 8.0.2) date 2024-08-20 17:24:06*
%MOMM*%
%LPD*%
G01*
G04 APERTURE LIST*
G04 Aperture macros list*
%AMRoundRect*
0 Rectangle with rounded corners*
0 $1 Rounding radius*
0 $2 $3 $4 $5 $6 $7 $8 $9 X,Y pos of 4 corners*
0 Add a 4 corners polygon primitive as box body*
4,1,4,$2,$3,$4,$5,$6,$7,$8,$9,$2,$3,0*
0 Add four circle primitives for the rounded corners*
1,1,$1+$1,$2,$3*
1,1,$1+$1,$4,$5*
1,1,$1+$1,$6,$7*
1,1,$1+$1,$8,$9*
0 Add four rect primitives between the rounded corners*
20,1,$1+$1,$2,$3,$4,$5,0*
20,1,$1+$1,$4,$5,$6,$7,0*
20,1,$1+$1,$6,$7,$8,$9,0*
20,1,$1+$1,$8,$9,$2,$3,0*%
G04 Aperture macros list end*
%TA.AperFunction,ComponentPad*%
%ADD10C,1.676400*%
%TD*%
%TA.AperFunction,ComponentPad*%
%ADD11RoundRect,0.250000X0.600000X0.600000X-0.600000X0.600000X-0.600000X-0.600000X0.600000X-0.600000X0*%
%TD*%
%TA.AperFunction,ComponentPad*%
%ADD12C,1.700000*%
%TD*%
%TA.AperFunction,ViaPad*%
%ADD13C,0.600000*%
%TD*%
%TA.AperFunction,Conductor*%
%ADD14C,0.300000*%
%TD*%
G04 APERTURE END LIST*
D10*
%TO.P,U1,VIN_2,VIN*%
%TO.N,VIN*%
X107100000Y-53480000D03*
%TO.P,U1,VIN_1,VIN*%
X104560000Y-53480000D03*
%TO.P,U1,GND_2,GND*%
%TO.N,GND*%
X107100000Y-56020000D03*
%TO.P,U1,GND_1,GND*%
X104560000Y-56020000D03*
%TO.P,U1,5V_1,5V*%
%TO.N,5V*%
X104560000Y-58560000D03*
%TO.P,U1,5V_2,5V*%
X107100000Y-58560000D03*
%TO.P,U1,3V3_2,3V3*%
%TO.N,3.3V*%
X107100000Y-61100000D03*
%TO.P,U1,3V3_1,3V3*%
X104560000Y-61100000D03*
%TO.P,U1,RST,RST*%
%TO.N,~{RESET}*%
X104560000Y-63640000D03*
%TO.P,U1,AREF,AREF*%
%TO.N,unconnected-(U1-PadAREF)*%
X107100000Y-63640000D03*
%TO.P,U1,RX,RX*%
%TO.N,unconnected-(U1-PadRX)*%
X107100000Y-66180000D03*
%TO.P,U1,TX,TX*%
%TO.N,unconnected-(U1-PadTX)*%
X104560000Y-66180000D03*
%TO.P,U1,D3,D3*%
%TO.N,INT5*%
X104560000Y-68720000D03*
%TO.P,U1,D5,D5*%
%TO.N,unconnected-(U1-PadD5)*%
X104560000Y-71260000D03*
%TO.P,U1,D7,D7*%
%TO.N,PWM2*%
X104560000Y-73800000D03*
%TO.P,U1,D9,D9*%
%TO.N,CE*%
X104560000Y-76340000D03*
%TO.P,U1,D11,D11*%
%TO.N,PWM3*%
X104560000Y-78880000D03*
%TO.P,U1,D13,D13*%
%TO.N,unconnected-(U1-PadD13)*%
X104560000Y-81420000D03*
%TO.P,U1,D15,D15*%
%TO.N,RX3*%
X104560000Y-83960000D03*
%TO.P,U1,D17,D17*%
%TO.N,RX2*%
X104560000Y-86500000D03*
%TO.P,U1,D19,D19*%
%TO.N,RX1*%
X104560000Y-89040000D03*
%TO.P,U1,D21,D21*%
%TO.N,SCL*%
X104560000Y-91580000D03*
%TO.P,U1,D2,D2*%
%TO.N,INT4*%
X107100000Y-68720000D03*
%TO.P,U1,D4,D4*%
%TO.N,unconnected-(U1-PadD4)*%
X107100000Y-71260000D03*
%TO.P,U1,D6,D6*%
%TO.N,PWM1*%
X107100000Y-73800000D03*
%TO.P,U1,D8,D8*%
%TO.N,LED4*%
X107100000Y-76340000D03*
%TO.P,U1,D10,D10*%
%TO.N,unconnected-(U1-PadD10)*%
X107100000Y-78880000D03*
%TO.P,U1,D12,D12*%
%TO.N,PWM4*%
X107100000Y-81420000D03*
%TO.P,U1,D14,D14*%
%TO.N,TX3*%
X107100000Y-83960000D03*
%TO.P,U1,D16,D16*%
%TO.N,TX2*%
X107100000Y-86500000D03*
%TO.P,U1,D18,D18*%
%TO.N,TX1*%
X107100000Y-89040000D03*
%TO.P,U1,D20,D20*%
%TO.N,SDA*%
X107100000Y-91580000D03*
%TO.P,U1,D23,D23*%
%TO.N,unconnected-(U1-PadD23)*%
X104560000Y-94120000D03*
%TO.P,U1,D25,D25*%
%TO.N,unconnected-(U1-PadD25)*%
X104560000Y-96660000D03*
%TO.P,U1,D27,D27*%
%TO.N,unconnected-(U1-PadD27)*%
X104560000Y-99200000D03*
%TO.P,U1,D29,D29*%
%TO.N,LED3*%
X104560000Y-101740000D03*
%TO.P,U1,D31,D31*%
%TO.N,LED1*%
X104560000Y-104280000D03*
%TO.P,U1,D30,D30*%
%TO.N,LED2*%
X107100000Y-104280000D03*
%TO.P,U1,D28,D28*%
%TO.N,unconnected-(U1-PadD28)*%
X107100000Y-101740000D03*
%TO.P,U1,D26,D26*%
%TO.N,unconnected-(U1-PadD26)*%
X107100000Y-99200000D03*
%TO.P,U1,D24,D24*%
%TO.N,unconnected-(U1-PadD24)*%
X107100000Y-96660000D03*
%TO.P,U1,D22,D22*%
%TO.N,unconnected-(U1-PadD22)*%
X107100000Y-94120000D03*
%TO.P,U1,A1,A1*%
%TO.N,unconnected-(U1-PadA1)*%
X137580000Y-66180000D03*
%TO.P,U1,A0,A0*%
%TO.N,unconnected-(U1-PadA0)*%
X140120000Y-66180000D03*
%TO.P,U1,A2,A2*%
%TO.N,unconnected-(U1-PadA2)*%
X140120000Y-68720000D03*
%TO.P,U1,A3,A3*%
%TO.N,unconnected-(U1-PadA3)*%
X137580000Y-68720000D03*
%TO.P,U1,A5,A5*%
%TO.N,unconnected-(U1-PadA5)*%
X137580000Y-71260000D03*
%TO.P,U1,A4,A4*%
%TO.N,unconnected-(U1-PadA4)*%
X140120000Y-71260000D03*
%TO.P,U1,A6,A6*%
%TO.N,unconnected-(U1-PadA6)*%
X140120000Y-73800000D03*
%TO.P,U1,A7,A7*%
%TO.N,unconnected-(U1-PadA7)*%
X137580000Y-73800000D03*
%TO.P,U1,A8,A8*%
%TO.N,unconnected-(U1-PadA8)*%
X140120000Y-76340000D03*
%TO.P,U1,A9,A9*%
%TO.N,unconnected-(U1-PadA9)*%
X137580000Y-76340000D03*
%TO.P,U1,A10,A10*%
%TO.N,unconnected-(U1-PadA10)*%
X140120000Y-78880000D03*
%TO.P,U1,A11,A11*%
%TO.N,unconnected-(U1-PadA11)*%
X137580000Y-78880000D03*
%TO.P,U1,A12,A12*%
%TO.N,unconnected-(U1-PadA12)*%
X140120000Y-81420000D03*
%TO.P,U1,A13,A13*%
%TO.N,unconnected-(U1-PadA13)*%
X137580000Y-81420000D03*
%TO.P,U1,A14,A14*%
%TO.N,unconnected-(U1-PadA14)*%
X140120000Y-83960000D03*
%TO.P,U1,A15,A15*%
%TO.N,unconnected-(U1-PadA15)*%
X137580000Y-83960000D03*
%TO.P,U1,D32,D32*%
%TO.N,unconnected-(U1-PadD32)*%
X140120000Y-86500000D03*
%TO.P,U1,D33,D33*%
%TO.N,unconnected-(U1-PadD33)*%
X137580000Y-86500000D03*
%TO.P,U1,D34,D34*%
%TO.N,unconnected-(U1-PadD34)*%
X140120000Y-89040000D03*
%TO.P,U1,D35,D35*%
%TO.N,unconnected-(U1-PadD35)*%
X137580000Y-89040000D03*
%TO.P,U1,D36,D36*%
%TO.N,unconnected-(U1-PadD36)*%
X140120000Y-91580000D03*
%TO.P,U1,D37,D37*%
%TO.N,unconnected-(U1-PadD37)*%
X137580000Y-91580000D03*
%TO.P,U1,D38,D38*%
%TO.N,unconnected-(U1-PadD38)*%
X140120000Y-94120000D03*
%TO.P,U1,D39,D39*%
%TO.N,unconnected-(U1-PadD39)*%
X137580000Y-94120000D03*
%TO.P,U1,D40,D40*%
%TO.N,unconnected-(U1-PadD40)*%
X140120000Y-96660000D03*
%TO.P,U1,D41,D41*%
%TO.N,unconnected-(U1-PadD41)*%
X137580000Y-96660000D03*
%TO.P,U1,D42,D42*%
%TO.N,unconnected-(U1-PadD42)*%
X140120000Y-99200000D03*
%TO.P,U1,D43,D43*%
%TO.N,unconnected-(U1-PadD43)*%
X137580000Y-99200000D03*
%TO.P,U1,D44,D44*%
%TO.N,unconnected-(U1-PadD44)*%
X140120000Y-101740000D03*
%TO.P,U1,D45,D45*%
%TO.N,unconnected-(U1-PadD45)*%
X137580000Y-101740000D03*
%TO.P,U1,D46,D46*%
%TO.N,unconnected-(U1-PadD46)*%
X140120000Y-104280000D03*
%TO.P,U1,D47,D47*%
%TO.N,unconnected-(U1-PadD47)*%
X137580000Y-104280000D03*
%TO.P,U1,D48,D48*%
%TO.N,unconnected-(U1-PadD48)*%
X135040000Y-104280000D03*
%TO.P,U1,D49,D49*%
%TO.N,unconnected-(U1-PadD49)*%
X135040000Y-101740000D03*
%TO.P,U1,D51,D51*%
%TO.N,MOSI*%
X132500000Y-101740000D03*
%TO.P,U1,D50,D50*%
%TO.N,MISO*%
X132500000Y-104280000D03*
%TO.P,U1,D52,D52*%
%TO.N,CLK*%
X129960000Y-104280000D03*
%TO.P,U1,D53,D53*%
%TO.N,CSE*%
X129960000Y-101740000D03*
%TO.P,U1,RESET,RESET*%
%TO.N,unconnected-(U1-PadRESET)*%
X117260000Y-101740000D03*
%TO.P,U1,GND_3,GND*%
%TO.N,GND*%
X117260000Y-104280000D03*
%TO.P,U1,SCK,SCK*%
%TO.N,unconnected-(U1-PadSCK)*%
X119800000Y-101740000D03*
%TO.P,U1,MISO,MISO*%
%TO.N,unconnected-(U1-PadMISO)*%
X122340000Y-101740000D03*
%TO.P,U1,5V_3,5V*%
%TO.N,5V*%
X122340000Y-104280000D03*
%TO.P,U1,MOSI,MOSI*%
%TO.N,unconnected-(U1-PadMOSI)*%
X119800000Y-104280000D03*
%TD*%
D11*
%TO.P,J1,1,29*%
%TO.N,unconnected-(J1-29-Pad1)*%
X99097500Y-96180000D03*
D12*
%TO.P,J1,2,30*%
%TO.N,unconnected-(J1-30-Pad2)*%
X96557500Y-96180000D03*
%TO.P,J1,3,27*%
%TO.N,INT4*%
X99097500Y-93640000D03*
%TO.P,J1,4,28*%
%TO.N,INT5*%
X96557500Y-93640000D03*
%TO.P,J1,5,25*%
%TO.N,CE*%
X99097500Y-91100000D03*
%TO.P,J1,6,26*%
%TO.N,CSE*%
X96557500Y-91100000D03*
%TO.P,J1,7,23*%
%TO.N,MISO*%
X99097500Y-88560000D03*
%TO.P,J1,8,24*%
%TO.N,CLK*%
X96557500Y-88560000D03*
%TO.P,J1,9,21*%
%TO.N,SCL*%
X99097500Y-86020000D03*
%TO.P,J1,10,22*%
%TO.N,MOSI*%
X96557500Y-86020000D03*
%TO.P,J1,11,19*%
%TO.N,RX3*%
X99097500Y-83480000D03*
%TO.P,J1,12,20*%
%TO.N,SDA*%
X96557500Y-83480000D03*
%TO.P,J1,13,17*%
%TO.N,RX2*%
X99097500Y-80940000D03*
%TO.P,J1,14,18*%
%TO.N,TX3*%
X96557500Y-80940000D03*
%TO.P,J1,15,15*%
%TO.N,RX1*%
X99097500Y-78400000D03*
%TO.P,J1,16,16*%
%TO.N,TX2*%
X96557500Y-78400000D03*
%TO.P,J1,17,13*%
%TO.N,PWM4*%
X99097500Y-75860000D03*
%TO.P,J1,18,14*%
%TO.N,TX1*%
X96557500Y-75860000D03*
%TO.P,J1,19,11*%
%TO.N,PWM2*%
X99097500Y-73320000D03*
%TO.P,J1,20,12*%
%TO.N,PWM3*%
X96557500Y-73320000D03*
%TO.P,J1,21,9*%
%TO.N,LED4*%
X99097500Y-70780000D03*
%TO.P,J1,22,10*%
%TO.N,PWM1*%
X96557500Y-70780000D03*
%TO.P,J1,23,7*%
%TO.N,LED2*%
X99097500Y-68240000D03*
%TO.P,J1,24,8*%
%TO.N,LED3*%
X96557500Y-68240000D03*
%TO.P,J1,25,5*%
%TO.N,~{RESET}*%
X99097500Y-65700000D03*
%TO.P,J1,26,6*%
%TO.N,LED1*%
X96557500Y-65700000D03*
%TO.P,J1,27,3*%
%TO.N,5V*%
X99097500Y-63160000D03*
%TO.P,J1,28,4*%
%TO.N,3.3V*%
X96557500Y-63160000D03*
%TO.P,J1,29,1*%
%TO.N,GND*%
X99097500Y-60620000D03*
%TO.P,J1,30,2*%
%TO.N,VIN*%
X96557500Y-60620000D03*
%TD*%
D13*
%TO.N,5V*%
X123300000Y-95100000D03*
X110900000Y-58560000D03*
%TO.N,TX2*%
X109000000Y-90500000D03*
X112800000Y-86900000D03*
%TO.N,TX1*%
X92500000Y-75800000D03*
%TO.N,RX1*%
X101300000Y-86700000D03*
%TO.N,RX2*%
X100471603Y-84728395D03*
%TO.N,LED4*%
X101100000Y-74200000D03*
%TO.N,CLK*%
X94900000Y-99600000D03*
%TO.N,CSE*%
X117200000Y-98000000D03*
X99500000Y-98000000D03*
%TO.N,CE*%
X110100000Y-95471800D03*
%TO.N,MOSI*%
X101400000Y-96400000D03*
%TO.N,INT4*%
X102050000Y-70071800D03*
%TD*%
D14*
%TO.N,5V*%
X123300000Y-95100000D02*
X123400000Y-95000000D01*
X123800000Y-62100000D02*
X123800000Y-94600000D01*
X120260000Y-58560000D02*
X123800000Y-62100000D01*
X110900000Y-58560000D02*
X120260000Y-58560000D01*
X123800000Y-94600000D02*
X123300000Y-95100000D01*
%TO.N,CLK*%
X102500000Y-107200000D02*
X94900000Y-99600000D01*
X127040000Y-107200000D02*
X102500000Y-107200000D01*
X129960000Y-104280000D02*
X127040000Y-107200000D01*
%TO.N,TX2*%
X112600000Y-86900000D02*
X109000000Y-90500000D01*
X112800000Y-86900000D02*
X112600000Y-86900000D01*
X109000000Y-90500000D02*
X109100000Y-90400000D01*
%TO.N,TX1*%
X109200000Y-86940000D02*
X107100000Y-89040000D01*
X109200000Y-53100000D02*
X109200000Y-86940000D01*
X99092894Y-51800000D02*
X107900000Y-51800000D01*
X107900000Y-51800000D02*
X109200000Y-53100000D01*
X92500000Y-75800000D02*
X92500000Y-58392894D01*
X92500000Y-58392894D02*
X99092894Y-51800000D01*
%TO.N,RX1*%
X103640000Y-89040000D02*
X104560000Y-89040000D01*
X101300000Y-86700000D02*
X103640000Y-89040000D01*
%TO.N,SDA*%
X105911800Y-90391800D02*
X107100000Y-91580000D01*
X100297500Y-87290394D02*
X103398906Y-90391800D01*
X100297500Y-85473531D02*
X100297500Y-87290394D01*
X99643969Y-84820000D02*
X100297500Y-85473531D01*
X97897500Y-84820000D02*
X99643969Y-84820000D01*
X96557500Y-83480000D02*
X97897500Y-84820000D01*
X103398906Y-90391800D02*
X105911800Y-90391800D01*
%TO.N,SCL*%
X99097500Y-86797500D02*
X103880000Y-91580000D01*
X103880000Y-91580000D02*
X104560000Y-91580000D01*
X99097500Y-86020000D02*
X99097500Y-86797500D01*
%TO.N,INT4*%
X102050000Y-70071800D02*
X105748200Y-70071800D01*
X105748200Y-70071800D02*
X107100000Y-68720000D01*
%TO.N,RX2*%
X102243208Y-86500000D02*
X104560000Y-86500000D01*
X100471603Y-84728395D02*
X102243208Y-86500000D01*
%TO.N,LED4*%
X102051800Y-75151800D02*
X101100000Y-74200000D01*
X105911800Y-75151800D02*
X102051800Y-75151800D01*
X107100000Y-76340000D02*
X105911800Y-75151800D01*
%TO.N,CSE*%
X117100000Y-98011800D02*
X117088200Y-98011800D01*
X117200000Y-98000000D02*
X117100000Y-98011800D01*
X117076400Y-98011800D02*
X117200000Y-98000000D01*
X99511800Y-98011800D02*
X117076400Y-98011800D01*
X99500000Y-98000000D02*
X99511800Y-98011800D01*
%TO.N,CE*%
X103469300Y-95471800D02*
X99097500Y-91100000D01*
X110100000Y-95471800D02*
X103469300Y-95471800D01*
%TO.N,MOSI*%
X99980000Y-94980000D02*
X101400000Y-96400000D01*
X98700000Y-94980000D02*
X99980000Y-94980000D01*
X97757500Y-94037500D02*
X98700000Y-94980000D01*
X97757500Y-87220000D02*
X97757500Y-94037500D01*
X96557500Y-86020000D02*
X97757500Y-87220000D01*
%TO.N,MISO*%
X131311800Y-103091800D02*
X132500000Y-104280000D01*
X103469300Y-92931800D02*
X118931801Y-92931800D01*
X129091801Y-103091800D02*
X131311800Y-103091800D01*
X99097500Y-88560000D02*
X103469300Y-92931800D01*
X118931801Y-92931800D02*
X129091801Y-103091800D01*
%TO.N,INT5*%
X98700443Y-67000000D02*
X102840000Y-67000000D01*
X97800000Y-66099557D02*
X98700443Y-67000000D01*
X97800000Y-65172722D02*
X97800000Y-66099557D01*
X97127278Y-64500000D02*
X97800000Y-65172722D01*
X102840000Y-67000000D02*
X104560000Y-68720000D01*
X94600000Y-65600000D02*
X95700000Y-64500000D01*
X94600000Y-96626664D02*
X94600000Y-65600000D01*
X105052169Y-103091800D02*
X105748200Y-103787831D01*
X105748200Y-103787831D02*
X105748200Y-104772169D01*
X103441536Y-105468200D02*
X94600000Y-96626664D01*
X102691431Y-103091800D02*
X105052169Y-103091800D01*
X97757500Y-94840000D02*
X97757500Y-98157869D01*
X105052169Y-105468200D02*
X103441536Y-105468200D01*
X97757500Y-98157869D02*
X102691431Y-103091800D01*
X96557500Y-93640000D02*
X97757500Y-94840000D01*
X105748200Y-104772169D02*
X105052169Y-105468200D01*
X95700000Y-64500000D02*
X97127278Y-64500000D01*
X96340000Y-93640000D02*
X96300000Y-93600000D01*
X96557500Y-93640000D02*
X96340000Y-93640000D01*
%TO.N,LED1*%
X102980000Y-104280000D02*
X104560000Y-104280000D01*
X96060443Y-97380000D02*
X96080000Y-97380000D01*
X95100000Y-96419557D02*
X96060443Y-97380000D01*
X95100000Y-66400000D02*
X95100000Y-96419557D01*
X96080000Y-97380000D02*
X102980000Y-104280000D01*
X95800000Y-65700000D02*
X95100000Y-66400000D01*
X96557500Y-65700000D02*
X95800000Y-65700000D01*
%TO.N,TX3*%
X105911800Y-82771800D02*
X107100000Y-83960000D01*
X100086357Y-82771800D02*
X105911800Y-82771800D01*
X97897500Y-82280000D02*
X99594557Y-82280000D01*
X96557500Y-80940000D02*
X97897500Y-82280000D01*
X99594557Y-82280000D02*
X100086357Y-82771800D01*
%TO.N,RX3*%
X104080000Y-83480000D02*
X104560000Y-83960000D01*
X99097500Y-83480000D02*
X104080000Y-83480000D01*
%TO.N,PWM4*%
X105748200Y-80068200D02*
X107100000Y-81420000D01*
X103305700Y-80068200D02*
X105748200Y-80068200D01*
X99097500Y-75860000D02*
X103305700Y-80068200D01*
%TO.N,PWM3*%
X97897500Y-74660000D02*
X100340000Y-74660000D01*
X96557500Y-73320000D02*
X97897500Y-74660000D01*
X100340000Y-74660000D02*
X104560000Y-78880000D01*
%TO.N,PWM1*%
X103600000Y-72500000D02*
X105800000Y-72500000D01*
X103220000Y-72120000D02*
X103600000Y-72500000D01*
X97897500Y-72120000D02*
X103220000Y-72120000D01*
X105800000Y-72500000D02*
X107100000Y-73800000D01*
X96557500Y-70780000D02*
X97897500Y-72120000D01*
%TO.N,PWM2*%
X104080000Y-73320000D02*
X104560000Y-73800000D01*
X99097500Y-73320000D02*
X104080000Y-73320000D01*
%TO.N,~{RESET}*%
X99507106Y-65700000D02*
X99097500Y-65700000D01*
X101567106Y-63640000D02*
X99507106Y-65700000D01*
X104560000Y-63640000D02*
X101567106Y-63640000D01*
%TO.N,3.3V*%
X104560000Y-61100000D02*
X107100000Y-61100000D01*
X102500000Y-61100000D02*
X104560000Y-61100000D01*
X101600000Y-62000000D02*
X102500000Y-61100000D01*
X97757500Y-64360000D02*
X100140000Y-64360000D01*
X101600000Y-62900000D02*
X101600000Y-62000000D01*
X100140000Y-64360000D02*
X101600000Y-62900000D01*
X96557500Y-63160000D02*
X97757500Y-64360000D01*
%TO.N,5V*%
X104560000Y-58560000D02*
X107100000Y-58560000D01*
X101100000Y-59000000D02*
X101540000Y-58560000D01*
X101100000Y-62600000D02*
X101100000Y-59000000D01*
X101540000Y-58560000D02*
X104560000Y-58560000D01*
X100540000Y-63160000D02*
X101100000Y-62600000D01*
X99097500Y-63160000D02*
X100540000Y-63160000D01*
%TO.N,VIN*%
X107100000Y-53480000D02*
X104560000Y-53480000D01*
X98120000Y-53480000D02*
X104560000Y-53480000D01*
X96557500Y-55042500D02*
X98120000Y-53480000D01*
X96557500Y-60620000D02*
X96557500Y-55042500D01*
%TD*%
%TA.AperFunction,Conductor*%
%TO.N,GND*%
G36*
X98631575Y-60812993D02*
G01*
X98697401Y-60927007D01*
X98790493Y-61020099D01*
X98904507Y-61085925D01*
X98968090Y-61102962D01*
X98336125Y-61734925D01*
X98412094Y-61788119D01*
X98455719Y-61842696D01*
X98462913Y-61912194D01*
X98431390Y-61974549D01*
X98412095Y-61991269D01*
X98226094Y-62121508D01*
X98059005Y-62288597D01*
X97929075Y-62474158D01*
X97874498Y-62517783D01*
X97805000Y-62524977D01*
X97742645Y-62493454D01*
X97725925Y-62474158D01*
X97595994Y-62288597D01*
X97428902Y-62121506D01*
X97428896Y-62121501D01*
X97243342Y-61991575D01*
X97199717Y-61936998D01*
X97192523Y-61867500D01*
X97224046Y-61805145D01*
X97243342Y-61788425D01*
X97390582Y-61685326D01*
X97428901Y-61658495D01*
X97595995Y-61491401D01*
X97726232Y-61305403D01*
X97780807Y-61261780D01*
X97850305Y-61254586D01*
X97912660Y-61286109D01*
X97929380Y-61305405D01*
X97982573Y-61381373D01*
X98614537Y-60749409D01*
X98631575Y-60812993D01*
G37*
%TD.AperFunction*%
%TA.AperFunction,Conductor*%
G36*
X100212425Y-61381373D02*
G01*
X100223925Y-61364950D01*
X100278502Y-61321326D01*
X100348001Y-61314133D01*
X100410355Y-61345655D01*
X100445769Y-61405885D01*
X100449500Y-61436074D01*
X100449500Y-62279191D01*
X100429815Y-62346230D01*
X100413181Y-62366872D01*
X100386880Y-62393173D01*
X100325557Y-62426658D01*
X100255865Y-62421674D01*
X100199932Y-62379802D01*
X100197624Y-62376615D01*
X100135993Y-62288596D01*
X99968902Y-62121506D01*
X99968901Y-62121505D01*
X99782905Y-61991269D01*
X99739281Y-61936692D01*
X99732088Y-61867193D01*
X99763610Y-61804839D01*
X99782905Y-61788119D01*
X99858873Y-61734925D01*
X99226909Y-61102962D01*
X99290493Y-61085925D01*
X99404507Y-61020099D01*
X99497599Y-60927007D01*
X99563425Y-60812993D01*
X99580462Y-60749410D01*
X100212425Y-61381373D01*
G37*
%TD.AperFunction*%
%TA.AperFunction,Conductor*%
G36*
X103383723Y-54150185D02*
G01*
X103418255Y-54183372D01*
X103530579Y-54343787D01*
X103696213Y-54509421D01*
X103888093Y-54643777D01*
X103888094Y-54643777D01*
X103892528Y-54646882D01*
X103891613Y-54648187D01*
X103934787Y-54693456D01*
X103948018Y-54762061D01*
X103922058Y-54826929D01*
X103892236Y-54852779D01*
X103892778Y-54853553D01*
X103807099Y-54913544D01*
X103807098Y-54913545D01*
X104513554Y-55620000D01*
X104507339Y-55620000D01*
X104405606Y-55647259D01*
X104314394Y-55699920D01*
X104239920Y-55774394D01*
X104187259Y-55865606D01*
X104160000Y-55967339D01*
X104160000Y-55973553D01*
X103453545Y-55267098D01*
X103453544Y-55267099D01*
X103396659Y-55348341D01*
X103297701Y-55560558D01*
X103297697Y-55560567D01*
X103237097Y-55786731D01*
X103237095Y-55786741D01*
X103216688Y-56019998D01*
X103216688Y-56020001D01*
X103237095Y-56253258D01*
X103237097Y-56253268D01*
X103297697Y-56479432D01*
X103297701Y-56479441D01*
X103396657Y-56691654D01*
X103396658Y-56691656D01*
X103453545Y-56772899D01*
X103453546Y-56772900D01*
X104160000Y-56066446D01*
X104160000Y-56072661D01*
X104187259Y-56174394D01*
X104239920Y-56265606D01*
X104314394Y-56340080D01*
X104405606Y-56392741D01*
X104507339Y-56420000D01*
X104513553Y-56420000D01*
X103807098Y-57126453D01*
X103892779Y-57186447D01*
X103891817Y-57187820D01*
X103934786Y-57232872D01*
X103948019Y-57301477D01*
X103922061Y-57366346D01*
X103892017Y-57392388D01*
X103892528Y-57393118D01*
X103888094Y-57396222D01*
X103888093Y-57396223D01*
X103696213Y-57530579D01*
X103696211Y-57530580D01*
X103696208Y-57530583D01*
X103530583Y-57696208D01*
X103530580Y-57696211D01*
X103530579Y-57696213D01*
X103418256Y-57856626D01*
X103363682Y-57900248D01*
X103316684Y-57909500D01*
X101475929Y-57909500D01*
X101350261Y-57934497D01*
X101350255Y-57934499D01*
X101231874Y-57983534D01*
X101125326Y-58054726D01*
X100594724Y-58585328D01*
X100552387Y-58648690D01*
X100552388Y-58648691D01*
X100523534Y-58691874D01*
X100474499Y-58810255D01*
X100474497Y-58810261D01*
X100449500Y-58935928D01*
X100449500Y-59803925D01*
X100429815Y-59870964D01*
X100377011Y-59916719D01*
X100307853Y-59926663D01*
X100244297Y-59897638D01*
X100223925Y-59875048D01*
X100212426Y-59858626D01*
X100212425Y-59858625D01*
X99580462Y-60490589D01*
X99563425Y-60427007D01*
X99497599Y-60312993D01*
X99404507Y-60219901D01*
X99290493Y-60154075D01*
X99226910Y-60137037D01*
X99858873Y-59505073D01*
X99858873Y-59505072D01*
X99775083Y-59446402D01*
X99775079Y-59446400D01*
X99560992Y-59346570D01*
X99560983Y-59346566D01*
X99332826Y-59285432D01*
X99332815Y-59285430D01*
X99097502Y-59264843D01*
X99097498Y-59264843D01*
X98862184Y-59285430D01*
X98862173Y-59285432D01*
X98634016Y-59346566D01*
X98634007Y-59346570D01*
X98419919Y-59446401D01*
X98336125Y-59505072D01*
X98968090Y-60137037D01*
X98904507Y-60154075D01*
X98790493Y-60219901D01*
X98697401Y-60312993D01*
X98631575Y-60427007D01*
X98614537Y-60490590D01*
X97982573Y-59858626D01*
X97929381Y-59934594D01*
X97874804Y-59978219D01*
X97805306Y-59985413D01*
X97742951Y-59953891D01*
X97726230Y-59934594D01*
X97595994Y-59748597D01*
X97428902Y-59581506D01*
X97428901Y-59581505D01*
X97319745Y-59505073D01*
X97260876Y-59463852D01*
X97217251Y-59409275D01*
X97208000Y-59362277D01*
X97208000Y-55363308D01*
X97227685Y-55296269D01*
X97244319Y-55275627D01*
X98353127Y-54166819D01*
X98414450Y-54133334D01*
X98440808Y-54130500D01*
X103316684Y-54130500D01*
X103383723Y-54150185D01*
G37*
%TD.AperFunction*%
%TA.AperFunction,Conductor*%
G36*
X108206453Y-56772900D02*
G01*
X108263341Y-56691655D01*
X108313118Y-56584910D01*
X108359290Y-56532471D01*
X108426484Y-56513319D01*
X108493365Y-56533535D01*
X108538699Y-56586700D01*
X108549500Y-56637315D01*
X108549500Y-57941500D01*
X108529815Y-58008539D01*
X108477011Y-58054294D01*
X108407853Y-58064238D01*
X108344297Y-58035213D01*
X108313118Y-57993905D01*
X108263777Y-57888093D01*
X108226048Y-57834211D01*
X108129421Y-57696213D01*
X107963787Y-57530579D01*
X107771907Y-57396223D01*
X107771905Y-57396222D01*
X107767472Y-57393118D01*
X107768384Y-57391814D01*
X107725207Y-57346532D01*
X107711982Y-57277926D01*
X107737949Y-57213060D01*
X107767765Y-57187224D01*
X107767221Y-57186447D01*
X107852900Y-57126453D01*
X107146448Y-56420000D01*
X107152661Y-56420000D01*
X107254394Y-56392741D01*
X107345606Y-56340080D01*
X107420080Y-56265606D01*
X107472741Y-56174394D01*
X107500000Y-56072661D01*
X107500000Y-56066447D01*
X108206453Y-56772900D01*
G37*
%TD.AperFunction*%
%TA.AperFunction,Conductor*%
G36*
X106700000Y-56072661D02*
G01*
X106727259Y-56174394D01*
X106779920Y-56265606D01*
X106854394Y-56340080D01*
X106945606Y-56392741D01*
X107047339Y-56420000D01*
X107053553Y-56420000D01*
X106347098Y-57126453D01*
X106432779Y-57186447D01*
X106431817Y-57187820D01*
X106474786Y-57232872D01*
X106488019Y-57301477D01*
X106462061Y-57366346D01*
X106432017Y-57392388D01*
X106432528Y-57393118D01*
X106428094Y-57396222D01*
X106428093Y-57396223D01*
X106236213Y-57530579D01*
X106236211Y-57530580D01*
X106236208Y-57530583D01*
X106070583Y-57696208D01*
X106070580Y-57696211D01*
X106070579Y-57696213D01*
X105958256Y-57856626D01*
X105903682Y-57900248D01*
X105856684Y-57909500D01*
X105803316Y-57909500D01*
X105736277Y-57889815D01*
X105701744Y-57856627D01*
X105589421Y-57696213D01*
X105423787Y-57530579D01*
X105231907Y-57396223D01*
X105231905Y-57396222D01*
X105227472Y-57393118D01*
X105228384Y-57391814D01*
X105185207Y-57346532D01*
X105171982Y-57277926D01*
X105197949Y-57213060D01*
X105227765Y-57187224D01*
X105227221Y-57186447D01*
X105312900Y-57126453D01*
X104606448Y-56420000D01*
X104612661Y-56420000D01*
X104714394Y-56392741D01*
X104805606Y-56340080D01*
X104880080Y-56265606D01*
X104932741Y-56174394D01*
X104960000Y-56072661D01*
X104960000Y-56066447D01*
X105666453Y-56772900D01*
X105726447Y-56687221D01*
X105727684Y-56688087D01*
X105773166Y-56644710D01*
X105841771Y-56631478D01*
X105906639Y-56657438D01*
X105932866Y-56687701D01*
X105933553Y-56687221D01*
X105993545Y-56772899D01*
X105993546Y-56772900D01*
X106700000Y-56066446D01*
X106700000Y-56072661D01*
G37*
%TD.AperFunction*%
%TA.AperFunction,Conductor*%
G36*
X105923723Y-54150185D02*
G01*
X105958255Y-54183372D01*
X106070579Y-54343787D01*
X106236213Y-54509421D01*
X106428093Y-54643777D01*
X106428094Y-54643777D01*
X106432528Y-54646882D01*
X106431613Y-54648187D01*
X106474787Y-54693456D01*
X106488018Y-54762061D01*
X106462058Y-54826929D01*
X106432236Y-54852779D01*
X106432778Y-54853553D01*
X106347099Y-54913544D01*
X106347098Y-54913545D01*
X107053554Y-55620000D01*
X107047339Y-55620000D01*
X106945606Y-55647259D01*
X106854394Y-55699920D01*
X106779920Y-55774394D01*
X106727259Y-55865606D01*
X106700000Y-55967339D01*
X106700000Y-55973553D01*
X105993545Y-55267098D01*
X105993544Y-55267099D01*
X105933553Y-55352778D01*
X105932321Y-55351915D01*
X105886805Y-55395304D01*
X105818197Y-55408518D01*
X105753335Y-55382542D01*
X105727134Y-55352297D01*
X105726447Y-55352779D01*
X105666453Y-55267099D01*
X105666453Y-55267098D01*
X104960000Y-55973551D01*
X104960000Y-55967339D01*
X104932741Y-55865606D01*
X104880080Y-55774394D01*
X104805606Y-55699920D01*
X104714394Y-55647259D01*
X104612661Y-55620000D01*
X104606447Y-55620000D01*
X105312900Y-54913546D01*
X105312899Y-54913545D01*
X105227221Y-54853553D01*
X105228181Y-54852181D01*
X105185207Y-54807115D01*
X105171981Y-54738509D01*
X105197946Y-54673643D01*
X105227985Y-54647615D01*
X105227472Y-54646882D01*
X105231905Y-54643777D01*
X105231907Y-54643777D01*
X105423787Y-54509421D01*
X105589421Y-54343787D01*
X105701743Y-54183373D01*
X105756318Y-54139752D01*
X105803316Y-54130500D01*
X105856684Y-54130500D01*
X105923723Y-54150185D01*
G37*
%TD.AperFunction*%
%TA.AperFunction,Conductor*%
G36*
X108493365Y-53994719D02*
G01*
X108538699Y-54047884D01*
X108549500Y-54098499D01*
X108549500Y-55402684D01*
X108529815Y-55469723D01*
X108477011Y-55515478D01*
X108407853Y-55525422D01*
X108344297Y-55496397D01*
X108313118Y-55455089D01*
X108263342Y-55348345D01*
X108263341Y-55348343D01*
X108206453Y-55267099D01*
X108206453Y-55267098D01*
X107500000Y-55973551D01*
X107500000Y-55967339D01*
X107472741Y-55865606D01*
X107420080Y-55774394D01*
X107345606Y-55699920D01*
X107254394Y-55647259D01*
X107152661Y-55620000D01*
X107146447Y-55620000D01*
X107852900Y-54913546D01*
X107852899Y-54913545D01*
X107767221Y-54853553D01*
X107768181Y-54852181D01*
X107725207Y-54807115D01*
X107711981Y-54738509D01*
X107737946Y-54673643D01*
X107767985Y-54647615D01*
X107767472Y-54646882D01*
X107771905Y-54643777D01*
X107771907Y-54643777D01*
X107963787Y-54509421D01*
X108129421Y-54343787D01*
X108263777Y-54151907D01*
X108313118Y-54046093D01*
X108359290Y-53993655D01*
X108426484Y-53974503D01*
X108493365Y-53994719D01*
G37*
%TD.AperFunction*%
%TA.AperFunction,Conductor*%
G36*
X118606645Y-102378447D02*
G01*
X118632294Y-102408048D01*
X118633118Y-102407472D01*
X118636222Y-102411905D01*
X118636223Y-102411907D01*
X118770579Y-102603787D01*
X118936213Y-102769421D01*
X119128093Y-102903777D01*
X119128094Y-102903777D01*
X119132528Y-102906882D01*
X119131521Y-102908319D01*
X119174297Y-102953190D01*
X119187513Y-103021798D01*
X119161540Y-103086660D01*
X119131953Y-103112297D01*
X119132528Y-103113118D01*
X119128094Y-103116222D01*
X119128093Y-103116223D01*
X118936213Y-103250579D01*
X118936211Y-103250580D01*
X118936208Y-103250583D01*
X118770583Y-103416208D01*
X118770580Y-103416211D01*
X118770579Y-103416213D01*
X118636223Y-103608093D01*
X118633118Y-103612528D01*
X118631819Y-103611618D01*
X118586505Y-103654807D01*
X118517895Y-103668015D01*
X118453036Y-103642033D01*
X118427224Y-103612234D01*
X118426447Y-103612779D01*
X118366453Y-103527099D01*
X118366453Y-103527098D01*
X117660000Y-104233551D01*
X117660000Y-104227339D01*
X117632741Y-104125606D01*
X117580080Y-104034394D01*
X117505606Y-103959920D01*
X117414394Y-103907259D01*
X117312661Y-103880000D01*
X117306447Y-103880000D01*
X118012900Y-103173546D01*
X118012899Y-103173545D01*
X117927221Y-103113553D01*
X117928181Y-103112181D01*
X117885207Y-103067115D01*
X117871981Y-102998509D01*
X117897946Y-102933643D01*
X117927985Y-102907615D01*
X117927472Y-102906882D01*
X117931905Y-102903777D01*
X117931907Y-102903777D01*
X118123787Y-102769421D01*
X118289421Y-102603787D01*
X118423777Y-102411907D01*
X118423777Y-102411905D01*
X118426882Y-102407472D01*
X118428323Y-102408481D01*
X118473172Y-102365712D01*
X118541778Y-102352484D01*
X118606645Y-102378447D01*
G37*
%TD.AperFunction*%
%TA.AperFunction,Conductor*%
G36*
X146647984Y-46114740D02*
G01*
X146693739Y-46167544D01*
X146704945Y-46219055D01*
X146704945Y-111075500D01*
X146685260Y-111142539D01*
X146632456Y-111188294D01*
X146580945Y-111199500D01*
X85902000Y-111199500D01*
X85834961Y-111179815D01*
X85789206Y-111127011D01*
X85778000Y-111075500D01*
X85778000Y-108078711D01*
X87049500Y-108078711D01*
X87049500Y-108321288D01*
X87081161Y-108561785D01*
X87143947Y-108796104D01*
X87236773Y-109020205D01*
X87236776Y-109020212D01*
X87358064Y-109230289D01*
X87358066Y-109230292D01*
X87358067Y-109230293D01*
X87505733Y-109422736D01*
X87505739Y-109422743D01*
X87677256Y-109594260D01*
X87677262Y-109594265D01*
X87869711Y-109741936D01*
X88079788Y-109863224D01*
X88303900Y-109956054D01*
X88538211Y-110018838D01*
X88718586Y-110042584D01*
X88778711Y-110050500D01*
X88778712Y-110050500D01*
X89021289Y-110050500D01*
X89069388Y-110044167D01*
X89261789Y-110018838D01*
X89496100Y-109956054D01*
X89720212Y-109863224D01*
X89930289Y-109741936D01*
X90122738Y-109594265D01*
X90294265Y-109422738D01*
X90441936Y-109230289D01*
X90563224Y-109020212D01*
X90656054Y-108796100D01*
X90718838Y-108561789D01*
X90750500Y-108321288D01*
X90750500Y-108078712D01*
X90737335Y-107978711D01*
X142049500Y-107978711D01*
X142049500Y-108221288D01*
X142081161Y-108461785D01*
X142143947Y-108696104D01*
X142185367Y-108796100D01*
X142236776Y-108920212D01*
X142358064Y-109130289D01*
X142358066Y-109130292D01*
X142358067Y-109130293D01*
X142505733Y-109322736D01*
X142505739Y-109322743D01*
X142677256Y-109494260D01*
X142677262Y-109494265D01*
X142869711Y-109641936D01*
X143079788Y-109763224D01*
X143303900Y-109856054D01*
X143538211Y-109918838D01*
X143718586Y-109942584D01*
X143778711Y-109950500D01*
X143778712Y-109950500D01*
X144021289Y-109950500D01*
X144069388Y-109944167D01*
X144261789Y-109918838D01*
X144496100Y-109856054D01*
X144720212Y-109763224D01*
X144930289Y-109641936D01*
X145122738Y-109494265D01*
X145294265Y-109322738D01*
X145441936Y-109130289D01*
X145563224Y-108920212D01*
X145656054Y-108696100D01*
X145718838Y-108461789D01*
X145750500Y-108221288D01*
X145750500Y-107978712D01*
X145718838Y-107738211D01*
X145656054Y-107503900D01*
X145563224Y-107279788D01*
X145441936Y-107069711D01*
X145294265Y-106877262D01*
X145294260Y-106877256D01*
X145122743Y-106705739D01*
X145122736Y-106705733D01*
X144930293Y-106558067D01*
X144930292Y-106558066D01*
X144930289Y-106558064D01*
X144720212Y-106436776D01*
X144720205Y-106436773D01*
X144496104Y-106343947D01*
X144261785Y-106281161D01*
X144021289Y-106249500D01*
X144021288Y-106249500D01*
X143778712Y-106249500D01*
X143778711Y-106249500D01*
X143538214Y-106281161D01*
X143303895Y-106343947D01*
X143079794Y-106436773D01*
X143079785Y-106436777D01*
X142869706Y-106558067D01*
X142677263Y-106705733D01*
X142677256Y-106705739D01*
X142505739Y-106877256D01*
X142505733Y-106877263D01*
X142358067Y-107069706D01*
X142236777Y-107279785D01*
X142236773Y-107279794D01*
X142143947Y-107503895D01*
X142081161Y-107738214D01*
X142049500Y-107978711D01*
X90737335Y-107978711D01*
X90718838Y-107838211D01*
X90656054Y-107603900D01*
X90563224Y-107379788D01*
X90441936Y-107169711D01*
X90381018Y-107090321D01*
X90294266Y-106977263D01*
X90294260Y-106977256D01*
X90122743Y-106805739D01*
X90122736Y-106805733D01*
X89930293Y-106658067D01*
X89930292Y-106658066D01*
X89930289Y-106658064D01*
X89720212Y-106536776D01*
X89703407Y-106529815D01*
X89496104Y-106443947D01*
X89261785Y-106381161D01*
X89021289Y-106349500D01*
X89021288Y-106349500D01*
X88778712Y-106349500D01*
X88778711Y-106349500D01*
X88538214Y-106381161D01*
X88303895Y-106443947D01*
X88079794Y-106536773D01*
X88079785Y-106536777D01*
X87869706Y-106658067D01*
X87677263Y-106805733D01*
X87677256Y-106805739D01*
X87505739Y-106977256D01*
X87505733Y-106977263D01*
X87358067Y-107169706D01*
X87236777Y-107379785D01*
X87236773Y-107379794D01*
X87143947Y-107603895D01*
X87081161Y-107838214D01*
X87049500Y-108078711D01*
X85778000Y-108078711D01*
X85778000Y-75799996D01*
X91694435Y-75799996D01*
X91694435Y-75800003D01*
X91714630Y-75979249D01*
X91714631Y-75979254D01*
X91774211Y-76149523D01*
X91822542Y-76226440D01*
X91870184Y-76302262D01*
X91997738Y-76429816D01*
X92150478Y-76525789D01*
X92286417Y-76573356D01*
X92320745Y-76585368D01*
X92320750Y-76585369D01*
X92499996Y-76605565D01*
X92500000Y-76605565D01*
X92500004Y-76605565D01*
X92679249Y-76585369D01*
X92679252Y-76585368D01*
X92679255Y-76585368D01*
X92849522Y-76525789D01*
X93002262Y-76429816D01*
X93129816Y-76302262D01*
X93225789Y-76149522D01*
X93285368Y-75979255D01*
X93288365Y-75952658D01*
X93305565Y-75800003D01*
X93305565Y-75799996D01*
X93285369Y-75620750D01*
X93285366Y-75620737D01*
X93225790Y-75450481D01*
X93225789Y-75450478D01*
X93186511Y-75387967D01*
X93169506Y-75360903D01*
X93150500Y-75294931D01*
X93150500Y-58713702D01*
X93170185Y-58646663D01*
X93186819Y-58626021D01*
X95695319Y-56117521D01*
X95756642Y-56084036D01*
X95826334Y-56089020D01*
X95882267Y-56130892D01*
X95906684Y-56196356D01*
X95907000Y-56205202D01*
X95907000Y-59362278D01*
X95887315Y-59429317D01*
X95854123Y-59463853D01*
X95686097Y-59581505D01*
X95519005Y-59748597D01*
X95383465Y-59942169D01*
X95383464Y-59942171D01*
X95283598Y-60156335D01*
X95283594Y-60156344D01*
X95222438Y-60384586D01*
X95222436Y-60384596D01*
X95201841Y-60619999D01*
X95201841Y-60620000D01*
X95222436Y-60855403D01*
X95222438Y-60855413D01*
X95283594Y-61083655D01*
X95283596Y-61083659D01*
X95283597Y-61083663D01*
X95363300Y-61254586D01*
X95383465Y-61297830D01*
X95383467Y-61297834D01*
X95491781Y-61452521D01*
X95519001Y-61491396D01*
X95519006Y-61491402D01*
X95686097Y-61658493D01*
X95686103Y-61658498D01*
X95871658Y-61788425D01*
X95915283Y-61843002D01*
X95922477Y-61912500D01*
X95890954Y-61974855D01*
X95871658Y-61991575D01*
X95686097Y-62121505D01*
X95519005Y-62288597D01*
X95383465Y-62482169D01*
X95383464Y-62482171D01*
X95283598Y-62696335D01*
X95283594Y-62696344D01*
X95222438Y-62924586D01*
X95222436Y-62924596D01*
X95201841Y-63159999D01*
X95201841Y-63160000D01*
X95222436Y-63395403D01*
X95222438Y-63395413D01*
X95283594Y-63623655D01*
X95283599Y-63623669D01*
X95370976Y-63811050D01*
X95381468Y-63880127D01*
X95352948Y-63943911D01*
X95327486Y-63966555D01*
X95285331Y-63994722D01*
X95285325Y-63994727D01*
X94094726Y-65185326D01*
X94094723Y-65185331D01*
X94031802Y-65279500D01*
X94031800Y-65279503D01*
X94023538Y-65291866D01*
X94023534Y-65291873D01*
X93974499Y-65410255D01*
X93974497Y-65410261D01*
X93949500Y-65535928D01*
X93949500Y-65535931D01*
X93949500Y-96690733D01*
X93949500Y-96690735D01*
X93949499Y-96690735D01*
X93971937Y-96803532D01*
X93971938Y-96803535D01*
X93974499Y-96816408D01*
X93974500Y-96816412D01*
X94023533Y-96934789D01*
X94094726Y-97041337D01*
X94094727Y-97041338D01*
X102936260Y-105882869D01*
X103026863Y-105973472D01*
X103026868Y-105973477D01*
X103133402Y-106044661D01*
X103133408Y-106044664D01*
X103133409Y-106044665D01*
X103251792Y-106093701D01*
X103251796Y-106093701D01*
X103251797Y-106093702D01*
X103377464Y-106118700D01*
X103377467Y-106118700D01*
X105116240Y-106118700D01*
X105200784Y-106101882D01*
X105241913Y-106093701D01*
X105360296Y-106044665D01*
X105466838Y-105973477D01*
X106100696Y-105339617D01*
X106162017Y-105306134D01*
X106231708Y-105311118D01*
X106259492Y-105325721D01*
X106428093Y-105443777D01*
X106640389Y-105542772D01*
X106866649Y-105603398D01*
X107034393Y-105618074D01*
X107099999Y-105623814D01*
X107100000Y-105623814D01*
X107100001Y-105623814D01*
X107138891Y-105620411D01*
X107333351Y-105603398D01*
X107559611Y-105542772D01*
X107771907Y-105443777D01*
X107963787Y-105309421D01*
X108129421Y-105143787D01*
X108263777Y-104951907D01*
X108362772Y-104739611D01*
X108423398Y-104513351D01*
X108443814Y-104280000D01*
X108423398Y-104046649D01*
X108362772Y-103820389D01*
X108263777Y-103608093D01*
X108129421Y-103416213D01*
X107963787Y-103250579D01*
X107771907Y-103116223D01*
X107771905Y-103116222D01*
X107767472Y-103113118D01*
X107768481Y-103111676D01*
X107725712Y-103066828D01*
X107712484Y-102998222D01*
X107738447Y-102933355D01*
X107768048Y-102907705D01*
X107767472Y-102906882D01*
X107771905Y-102903777D01*
X107771907Y-102903777D01*
X107963787Y-102769421D01*
X108129421Y-102603787D01*
X108263777Y-102411907D01*
X108362772Y-102199611D01*
X108423398Y-101973351D01*
X108443814Y-101740000D01*
X108443814Y-101739999D01*
X115916186Y-101739999D01*
X115916186Y-101740000D01*
X115936601Y-101973346D01*
X115936603Y-101973356D01*
X115997225Y-102199603D01*
X115997227Y-102199607D01*
X115997228Y-102199611D01*
X116096223Y-102411907D01*
X116230579Y-102603787D01*
X116396213Y-102769421D01*
X116588093Y-102903777D01*
X116588094Y-102903777D01*
X116592528Y-102906882D01*
X116591613Y-102908187D01*
X116634787Y-102953456D01*
X116648018Y-103022061D01*
X116622058Y-103086929D01*
X116592236Y-103112779D01*
X116592778Y-103113553D01*
X116507099Y-103173544D01*
X116507098Y-103173545D01*
X117213554Y-103880000D01*
X117207339Y-103880000D01*
X117105606Y-103907259D01*
X117014394Y-103959920D01*
X116939920Y-104034394D01*
X116887259Y-104125606D01*
X116860000Y-104227339D01*
X116860000Y-104233553D01*
X116153545Y-103527098D01*
X116153544Y-103527099D01*
X116096659Y-103608341D01*
X115997701Y-103820558D01*
X115997697Y-103820567D01*
X115937097Y-104046731D01*
X115937095Y-104046741D01*
X115916688Y-104279998D01*
X115916688Y-104280001D01*
X115937095Y-104513258D01*
X115937097Y-104513268D01*
X115997697Y-104739432D01*
X115997701Y-104739441D01*
X116096657Y-104951654D01*
X116096658Y-104951656D01*
X116153545Y-105032899D01*
X116153546Y-105032900D01*
X116860000Y-104326446D01*
X116860000Y-104332661D01*
X116887259Y-104434394D01*
X116939920Y-104525606D01*
X117014394Y-104600080D01*
X117105606Y-104652741D01*
X117207339Y-104680000D01*
X117213553Y-104680000D01*
X116507098Y-105386453D01*
X116588343Y-105443341D01*
X116588345Y-105443342D01*
X116800558Y-105542298D01*
X116800567Y-105542302D01*
X117026731Y-105602902D01*
X117026741Y-105602904D01*
X117259998Y-105623312D01*
X117260002Y-105623312D01*
X117493258Y-105602904D01*
X117493268Y-105602902D01*
X117719432Y-105542302D01*
X117719441Y-105542298D01*
X117931655Y-105443342D01*
X118012900Y-105386453D01*
X117306448Y-104680000D01*
X117312661Y-104680000D01*
X117414394Y-104652741D01*
X117505606Y-104600080D01*
X117580080Y-104525606D01*
X117632741Y-104434394D01*
X117660000Y-104332661D01*
X117660000Y-104326447D01*
X118366453Y-105032900D01*
X118426447Y-104947221D01*
X118427819Y-104948181D01*
X118472885Y-104905208D01*
X118541491Y-104891982D01*
X118606357Y-104917947D01*
X118632385Y-104947984D01*
X118633118Y-104947472D01*
X118636222Y-104951905D01*
X118636223Y-104951907D01*
X118770579Y-105143787D01*
X118936213Y-105309421D01*
X119128093Y-105443777D01*
X119340389Y-105542772D01*
X119566649Y-105603398D01*
X119734393Y-105618074D01*
X119799999Y-105623814D01*
X119800000Y-105623814D01*
X119800001Y-105623814D01*
X119838891Y-105620411D01*
X120033351Y-105603398D01*
X120259611Y-105542772D01*
X120471907Y-105443777D01*
X120663787Y-105309421D01*
X120829421Y-105143787D01*
X120963777Y-104951907D01*
X120963777Y-104951905D01*
X120966882Y-104947472D01*
X120968323Y-104948481D01*
X121013172Y-104905712D01*
X121081778Y-104892484D01*
X121146645Y-104918447D01*
X121172294Y-104948048D01*
X121173118Y-104947472D01*
X121176222Y-104951905D01*
X121176223Y-104951907D01*
X121310579Y-105143787D01*
X121476213Y-105309421D01*
X121668093Y-105443777D01*
X121880389Y-105542772D01*
X122106649Y-105603398D01*
X122274393Y-105618074D01*
X122339999Y-105623814D01*
X122340000Y-105623814D01*
X122340001Y-105623814D01*
X122378891Y-105620411D01*
X122573351Y-105603398D01*
X122799611Y-105542772D01*
X123011907Y-105443777D01*
X123203787Y-105309421D01*
X123369421Y-105143787D01*
X123503777Y-104951907D01*
X123602772Y-104739611D01*
X123663398Y-104513351D01*
X123683814Y-104280000D01*
X123663398Y-104046649D01*
X123602772Y-103820389D01*
X123503777Y-103608093D01*
X123369421Y-103416213D01*
X123203787Y-103250579D01*
X123011907Y-103116223D01*
X123011905Y-103116222D01*
X123007472Y-103113118D01*
X123008481Y-103111676D01*
X122965712Y-103066828D01*
X122952484Y-102998222D01*
X122978447Y-102933355D01*
X123008048Y-102907705D01*
X123007472Y-102906882D01*
X123011905Y-102903777D01*
X123011907Y-102903777D01*
X123203787Y-102769421D01*
X123369421Y-102603787D01*
X123503777Y-102411907D01*
X123602772Y-102199611D01*
X123663398Y-101973351D01*
X123683814Y-101740000D01*
X123663398Y-101506649D01*
X123602772Y-101280389D01*
X123503777Y-101068093D01*
X123369421Y-100876213D01*
X123203787Y-100710579D01*
X123011907Y-100576223D01*
X122799611Y-100477228D01*
X122799607Y-100477227D01*
X122799603Y-100477225D01*
X122573356Y-100416603D01*
X122573346Y-100416601D01*
X122340001Y-100396186D01*
X122339999Y-100396186D01*
X122106653Y-100416601D01*
X122106643Y-100416603D01*
X121880396Y-100477225D01*
X121880389Y-100477227D01*
X121880389Y-100477228D01*
X121668093Y-100576223D01*
X121476213Y-100710579D01*
X121476211Y-100710580D01*
X121476208Y-100710583D01*
X121310583Y-100876208D01*
X121173118Y-101072528D01*
X121171680Y-101071521D01*
X121126810Y-101114297D01*
X121058202Y-101127513D01*
X120993340Y-101101540D01*
X120967702Y-101071953D01*
X120966882Y-101072528D01*
X120963777Y-101068093D01*
X120829421Y-100876213D01*
X120663787Y-100710579D01*
X120471907Y-100576223D01*
X120259611Y-100477228D01*
X120259607Y-100477227D01*
X120259603Y-100477225D01*
X120033356Y-100416603D01*
X120033346Y-100416601D01*
X119800001Y-100396186D01*
X119799999Y-100396186D01*
X119566653Y-100416601D01*
X119566643Y-100416603D01*
X119340396Y-100477225D01*
X119340389Y-100477227D01*
X119340389Y-100477228D01*
X119128093Y-100576223D01*
X118936213Y-100710579D01*
X118936211Y-100710580D01*
X118936208Y-100710583D01*
X118770583Y-100876208D01*
X118633118Y-101072528D01*
X118631680Y-101071521D01*
X118586810Y-101114297D01*
X118518202Y-101127513D01*
X118453340Y-101101540D01*
X118427702Y-101071953D01*
X118426882Y-101072528D01*
X118423777Y-101068093D01*
X118289421Y-100876213D01*
X118123787Y-100710579D01*
X117931907Y-100576223D01*
X117719611Y-100477228D01*
X117719607Y-100477227D01*
X117719603Y-100477225D01*
X117493356Y-100416603D01*
X117493346Y-100416601D01*
X117260001Y-100396186D01*
X117259999Y-100396186D01*
X117026653Y-100416601D01*
X117026643Y-100416603D01*
X116800396Y-100477225D01*
X116800389Y-100477227D01*
X116800389Y-100477228D01*
X116588093Y-100576223D01*
X116396213Y-100710579D01*
X116396211Y-100710580D01*
X116396208Y-100710583D01*
X116230583Y-100876208D01*
X116096223Y-101068093D01*
X115997229Y-101280387D01*
X115997225Y-101280396D01*
X115936603Y-101506643D01*
X115936601Y-101506653D01*
X115916186Y-101739999D01*
X108443814Y-101739999D01*
X108423398Y-101506649D01*
X108362772Y-101280389D01*
X108263777Y-101068093D01*
X108129421Y-100876213D01*
X107963787Y-100710579D01*
X107771907Y-100576223D01*
X107771905Y-100576222D01*
X107767472Y-100573118D01*
X107768481Y-100571676D01*
X107725712Y-100526828D01*
X107712484Y-100458222D01*
X107738447Y-100393355D01*
X107768048Y-100367705D01*
X107767472Y-100366882D01*
X107771905Y-100363777D01*
X107771907Y-100363777D01*
X107963787Y-100229421D01*
X108129421Y-100063787D01*
X108263777Y-99871907D01*
X108362772Y-99659611D01*
X108423398Y-99433351D01*
X108443814Y-99200000D01*
X108423398Y-98966649D01*
X108383673Y-98818392D01*
X108385336Y-98748544D01*
X108424499Y-98690681D01*
X108488727Y-98663177D01*
X108503448Y-98662300D01*
X116713712Y-98662300D01*
X116779683Y-98681305D01*
X116850478Y-98725789D01*
X116969293Y-98767364D01*
X117020745Y-98785368D01*
X117020750Y-98785369D01*
X117199996Y-98805565D01*
X117200000Y-98805565D01*
X117200004Y-98805565D01*
X117379249Y-98785369D01*
X117379252Y-98785368D01*
X117379255Y-98785368D01*
X117549522Y-98725789D01*
X117702262Y-98629816D01*
X117829816Y-98502262D01*
X117925789Y-98349522D01*
X117985368Y-98179255D01*
X118005565Y-98000000D01*
X117999007Y-97941798D01*
X117985369Y-97820750D01*
X117985368Y-97820745D01*
X117925788Y-97650476D01*
X117846186Y-97523791D01*
X117829816Y-97497738D01*
X117702262Y-97370184D01*
X117671925Y-97351122D01*
X117549523Y-97274211D01*
X117379254Y-97214631D01*
X117379249Y-97214630D01*
X117200004Y-97194435D01*
X117199996Y-97194435D01*
X117020750Y-97214630D01*
X117020745Y-97214631D01*
X116850477Y-97274211D01*
X116765714Y-97327472D01*
X116743206Y-97341615D01*
X116742125Y-97342294D01*
X116676153Y-97361300D01*
X108444711Y-97361300D01*
X108377672Y-97341615D01*
X108331917Y-97288811D01*
X108321973Y-97219653D01*
X108332327Y-97184898D01*
X108362772Y-97119611D01*
X108423398Y-96893351D01*
X108443814Y-96660000D01*
X108423398Y-96426649D01*
X108383673Y-96278392D01*
X108385336Y-96208544D01*
X108424499Y-96150681D01*
X108488727Y-96123177D01*
X108503448Y-96122300D01*
X109594932Y-96122300D01*
X109660904Y-96141306D01*
X109750477Y-96197589D01*
X109750481Y-96197590D01*
X109920737Y-96257166D01*
X109920743Y-96257167D01*
X109920745Y-96257168D01*
X109920746Y-96257168D01*
X109920750Y-96257169D01*
X110099996Y-96277365D01*
X110100000Y-96277365D01*
X110100004Y-96277365D01*
X110279249Y-96257169D01*
X110279252Y-96257168D01*
X110279255Y-96257168D01*
X110449522Y-96197589D01*
X110602262Y-96101616D01*
X110729816Y-95974062D01*
X110825789Y-95821322D01*
X110885368Y-95651055D01*
X110893568Y-95578277D01*
X110905565Y-95471803D01*
X110905565Y-95471796D01*
X110885369Y-95292550D01*
X110885368Y-95292545D01*
X110855648Y-95207611D01*
X110825789Y-95122278D01*
X110729816Y-94969538D01*
X110602262Y-94841984D01*
X110569344Y-94821300D01*
X110449523Y-94746011D01*
X110279254Y-94686431D01*
X110279249Y-94686430D01*
X110100004Y-94666235D01*
X110099996Y-94666235D01*
X109920750Y-94686430D01*
X109920737Y-94686433D01*
X109750481Y-94746009D01*
X109750477Y-94746010D01*
X109660904Y-94802294D01*
X109594932Y-94821300D01*
X108444711Y-94821300D01*
X108377672Y-94801615D01*
X108331917Y-94748811D01*
X108321973Y-94679653D01*
X108332327Y-94644898D01*
X108362772Y-94579611D01*
X108423398Y-94353351D01*
X108443814Y-94120000D01*
X108423398Y-93886649D01*
X108383673Y-93738392D01*
X108385336Y-93668544D01*
X108424499Y-93610681D01*
X108488727Y-93583177D01*
X108503448Y-93582300D01*
X118610993Y-93582300D01*
X118678032Y-93601985D01*
X118698674Y-93618619D01*
X128677126Y-103597072D01*
X128677128Y-103597073D01*
X128677132Y-103597077D01*
X128683399Y-103601264D01*
X128728204Y-103654874D01*
X128736914Y-103724198D01*
X128726893Y-103756769D01*
X128697226Y-103820391D01*
X128636603Y-104046643D01*
X128636601Y-104046653D01*
X128616186Y-104279999D01*
X128616186Y-104280000D01*
X128636601Y-104513346D01*
X128636603Y-104513356D01*
X128654019Y-104578353D01*
X128652356Y-104648203D01*
X128621925Y-104698127D01*
X126806873Y-106513181D01*
X126745550Y-106546666D01*
X126719192Y-106549500D01*
X102820808Y-106549500D01*
X102753769Y-106529815D01*
X102733127Y-106513181D01*
X95721722Y-99501776D01*
X95688237Y-99440453D01*
X95686182Y-99427973D01*
X95685368Y-99420745D01*
X95625789Y-99250478D01*
X95529816Y-99097738D01*
X95402262Y-98970184D01*
X95396627Y-98966643D01*
X95249523Y-98874211D01*
X95079254Y-98814631D01*
X95079249Y-98814630D01*
X94900004Y-98794435D01*
X94899996Y-98794435D01*
X94720750Y-98814630D01*
X94720745Y-98814631D01*
X94550476Y-98874211D01*
X94397737Y-98970184D01*
X94270184Y-99097737D01*
X94174211Y-99250476D01*
X94114631Y-99420745D01*
X94114630Y-99420750D01*
X94094435Y-99599996D01*
X94094435Y-99600003D01*
X94114630Y-99779249D01*
X94114631Y-99779254D01*
X94174211Y-99949523D01*
X94246011Y-100063791D01*
X94270184Y-100102262D01*
X94397738Y-100229816D01*
X94550478Y-100325789D01*
X94720745Y-100385368D01*
X94727974Y-100386182D01*
X94792388Y-100413246D01*
X94801776Y-100421722D01*
X102085325Y-107705272D01*
X102085326Y-107705273D01*
X102085329Y-107705275D01*
X102085331Y-107705277D01*
X102191873Y-107776465D01*
X102310256Y-107825501D01*
X102310260Y-107825501D01*
X102310261Y-107825502D01*
X102435928Y-107850500D01*
X102435931Y-107850500D01*
X127104071Y-107850500D01*
X127188615Y-107833682D01*
X127229744Y-107825501D01*
X127348127Y-107776465D01*
X127454669Y-107705277D01*
X129541872Y-105618072D01*
X129603193Y-105584589D01*
X129661644Y-105585980D01*
X129681378Y-105591267D01*
X129726649Y-105603398D01*
X129894393Y-105618074D01*
X129959999Y-105623814D01*
X129960000Y-105623814D01*
X129960001Y-105623814D01*
X129998891Y-105620411D01*
X130193351Y-105603398D01*
X130419611Y-105542772D01*
X130631907Y-105443777D01*
X130823787Y-105309421D01*
X130989421Y-105143787D01*
X131123777Y-104951907D01*
X131123777Y-104951905D01*
X131126882Y-104947472D01*
X131128323Y-104948481D01*
X131173172Y-104905712D01*
X131241778Y-104892484D01*
X131306645Y-104918447D01*
X131332294Y-104948048D01*
X131333118Y-104947472D01*
X131336222Y-104951905D01*
X131336223Y-104951907D01*
X131470579Y-105143787D01*
X131636213Y-105309421D01*
X131828093Y-105443777D01*
X132040389Y-105542772D01*
X132266649Y-105603398D01*
X132434393Y-105618074D01*
X132499999Y-105623814D01*
X132500000Y-105623814D01*
X132500001Y-105623814D01*
X132538891Y-105620411D01*
X132733351Y-105603398D01*
X132959611Y-105542772D01*
X133171907Y-105443777D01*
X133363787Y-105309421D01*
X133529421Y-105143787D01*
X133663777Y-104951907D01*
X133663777Y-104951905D01*
X133666882Y-104947472D01*
X133668323Y-104948481D01*
X133713172Y-104905712D01*
X133781778Y-104892484D01*
X133846645Y-104918447D01*
X133872294Y-104948048D01*
X133873118Y-104947472D01*
X133876222Y-104951905D01*
X133876223Y-104951907D01*
X134010579Y-105143787D01*
X134176213Y-105309421D01*
X134368093Y-105443777D01*
X134580389Y-105542772D01*
X134806649Y-105603398D01*
X134974393Y-105618074D01*
X135039999Y-105623814D01*
X135040000Y-105623814D01*
X135040001Y-105623814D01*
X135078891Y-105620411D01*
X135273351Y-105603398D01*
X135499611Y-105542772D01*
X135711907Y-105443777D01*
X135903787Y-105309421D01*
X136069421Y-105143787D01*
X136203777Y-104951907D01*
X136203777Y-104951905D01*
X136206882Y-104947472D01*
X136208323Y-104948481D01*
X136253172Y-104905712D01*
X136321778Y-104892484D01*
X136386645Y-104918447D01*
X136412294Y-104948048D01*
X136413118Y-104947472D01*
X136416222Y-104951905D01*
X136416223Y-104951907D01*
X136550579Y-105143787D01*
X136716213Y-105309421D01*
X136908093Y-105443777D01*
X137120389Y-105542772D01*
X137346649Y-105603398D01*
X137514393Y-105618074D01*
X137579999Y-105623814D01*
X137580000Y-105623814D01*
X137580001Y-105623814D01*
X137618891Y-105620411D01*
X137813351Y-105603398D01*
X138039611Y-105542772D01*
X138251907Y-105443777D01*
X138443787Y-105309421D01*
X138609421Y-105143787D01*
X138743777Y-104951907D01*
X138743777Y-104951905D01*
X138746882Y-104947472D01*
X138748323Y-104948481D01*
X138793172Y-104905712D01*
X138861778Y-104892484D01*
X138926645Y-104918447D01*
X138952294Y-104948048D01*
X138953118Y-104947472D01*
X138956222Y-104951905D01*
X138956223Y-104951907D01*
X139090579Y-105143787D01*
X139256213Y-105309421D01*
X139448093Y-105443777D01*
X139660389Y-105542772D01*
X139886649Y-105603398D01*
X140054393Y-105618074D01*
X140119999Y-105623814D01*
X140120000Y-105623814D01*
X140120001Y-105623814D01*
X140158891Y-105620411D01*
X140353351Y-105603398D01*
X140579611Y-105542772D01*
X140791907Y-105443777D01*
X140983787Y-105309421D01*
X141149421Y-105143787D01*
X141283777Y-104951907D01*
X141382772Y-104739611D01*
X141443398Y-104513351D01*
X141463814Y-104280000D01*
X141443398Y-104046649D01*
X141382772Y-103820389D01*
X141283777Y-103608093D01*
X141149421Y-103416213D01*
X140983787Y-103250579D01*
X140791907Y-103116223D01*
X140791905Y-103116222D01*
X140787472Y-103113118D01*
X140788481Y-103111676D01*
X140745712Y-103066828D01*
X140732484Y-102998222D01*
X140758447Y-102933355D01*
X140788048Y-102907705D01*
X140787472Y-102906882D01*
X140791905Y-102903777D01*
X140791907Y-102903777D01*
X140983787Y-102769421D01*
X141149421Y-102603787D01*
X141283777Y-102411907D01*
X141382772Y-102199611D01*
X141443398Y-101973351D01*
X141463814Y-101740000D01*
X141443398Y-101506649D01*
X141382772Y-101280389D01*
X141283777Y-101068093D01*
X141149421Y-100876213D01*
X140983787Y-100710579D01*
X140791907Y-100576223D01*
X140791905Y-100576222D01*
X140787472Y-100573118D01*
X140788481Y-100571676D01*
X140745712Y-100526828D01*
X140732484Y-100458222D01*
X140758447Y-100393355D01*
X140788048Y-100367705D01*
X140787472Y-100366882D01*
X140791905Y-100363777D01*
X140791907Y-100363777D01*
X140983787Y-100229421D01*
X141149421Y-100063787D01*
X141283777Y-99871907D01*
X141382772Y-99659611D01*
X141443398Y-99433351D01*
X141463814Y-99200000D01*
X141443398Y-98966649D01*
X141382772Y-98740389D01*
X141283777Y-98528093D01*
X141149421Y-98336213D01*
X140983787Y-98170579D01*
X140791907Y-98036223D01*
X140791905Y-98036222D01*
X140787472Y-98033118D01*
X140788481Y-98031676D01*
X140745712Y-97986828D01*
X140732484Y-97918222D01*
X140758447Y-97853355D01*
X140788048Y-97827705D01*
X140787472Y-97826882D01*
X140791905Y-97823777D01*
X140791907Y-97823777D01*
X140983787Y-97689421D01*
X141149421Y-97523787D01*
X141283777Y-97331907D01*
X141382772Y-97119611D01*
X141443398Y-96893351D01*
X141463814Y-96660000D01*
X141443398Y-96426649D01*
X141382772Y-96200389D01*
X141283777Y-95988093D01*
X141149421Y-95796213D01*
X140983787Y-95630579D01*
X140791907Y-95496223D01*
X140791905Y-95496222D01*
X140787472Y-95493118D01*
X140788481Y-95491676D01*
X140745712Y-95446828D01*
X140732484Y-95378222D01*
X140758447Y-95313355D01*
X140788048Y-95287705D01*
X140787472Y-95286882D01*
X140791905Y-95283777D01*
X140791907Y-95283777D01*
X140983787Y-95149421D01*
X141149421Y-94983787D01*
X141283777Y-94791907D01*
X141382772Y-94579611D01*
X141443398Y-94353351D01*
X141463814Y-94120000D01*
X141443398Y-93886649D01*
X141382772Y-93660389D01*
X141283777Y-93448093D01*
X141149421Y-93256213D01*
X140983787Y-93090579D01*
X140791907Y-92956223D01*
X140791905Y-92956222D01*
X140787472Y-92953118D01*
X140788481Y-92951676D01*
X140745712Y-92906828D01*
X140732484Y-92838222D01*
X140758447Y-92773355D01*
X140788048Y-92747705D01*
X140787472Y-92746882D01*
X140791905Y-92743777D01*
X140791907Y-92743777D01*
X140983787Y-92609421D01*
X141149421Y-92443787D01*
X141283777Y-92251907D01*
X141382772Y-92039611D01*
X141443398Y-91813351D01*
X141463814Y-91580000D01*
X141443398Y-91346649D01*
X141382772Y-91120389D01*
X141283777Y-90908093D01*
X141149421Y-90716213D01*
X140983787Y-90550579D01*
X140791907Y-90416223D01*
X140791905Y-90416222D01*
X140787472Y-90413118D01*
X140788481Y-90411676D01*
X140745712Y-90366828D01*
X140732484Y-90298222D01*
X140758447Y-90233355D01*
X140788048Y-90207705D01*
X140787472Y-90206882D01*
X140791905Y-90203777D01*
X140791907Y-90203777D01*
X140983787Y-90069421D01*
X141149421Y-89903787D01*
X141283777Y-89711907D01*
X141382772Y-89499611D01*
X141443398Y-89273351D01*
X141463814Y-89040000D01*
X141443398Y-88806649D01*
X141382772Y-88580389D01*
X141283777Y-88368093D01*
X141149421Y-88176213D01*
X140983787Y-88010579D01*
X140791907Y-87876223D01*
X140791905Y-87876222D01*
X140787472Y-87873118D01*
X140788481Y-87871676D01*
X140745712Y-87826828D01*
X140732484Y-87758222D01*
X140758447Y-87693355D01*
X140788048Y-87667705D01*
X140787472Y-87666882D01*
X140791905Y-87663777D01*
X140791907Y-87663777D01*
X140983787Y-87529421D01*
X141149421Y-87363787D01*
X141283777Y-87171907D01*
X141382772Y-86959611D01*
X141443398Y-86733351D01*
X141463814Y-86500000D01*
X141443398Y-86266649D01*
X141382772Y-86040389D01*
X141283777Y-85828093D01*
X141149421Y-85636213D01*
X140983787Y-85470579D01*
X140791907Y-85336223D01*
X140791905Y-85336222D01*
X140787472Y-85333118D01*
X140788481Y-85331676D01*
X140745712Y-85286828D01*
X140732484Y-85218222D01*
X140758447Y-85153355D01*
X140788048Y-85127705D01*
X140787472Y-85126882D01*
X140791905Y-85123777D01*
X140791907Y-85123777D01*
X140983787Y-84989421D01*
X141149421Y-84823787D01*
X141283777Y-84631907D01*
X141382772Y-84419611D01*
X141443398Y-84193351D01*
X141463814Y-83960000D01*
X141443398Y-83726649D01*
X141382772Y-83500389D01*
X141283777Y-83288093D01*
X141149421Y-83096213D01*
X140983787Y-82930579D01*
X140791907Y-82796223D01*
X140791905Y-82796222D01*
X140787472Y-82793118D01*
X140788481Y-82791676D01*
X140745712Y-82746828D01*
X140732484Y-82678222D01*
X140758447Y-82613355D01*
X140788048Y-82587705D01*
X140787472Y-82586882D01*
X140791905Y-82583777D01*
X140791907Y-82583777D01*
X140983787Y-82449421D01*
X141149421Y-82283787D01*
X141283777Y-82091907D01*
X141382772Y-81879611D01*
X141443398Y-81653351D01*
X141463814Y-81420000D01*
X141443398Y-81186649D01*
X141382772Y-80960389D01*
X141283777Y-80748093D01*
X141149421Y-80556213D01*
X140983787Y-80390579D01*
X140791907Y-80256223D01*
X140791905Y-80256222D01*
X140787472Y-80253118D01*
X140788481Y-80251676D01*
X140745712Y-80206828D01*
X140732484Y-80138222D01*
X140758447Y-80073355D01*
X140788048Y-80047705D01*
X140787472Y-80046882D01*
X140791905Y-80043777D01*
X140791907Y-80043777D01*
X140983787Y-79909421D01*
X141149421Y-79743787D01*
X141283777Y-79551907D01*
X141382772Y-79339611D01*
X141443398Y-79113351D01*
X141463814Y-78880000D01*
X141443398Y-78646649D01*
X141382772Y-78420389D01*
X141283777Y-78208093D01*
X141149421Y-78016213D01*
X140983787Y-77850579D01*
X140791907Y-77716223D01*
X140791905Y-77716222D01*
X140787472Y-77713118D01*
X140788481Y-77711676D01*
X140745712Y-77666828D01*
X140732484Y-77598222D01*
X140758447Y-77533355D01*
X140788048Y-77507705D01*
X140787472Y-77506882D01*
X140791905Y-77503777D01*
X140791907Y-77503777D01*
X140983787Y-77369421D01*
X141149421Y-77203787D01*
X141283777Y-77011907D01*
X141382772Y-76799611D01*
X141443398Y-76573351D01*
X141463814Y-76340000D01*
X141443398Y-76106649D01*
X141382772Y-75880389D01*
X141283777Y-75668093D01*
X141149421Y-75476213D01*
X140983787Y-75310579D01*
X140791907Y-75176223D01*
X140791905Y-75176222D01*
X140787472Y-75173118D01*
X140788481Y-75171676D01*
X140745712Y-75126828D01*
X140732484Y-75058222D01*
X140758447Y-74993355D01*
X140788048Y-74967705D01*
X140787472Y-74966882D01*
X140791905Y-74963777D01*
X140791907Y-74963777D01*
X140983787Y-74829421D01*
X141149421Y-74663787D01*
X141283777Y-74471907D01*
X141382772Y-74259611D01*
X141443398Y-74033351D01*
X141463814Y-73800000D01*
X141443398Y-73566649D01*
X141382772Y-73340389D01*
X141283777Y-73128093D01*
X141149421Y-72936213D01*
X140983787Y-72770579D01*
X140791907Y-72636223D01*
X140791905Y-72636222D01*
X140787472Y-72633118D01*
X140788481Y-72631676D01*
X140745712Y-72586828D01*
X140732484Y-72518222D01*
X140758447Y-72453355D01*
X140788048Y-72427705D01*
X140787472Y-72426882D01*
X140791905Y-72423777D01*
X140791907Y-72423777D01*
X140983787Y-72289421D01*
X141149421Y-72123787D01*
X141283777Y-71931907D01*
X141382772Y-71719611D01*
X141443398Y-71493351D01*
X141463814Y-71260000D01*
X141443398Y-71026649D01*
X141382772Y-70800389D01*
X141283777Y-70588093D01*
X141149421Y-70396213D01*
X140983787Y-70230579D01*
X140791907Y-70096223D01*
X140791905Y-70096222D01*
X140787472Y-70093118D01*
X140788481Y-70091676D01*
X140745712Y-70046828D01*
X140732484Y-69978222D01*
X140758447Y-69913355D01*
X140788048Y-69887705D01*
X140787472Y-69886882D01*
X140791905Y-69883777D01*
X140791907Y-69883777D01*
X140983787Y-69749421D01*
X141149421Y-69583787D01*
X141283777Y-69391907D01*
X141382772Y-69179611D01*
X141443398Y-68953351D01*
X141463814Y-68720000D01*
X141443398Y-68486649D01*
X141382772Y-68260389D01*
X141283777Y-68048093D01*
X141149421Y-67856213D01*
X140983787Y-67690579D01*
X140791907Y-67556223D01*
X140791905Y-67556222D01*
X140787472Y-67553118D01*
X140788481Y-67551676D01*
X140745712Y-67506828D01*
X140732484Y-67438222D01*
X140758447Y-67373355D01*
X140788048Y-67347705D01*
X140787472Y-67346882D01*
X140791905Y-67343777D01*
X140791907Y-67343777D01*
X140983787Y-67209421D01*
X141149421Y-67043787D01*
X141283777Y-66851907D01*
X141382772Y-66639611D01*
X141443398Y-66413351D01*
X141463814Y-66180000D01*
X141443398Y-65946649D01*
X141382772Y-65720389D01*
X141283777Y-65508093D01*
X141149421Y-65316213D01*
X140983787Y-65150579D01*
X140791907Y-65016223D01*
X140579611Y-64917228D01*
X140579607Y-64917227D01*
X140579603Y-64917225D01*
X140353356Y-64856603D01*
X140353346Y-64856601D01*
X140120001Y-64836186D01*
X140119999Y-64836186D01*
X139886653Y-64856601D01*
X139886643Y-64856603D01*
X139660396Y-64917225D01*
X139660389Y-64917227D01*
X139660389Y-64917228D01*
X139448093Y-65016223D01*
X139256213Y-65150579D01*
X139256211Y-65150580D01*
X139256208Y-65150583D01*
X139090583Y-65316208D01*
X139090580Y-65316211D01*
X139090579Y-65316213D01*
X139024726Y-65410261D01*
X138953118Y-65512528D01*
X138951680Y-65511521D01*
X138906810Y-65554297D01*
X138838202Y-65567513D01*
X138773340Y-65541540D01*
X138747702Y-65511953D01*
X138746882Y-65512528D01*
X138743777Y-65508093D01*
X138609421Y-65316213D01*
X138443787Y-65150579D01*
X138251907Y-65016223D01*
X138039611Y-64917228D01*
X138039607Y-64917227D01*
X138039603Y-64917225D01*
X137813356Y-64856603D01*
X137813346Y-64856601D01*
X137580001Y-64836186D01*
X137579999Y-64836186D01*
X137346653Y-64856601D01*
X137346643Y-64856603D01*
X137120396Y-64917225D01*
X137120389Y-64917227D01*
X137120389Y-64917228D01*
X136908093Y-65016223D01*
X136716213Y-65150579D01*
X136716211Y-65150580D01*
X136716208Y-65150583D01*
X136550583Y-65316208D01*
X136550580Y-65316211D01*
X136550579Y-65316213D01*
X136416223Y-65508093D01*
X136334086Y-65684238D01*
X136317229Y-65720387D01*
X136317225Y-65720396D01*
X136256603Y-65946643D01*
X136256601Y-65946653D01*
X136236186Y-66179999D01*
X136236186Y-66180000D01*
X136256601Y-66413346D01*
X136256603Y-66413356D01*
X136317225Y-66639603D01*
X136317227Y-66639607D01*
X136317228Y-66639611D01*
X136416223Y-66851907D01*
X136550579Y-67043787D01*
X136716213Y-67209421D01*
X136908093Y-67343777D01*
X136908094Y-67343777D01*
X136912528Y-67346882D01*
X136911521Y-67348319D01*
X136954297Y-67393190D01*
X136967513Y-67461798D01*
X136941540Y-67526660D01*
X136911953Y-67552297D01*
X136912528Y-67553118D01*
X136908094Y-67556222D01*
X136908093Y-67556223D01*
X136716213Y-67690579D01*
X136716211Y-67690580D01*
X136716208Y-67690583D01*
X136550583Y-67856208D01*
X136550580Y-67856211D01*
X136550579Y-67856213D01*
X136416223Y-68048093D01*
X136334086Y-68224238D01*
X136317229Y-68260387D01*
X136317225Y-68260396D01*
X136256603Y-68486643D01*
X136256601Y-68486653D01*
X136236186Y-68719999D01*
X136236186Y-68720000D01*
X136256601Y-68953346D01*
X136256603Y-68953356D01*
X136317225Y-69179603D01*
X136317227Y-69179607D01*
X136317228Y-69179611D01*
X136416223Y-69391907D01*
X136550579Y-69583787D01*
X136716213Y-69749421D01*
X136908093Y-69883777D01*
X136908094Y-69883777D01*
X136912528Y-69886882D01*
X136911521Y-69888319D01*
X136954297Y-69933190D01*
X136967513Y-70001798D01*
X136941540Y-70066660D01*
X136911953Y-70092297D01*
X136912528Y-70093118D01*
X136908094Y-70096222D01*
X136908093Y-70096223D01*
X136716213Y-70230579D01*
X136716211Y-70230580D01*
X136716208Y-70230583D01*
X136550583Y-70396208D01*
X136550580Y-70396211D01*
X136550579Y-70396213D01*
X136416223Y-70588093D01*
X136334086Y-70764238D01*
X136317229Y-70800387D01*
X136317225Y-70800396D01*
X136256603Y-71026643D01*
X136256601Y-71026653D01*
X136236186Y-71259999D01*
X136236186Y-71260000D01*
X136256601Y-71493346D01*
X136256603Y-71493356D01*
X136317225Y-71719603D01*
X136317227Y-71719607D01*
X136317228Y-71719611D01*
X136416223Y-71931907D01*
X136550579Y-72123787D01*
X136716213Y-72289421D01*
X136908093Y-72423777D01*
X136908094Y-72423777D01*
X136912528Y-72426882D01*
X136911521Y-72428319D01*
X136954297Y-72473190D01*
X136967513Y-72541798D01*
X136941540Y-72606660D01*
X136911953Y-72632297D01*
X136912528Y-72633118D01*
X136908094Y-72636222D01*
X136908093Y-72636223D01*
X136716213Y-72770579D01*
X136716211Y-72770580D01*
X136716208Y-72770583D01*
X136550583Y-72936208D01*
X136550580Y-72936211D01*
X136550579Y-72936213D01*
X136416223Y-73128093D01*
X136334086Y-73304238D01*
X136317229Y-73340387D01*
X136317225Y-73340396D01*
X136256603Y-73566643D01*
X136256601Y-73566653D01*
X136236186Y-73799999D01*
X136236186Y-73800000D01*
X136256601Y-74033346D01*
X136256603Y-74033356D01*
X136317225Y-74259603D01*
X136317227Y-74259607D01*
X136317228Y-74259611D01*
X136416223Y-74471907D01*
X136550579Y-74663787D01*
X136716213Y-74829421D01*
X136908093Y-74963777D01*
X136908094Y-74963777D01*
X136912528Y-74966882D01*
X136911521Y-74968319D01*
X136954297Y-75013190D01*
X136967513Y-75081798D01*
X136941540Y-75146660D01*
X136911953Y-75172297D01*
X136912528Y-75173118D01*
X136908094Y-75176222D01*
X136908093Y-75176223D01*
X136716213Y-75310579D01*
X136716211Y-75310580D01*
X136716208Y-75310583D01*
X136550583Y-75476208D01*
X136550580Y-75476211D01*
X136550579Y-75476213D01*
X136416223Y-75668093D01*
X136326031Y-75861512D01*
X136317229Y-75880387D01*
X136317225Y-75880396D01*
X136256603Y-76106643D01*
X136256601Y-76106653D01*
X136236186Y-76339999D01*
X136236186Y-76340000D01*
X136256601Y-76573346D01*
X136256603Y-76573356D01*
X136317225Y-76799603D01*
X136317227Y-76799607D01*
X136317228Y-76799611D01*
X136416223Y-77011907D01*
X136550579Y-77203787D01*
X136716213Y-77369421D01*
X136908093Y-77503777D01*
X136908094Y-77503777D01*
X136912528Y-77506882D01*
X136911521Y-77508319D01*
X136954297Y-77553190D01*
X136967513Y-77621798D01*
X136941540Y-77686660D01*
X136911953Y-77712297D01*
X136912528Y-77713118D01*
X136908094Y-77716222D01*
X136908093Y-77716223D01*
X136716213Y-77850579D01*
X136716211Y-77850580D01*
X136716208Y-77850583D01*
X136550583Y-78016208D01*
X136550580Y-78016211D01*
X136550579Y-78016213D01*
X136416223Y-78208093D01*
X136334086Y-78384238D01*
X136317229Y-78420387D01*
X136317225Y-78420396D01*
X136256603Y-78646643D01*
X136256601Y-78646653D01*
X136236186Y-78879999D01*
X136236186Y-78880000D01*
X136256601Y-79113346D01*
X136256603Y-79113356D01*
X136317225Y-79339603D01*
X136317227Y-79339607D01*
X136317228Y-79339611D01*
X136416223Y-79551907D01*
X136550579Y-79743787D01*
X136716213Y-79909421D01*
X136908093Y-80043777D01*
X136908094Y-80043777D01*
X136912528Y-80046882D01*
X136911521Y-80048319D01*
X136954297Y-80093190D01*
X136967513Y-80161798D01*
X136941540Y-80226660D01*
X136911953Y-80252297D01*
X136912528Y-80253118D01*
X136908094Y-80256222D01*
X136908093Y-80256223D01*
X136716213Y-80390579D01*
X136716211Y-80390580D01*
X136716208Y-80390583D01*
X136550583Y-80556208D01*
X136550580Y-80556211D01*
X136550579Y-80556213D01*
X136416223Y-80748093D01*
X136334086Y-80924238D01*
X136317229Y-80960387D01*
X136317225Y-80960396D01*
X136256603Y-81186643D01*
X136256601Y-81186653D01*
X136236186Y-81419999D01*
X136236186Y-81420000D01*
X136256601Y-81653346D01*
X136256603Y-81653356D01*
X136317225Y-81879603D01*
X136317227Y-81879607D01*
X136317228Y-81879611D01*
X136416223Y-82091907D01*
X136550579Y-82283787D01*
X136716213Y-82449421D01*
X136908093Y-82583777D01*
X136908094Y-82583777D01*
X136912528Y-82586882D01*
X136911521Y-82588319D01*
X136954297Y-82633190D01*
X136967513Y-82701798D01*
X136941540Y-82766660D01*
X136911953Y-82792297D01*
X136912528Y-82793118D01*
X136908094Y-82796222D01*
X136908093Y-82796223D01*
X136716213Y-82930579D01*
X136716211Y-82930580D01*
X136716208Y-82930583D01*
X136550583Y-83096208D01*
X136550580Y-83096211D01*
X136550579Y-83096213D01*
X136416223Y-83288093D01*
X136334086Y-83464238D01*
X136317229Y-83500387D01*
X136317225Y-83500396D01*
X136256603Y-83726643D01*
X136256601Y-83726653D01*
X136236186Y-83959999D01*
X136236186Y-83960000D01*
X136256601Y-84193346D01*
X136256603Y-84193356D01*
X136317225Y-84419603D01*
X136317227Y-84419607D01*
X136317228Y-84419611D01*
X136416223Y-84631907D01*
X136550579Y-84823787D01*
X136716213Y-84989421D01*
X136908093Y-85123777D01*
X136908094Y-85123777D01*
X136912528Y-85126882D01*
X136911521Y-85128319D01*
X136954297Y-85173190D01*
X136967513Y-85241798D01*
X136941540Y-85306660D01*
X136911953Y-85332297D01*
X136912528Y-85333118D01*
X136908094Y-85336222D01*
X136908093Y-85336223D01*
X136716213Y-85470579D01*
X136716211Y-85470580D01*
X136716208Y-85470583D01*
X136550583Y-85636208D01*
X136550580Y-85636211D01*
X136550579Y-85636213D01*
X136416223Y-85828093D01*
X136334086Y-86004238D01*
X136317229Y-86040387D01*
X136317225Y-86040396D01*
X136256603Y-86266643D01*
X136256601Y-86266653D01*
X136236186Y-86499999D01*
X136236186Y-86500000D01*
X136256601Y-86733346D01*
X136256603Y-86733356D01*
X136317225Y-86959603D01*
X136317227Y-86959607D01*
X136317228Y-86959611D01*
X136416223Y-87171907D01*
X136550579Y-87363787D01*
X136716213Y-87529421D01*
X136908093Y-87663777D01*
X136908094Y-87663777D01*
X136912528Y-87666882D01*
X136911521Y-87668319D01*
X136954297Y-87713190D01*
X136967513Y-87781798D01*
X136941540Y-87846660D01*
X136911953Y-87872297D01*
X136912528Y-87873118D01*
X136908094Y-87876222D01*
X136908093Y-87876223D01*
X136716213Y-88010579D01*
X136716211Y-88010580D01*
X136716208Y-88010583D01*
X136550583Y-88176208D01*
X136416223Y-88368093D01*
X136317229Y-88580387D01*
X136317225Y-88580396D01*
X136256603Y-88806643D01*
X136256601Y-88806653D01*
X136236186Y-89039999D01*
X136236186Y-89040000D01*
X136256601Y-89273346D01*
X136256603Y-89273356D01*
X136317225Y-89499603D01*
X136317227Y-89499607D01*
X136317228Y-89499611D01*
X136416223Y-89711907D01*
X136550579Y-89903787D01*
X136716213Y-90069421D01*
X136908093Y-90203777D01*
X136908094Y-90203777D01*
X136912528Y-90206882D01*
X136911521Y-90208319D01*
X136954297Y-90253190D01*
X136967513Y-90321798D01*
X136941540Y-90386660D01*
X136911953Y-90412297D01*
X136912528Y-90413118D01*
X136908094Y-90416222D01*
X136908093Y-90416223D01*
X136716213Y-90550579D01*
X136716211Y-90550580D01*
X136716208Y-90550583D01*
X136550583Y-90716208D01*
X136550580Y-90716211D01*
X136550579Y-90716213D01*
X136457235Y-90849522D01*
X136416223Y-90908093D01*
X136317229Y-91120387D01*
X136317225Y-91120396D01*
X136256603Y-91346643D01*
X136256601Y-91346653D01*
X136236186Y-91579999D01*
X136236186Y-91580000D01*
X136256601Y-91813346D01*
X136256603Y-91813356D01*
X136317225Y-92039603D01*
X136317227Y-92039607D01*
X136317228Y-92039611D01*
X136416223Y-92251907D01*
X136550579Y-92443787D01*
X136716213Y-92609421D01*
X136908093Y-92743777D01*
X136908094Y-92743777D01*
X136912528Y-92746882D01*
X136911521Y-92748319D01*
X136954297Y-92793190D01*
X136967513Y-92861798D01*
X136941540Y-92926660D01*
X136911953Y-92952297D01*
X136912528Y-92953118D01*
X136908094Y-92956222D01*
X136908093Y-92956223D01*
X136716213Y-93090579D01*
X136716211Y-93090580D01*
X136716208Y-93090583D01*
X136550583Y-93256208D01*
X136550580Y-93256211D01*
X136550579Y-93256213D01*
X136416223Y-93448093D01*
X136317229Y-93660387D01*
X136317225Y-93660396D01*
X136256603Y-93886643D01*
X136256601Y-93886653D01*
X136236186Y-94119999D01*
X136236186Y-94120000D01*
X136256601Y-94353346D01*
X136256603Y-94353356D01*
X136317225Y-94579603D01*
X136317227Y-94579607D01*
X136317228Y-94579611D01*
X136416223Y-94791907D01*
X136550579Y-94983787D01*
X136716213Y-95149421D01*
X136908093Y-95283777D01*
X136908094Y-95283777D01*
X136912528Y-95286882D01*
X136911521Y-95288319D01*
X136954297Y-95333190D01*
X136967513Y-95401798D01*
X136941540Y-95466660D01*
X136911953Y-95492297D01*
X136912528Y-95493118D01*
X136908094Y-95496222D01*
X136908093Y-95496223D01*
X136716213Y-95630579D01*
X136716211Y-95630580D01*
X136716208Y-95630583D01*
X136550583Y-95796208D01*
X136550580Y-95796211D01*
X136550579Y-95796213D01*
X136416223Y-95988093D01*
X136363287Y-96101616D01*
X136317229Y-96200387D01*
X136317225Y-96200396D01*
X136256603Y-96426643D01*
X136256601Y-96426653D01*
X136236186Y-96659999D01*
X136236186Y-96660000D01*
X136256601Y-96893346D01*
X136256603Y-96893356D01*
X136317225Y-97119603D01*
X136317227Y-97119607D01*
X136317228Y-97119611D01*
X136416223Y-97331907D01*
X136550579Y-97523787D01*
X136716213Y-97689421D01*
X136908093Y-97823777D01*
X136908094Y-97823777D01*
X136912528Y-97826882D01*
X136911521Y-97828319D01*
X136954297Y-97873190D01*
X136967513Y-97941798D01*
X136941540Y-98006660D01*
X136911953Y-98032297D01*
X136912528Y-98033118D01*
X136908094Y-98036222D01*
X136908093Y-98036223D01*
X136716213Y-98170579D01*
X136716211Y-98170580D01*
X136716208Y-98170583D01*
X136550583Y-98336208D01*
X136550580Y-98336211D01*
X136550579Y-98336213D01*
X136434310Y-98502262D01*
X136416223Y-98528093D01*
X136317229Y-98740387D01*
X136317225Y-98740396D01*
X136256603Y-98966643D01*
X136256601Y-98966653D01*
X136236186Y-99199999D01*
X136236186Y-99200000D01*
X136256601Y-99433346D01*
X136256603Y-99433356D01*
X136317225Y-99659603D01*
X136317227Y-99659607D01*
X136317228Y-99659611D01*
X136416223Y-99871907D01*
X136550579Y-100063787D01*
X136716213Y-100229421D01*
X136908093Y-100363777D01*
X136908094Y-100363777D01*
X136912528Y-100366882D01*
X136911521Y-100368319D01*
X136954297Y-100413190D01*
X136967513Y-100481798D01*
X136941540Y-100546660D01*
X136911953Y-100572297D01*
X136912528Y-100573118D01*
X136908094Y-100576222D01*
X136908093Y-100576223D01*
X136716213Y-100710579D01*
X136716211Y-100710580D01*
X136716208Y-100710583D01*
X136550583Y-100876208D01*
X136413118Y-101072528D01*
X136411680Y-101071521D01*
X136366810Y-101114297D01*
X136298202Y-101127513D01*
X136233340Y-101101540D01*
X136207702Y-101071953D01*
X136206882Y-101072528D01*
X136203777Y-101068093D01*
X136069421Y-100876213D01*
X135903787Y-100710579D01*
X135711907Y-100576223D01*
X135499611Y-100477228D01*
X135499607Y-100477227D01*
X135499603Y-100477225D01*
X135273356Y-100416603D01*
X135273346Y-100416601D01*
X135040001Y-100396186D01*
X135039999Y-100396186D01*
X134806653Y-100416601D01*
X134806643Y-100416603D01*
X134580396Y-100477225D01*
X134580389Y-100477227D01*
X134580389Y-100477228D01*
X134368093Y-100576223D01*
X134176213Y-100710579D01*
X134176211Y-100710580D01*
X134176208Y-100710583D01*
X134010583Y-100876208D01*
X133873118Y-101072528D01*
X133871680Y-101071521D01*
X133826810Y-101114297D01*
X133758202Y-101127513D01*
X133693340Y-101101540D01*
X133667702Y-101071953D01*
X133666882Y-101072528D01*
X133663777Y-101068093D01*
X133529421Y-100876213D01*
X133363787Y-100710579D01*
X133171907Y-100576223D01*
X132959611Y-100477228D01*
X132959607Y-100477227D01*
X132959603Y-100477225D01*
X132733356Y-100416603D01*
X132733346Y-100416601D01*
X132500001Y-100396186D01*
X132499999Y-100396186D01*
X132266653Y-100416601D01*
X132266643Y-100416603D01*
X132040396Y-100477225D01*
X132040389Y-100477227D01*
X132040389Y-100477228D01*
X131828093Y-100576223D01*
X131636213Y-100710579D01*
X131636211Y-100710580D01*
X131636208Y-100710583D01*
X131470583Y-100876208D01*
X131333118Y-101072528D01*
X131331680Y-101071521D01*
X131286810Y-101114297D01*
X131218202Y-101127513D01*
X131153340Y-101101540D01*
X131127702Y-101071953D01*
X131126882Y-101072528D01*
X131123777Y-101068093D01*
X130989421Y-100876213D01*
X130823787Y-100710579D01*
X130631907Y-100576223D01*
X130419611Y-100477228D01*
X130419607Y-100477227D01*
X130419603Y-100477225D01*
X130193356Y-100416603D01*
X130193346Y-100416601D01*
X129960001Y-100396186D01*
X129959999Y-100396186D01*
X129726653Y-100416601D01*
X129726643Y-100416603D01*
X129500396Y-100477225D01*
X129500389Y-100477227D01*
X129500389Y-100477228D01*
X129288093Y-100576223D01*
X129096213Y-100710579D01*
X129096211Y-100710580D01*
X129096208Y-100710583D01*
X128930583Y-100876208D01*
X128796223Y-101068093D01*
X128697229Y-101280387D01*
X128697225Y-101280396D01*
X128647810Y-101464819D01*
X128611445Y-101524480D01*
X128548598Y-101555009D01*
X128479223Y-101546714D01*
X128440354Y-101520407D01*
X123015840Y-96095893D01*
X122982355Y-96034570D01*
X122987339Y-95964878D01*
X123029211Y-95908945D01*
X123094675Y-95884528D01*
X123117404Y-95884992D01*
X123299996Y-95905565D01*
X123300000Y-95905565D01*
X123300004Y-95905565D01*
X123479249Y-95885369D01*
X123479252Y-95885368D01*
X123479255Y-95885368D01*
X123649522Y-95825789D01*
X123802262Y-95729816D01*
X123929816Y-95602262D01*
X124025789Y-95449522D01*
X124085368Y-95279255D01*
X124086182Y-95272025D01*
X124113245Y-95207611D01*
X124121702Y-95198243D01*
X124305277Y-95014669D01*
X124376465Y-94908127D01*
X124412430Y-94821300D01*
X124425501Y-94789744D01*
X124436891Y-94732484D01*
X124450500Y-94664071D01*
X124450500Y-62035928D01*
X124425502Y-61910261D01*
X124425501Y-61910260D01*
X124425501Y-61910256D01*
X124376465Y-61791873D01*
X124363124Y-61771907D01*
X124305277Y-61685331D01*
X124305275Y-61685329D01*
X124305273Y-61685326D01*
X120674673Y-58054726D01*
X120674669Y-58054723D01*
X120568127Y-57983535D01*
X120449744Y-57934499D01*
X120449738Y-57934497D01*
X120324071Y-57909500D01*
X120324069Y-57909500D01*
X111405068Y-57909500D01*
X111339096Y-57890494D01*
X111249522Y-57834210D01*
X111249518Y-57834209D01*
X111079262Y-57774633D01*
X111079249Y-57774630D01*
X110900004Y-57754435D01*
X110899996Y-57754435D01*
X110720750Y-57774630D01*
X110720745Y-57774631D01*
X110550476Y-57834211D01*
X110397737Y-57930184D01*
X110270184Y-58057737D01*
X110174211Y-58210476D01*
X110114631Y-58380745D01*
X110114630Y-58380750D01*
X110097720Y-58530840D01*
X110086574Y-58557365D01*
X110093477Y-58568107D01*
X110097720Y-58589159D01*
X110114630Y-58739249D01*
X110114631Y-58739254D01*
X110174211Y-58909523D01*
X110265309Y-59054503D01*
X110270184Y-59062262D01*
X110397738Y-59189816D01*
X110488080Y-59246582D01*
X110549909Y-59285432D01*
X110550478Y-59285789D01*
X110689686Y-59334500D01*
X110720745Y-59345368D01*
X110720750Y-59345369D01*
X110899996Y-59365565D01*
X110900000Y-59365565D01*
X110900004Y-59365565D01*
X111079249Y-59345369D01*
X111079251Y-59345368D01*
X111079255Y-59345368D01*
X111079258Y-59345366D01*
X111079262Y-59345366D01*
X111169377Y-59313832D01*
X111249522Y-59285789D01*
X111339096Y-59229505D01*
X111405068Y-59210500D01*
X119939192Y-59210500D01*
X120006231Y-59230185D01*
X120026873Y-59246819D01*
X123113181Y-62333127D01*
X123146666Y-62394450D01*
X123149500Y-62420808D01*
X123149500Y-94216587D01*
X123129815Y-94283626D01*
X123077011Y-94329381D01*
X123066455Y-94333629D01*
X122950476Y-94374211D01*
X122797737Y-94470184D01*
X122670184Y-94597737D01*
X122574211Y-94750476D01*
X122514631Y-94920745D01*
X122514630Y-94920750D01*
X122494435Y-95099996D01*
X122494435Y-95100004D01*
X122515007Y-95282594D01*
X122502952Y-95351416D01*
X122455603Y-95402795D01*
X122387993Y-95420419D01*
X122321587Y-95398692D01*
X122304106Y-95384158D01*
X119346474Y-92426526D01*
X119346470Y-92426523D01*
X119239928Y-92355335D01*
X119121545Y-92306299D01*
X119121543Y-92306298D01*
X119121542Y-92306298D01*
X119114703Y-92304938D01*
X119114698Y-92304937D01*
X118995872Y-92281300D01*
X118995870Y-92281300D01*
X108444711Y-92281300D01*
X108377672Y-92261615D01*
X108331917Y-92208811D01*
X108321973Y-92139653D01*
X108332327Y-92104898D01*
X108362772Y-92039611D01*
X108423398Y-91813351D01*
X108443814Y-91580000D01*
X108423398Y-91346649D01*
X108420259Y-91334934D01*
X108421920Y-91265085D01*
X108461082Y-91207222D01*
X108525310Y-91179716D01*
X108594212Y-91191301D01*
X108606005Y-91197845D01*
X108650476Y-91225788D01*
X108650478Y-91225789D01*
X108762780Y-91265085D01*
X108820745Y-91285368D01*
X108820750Y-91285369D01*
X108999996Y-91305565D01*
X109000000Y-91305565D01*
X109000004Y-91305565D01*
X109179249Y-91285369D01*
X109179252Y-91285368D01*
X109179255Y-91285368D01*
X109349522Y-91225789D01*
X109502262Y-91129816D01*
X109629816Y-91002262D01*
X109725789Y-90849522D01*
X109785368Y-90679255D01*
X109786182Y-90672025D01*
X109813245Y-90607611D01*
X109821712Y-90598232D01*
X112680826Y-87739118D01*
X112742147Y-87705635D01*
X112782389Y-87703581D01*
X112799997Y-87705565D01*
X112800000Y-87705565D01*
X112800004Y-87705565D01*
X112979249Y-87685369D01*
X112979252Y-87685368D01*
X112979255Y-87685368D01*
X113149522Y-87625789D01*
X113302262Y-87529816D01*
X113429816Y-87402262D01*
X113525789Y-87249522D01*
X113585368Y-87079255D01*
X113585369Y-87079249D01*
X113605565Y-86900003D01*
X113605565Y-86899996D01*
X113585369Y-86720750D01*
X113585368Y-86720745D01*
X113525788Y-86550476D01*
X113429815Y-86397737D01*
X113302262Y-86270184D01*
X113149523Y-86174211D01*
X112979254Y-86114631D01*
X112979249Y-86114630D01*
X112800004Y-86094435D01*
X112799996Y-86094435D01*
X112620750Y-86114630D01*
X112620745Y-86114631D01*
X112450476Y-86174211D01*
X112297737Y-86270184D01*
X112170186Y-86397735D01*
X112170182Y-86397740D01*
X112157101Y-86418557D01*
X112139792Y-86440260D01*
X108901775Y-89678277D01*
X108840452Y-89711762D01*
X108827988Y-89713815D01*
X108820752Y-89714630D01*
X108820744Y-89714632D01*
X108650478Y-89774210D01*
X108497737Y-89870184D01*
X108370184Y-89997737D01*
X108274211Y-90150476D01*
X108214631Y-90320745D01*
X108214630Y-90320750D01*
X108194786Y-90496879D01*
X108167720Y-90561293D01*
X108110125Y-90600849D01*
X108040288Y-90602986D01*
X107983885Y-90570677D01*
X107963791Y-90550583D01*
X107963787Y-90550579D01*
X107771907Y-90416223D01*
X107771905Y-90416222D01*
X107767472Y-90413118D01*
X107768481Y-90411676D01*
X107725712Y-90366828D01*
X107712484Y-90298222D01*
X107738447Y-90233355D01*
X107768048Y-90207705D01*
X107767472Y-90206882D01*
X107771905Y-90203777D01*
X107771907Y-90203777D01*
X107963787Y-90069421D01*
X108129421Y-89903787D01*
X108263777Y-89711907D01*
X108362772Y-89499611D01*
X108423398Y-89273351D01*
X108443814Y-89040000D01*
X108423398Y-88806649D01*
X108405980Y-88741644D01*
X108407643Y-88671794D01*
X108438072Y-88621872D01*
X109705276Y-87354670D01*
X109748487Y-87290000D01*
X109776464Y-87248129D01*
X109783490Y-87231166D01*
X109825501Y-87129744D01*
X109831288Y-87100650D01*
X109850500Y-87004069D01*
X109850500Y-58603042D01*
X109863108Y-58560101D01*
X109852360Y-58538351D01*
X109850500Y-58516957D01*
X109850500Y-53035928D01*
X109825502Y-52910261D01*
X109825501Y-52910260D01*
X109825501Y-52910256D01*
X109783184Y-52808093D01*
X109776466Y-52791874D01*
X109705277Y-52685331D01*
X109705272Y-52685325D01*
X108314673Y-51294726D01*
X108314669Y-51294723D01*
X108208127Y-51223535D01*
X108089744Y-51174499D01*
X108089738Y-51174497D01*
X107964071Y-51149500D01*
X107964069Y-51149500D01*
X99028825Y-51149500D01*
X99028823Y-51149500D01*
X98903155Y-51174497D01*
X98903149Y-51174499D01*
X98784768Y-51223534D01*
X98678220Y-51294726D01*
X91994727Y-57978219D01*
X91994721Y-57978226D01*
X91943608Y-58054723D01*
X91943609Y-58054724D01*
X91923534Y-58084768D01*
X91874499Y-58203149D01*
X91874497Y-58203155D01*
X91849500Y-58328822D01*
X91849500Y-75294931D01*
X91830494Y-75360903D01*
X91774211Y-75450477D01*
X91774209Y-75450481D01*
X91714633Y-75620737D01*
X91714630Y-75620750D01*
X91694435Y-75799996D01*
X85778000Y-75799996D01*
X85778000Y-49078711D01*
X87049500Y-49078711D01*
X87049500Y-49321288D01*
X87081161Y-49561785D01*
X87143947Y-49796104D01*
X87236773Y-50020205D01*
X87236776Y-50020212D01*
X87358064Y-50230289D01*
X87358066Y-50230292D01*
X87358067Y-50230293D01*
X87505733Y-50422736D01*
X87505739Y-50422743D01*
X87677256Y-50594260D01*
X87677262Y-50594265D01*
X87869711Y-50741936D01*
X88079788Y-50863224D01*
X88303900Y-50956054D01*
X88538211Y-51018838D01*
X88718586Y-51042584D01*
X88778711Y-51050500D01*
X88778712Y-51050500D01*
X89021289Y-51050500D01*
X89069388Y-51044167D01*
X89261789Y-51018838D01*
X89496100Y-50956054D01*
X89720212Y-50863224D01*
X89930289Y-50741936D01*
X90122738Y-50594265D01*
X90294265Y-50422738D01*
X90441936Y-50230289D01*
X90563224Y-50020212D01*
X90656054Y-49796100D01*
X90718838Y-49561789D01*
X90750500Y-49321288D01*
X90750500Y-49078712D01*
X90737335Y-48978711D01*
X142049500Y-48978711D01*
X142049500Y-49221288D01*
X142081161Y-49461785D01*
X142143947Y-49696104D01*
X142185367Y-49796100D01*
X142236776Y-49920212D01*
X142358064Y-50130289D01*
X142358066Y-50130292D01*
X142358067Y-50130293D01*
X142505733Y-50322736D01*
X142505739Y-50322743D01*
X142677256Y-50494260D01*
X142677262Y-50494265D01*
X142869711Y-50641936D01*
X143079788Y-50763224D01*
X143303900Y-50856054D01*
X143538211Y-50918838D01*
X143718586Y-50942584D01*
X143778711Y-50950500D01*
X143778712Y-50950500D01*
X144021289Y-50950500D01*
X144069388Y-50944167D01*
X144261789Y-50918838D01*
X144496100Y-50856054D01*
X144720212Y-50763224D01*
X144930289Y-50641936D01*
X145122738Y-50494265D01*
X145294265Y-50322738D01*
X145441936Y-50130289D01*
X145563224Y-49920212D01*
X145656054Y-49696100D01*
X145718838Y-49461789D01*
X145750500Y-49221288D01*
X145750500Y-48978712D01*
X145718838Y-48738211D01*
X145656054Y-48503900D01*
X145563224Y-48279788D01*
X145441936Y-48069711D01*
X145294265Y-47877262D01*
X145294260Y-47877256D01*
X145122743Y-47705739D01*
X145122736Y-47705733D01*
X144930293Y-47558067D01*
X144930292Y-47558066D01*
X144930289Y-47558064D01*
X144720212Y-47436776D01*
X144720205Y-47436773D01*
X144496104Y-47343947D01*
X144261785Y-47281161D01*
X144021289Y-47249500D01*
X144021288Y-47249500D01*
X143778712Y-47249500D01*
X143778711Y-47249500D01*
X143538214Y-47281161D01*
X143303895Y-47343947D01*
X143079794Y-47436773D01*
X143079785Y-47436777D01*
X142869706Y-47558067D01*
X142677263Y-47705733D01*
X142677256Y-47705739D01*
X142505739Y-47877256D01*
X142505733Y-47877263D01*
X142358067Y-48069706D01*
X142236777Y-48279785D01*
X142236773Y-48279794D01*
X142143947Y-48503895D01*
X142081161Y-48738214D01*
X142049500Y-48978711D01*
X90737335Y-48978711D01*
X90718838Y-48838211D01*
X90656054Y-48603900D01*
X90563224Y-48379788D01*
X90441936Y-48169711D01*
X90381018Y-48090321D01*
X90294266Y-47977263D01*
X90294260Y-47977256D01*
X90122743Y-47805739D01*
X90122736Y-47805733D01*
X89930293Y-47658067D01*
X89930292Y-47658066D01*
X89930289Y-47658064D01*
X89720212Y-47536776D01*
X89720205Y-47536773D01*
X89496104Y-47443947D01*
X89261785Y-47381161D01*
X89021289Y-47349500D01*
X89021288Y-47349500D01*
X88778712Y-47349500D01*
X88778711Y-47349500D01*
X88538214Y-47381161D01*
X88303895Y-47443947D01*
X88079794Y-47536773D01*
X88079785Y-47536777D01*
X87869706Y-47658067D01*
X87677263Y-47805733D01*
X87677256Y-47805739D01*
X87505739Y-47977256D01*
X87505733Y-47977263D01*
X87358067Y-48169706D01*
X87236777Y-48379785D01*
X87236773Y-48379794D01*
X87143947Y-48603895D01*
X87081161Y-48838214D01*
X87049500Y-49078711D01*
X85778000Y-49078711D01*
X85778000Y-46219055D01*
X85797685Y-46152016D01*
X85850489Y-46106261D01*
X85902000Y-46095055D01*
X146580945Y-46095055D01*
X146647984Y-46114740D01*
G37*
%TD.AperFunction*%
%TD*%
M02*
